<?xml version="1.0" standalone="no"?>
<!DOCTYPE svg PUBLIC "-//W3C//DTD SVG 1.1//EN" "http://www.w3.org/Graphics/SVG/1.1/DTD/svg11.dtd" >
<svg xmlns="http://www.w3.org/2000/svg" xmlns:xlink="http://www.w3.org/1999/xlink" version="1.1">
<metadata>
Created by FontForge 20200427 at Mon May 16 20:21:33 2016
 By www
Copyright (c) 2007 Canada Type. All rights reserved.
</metadata>
<defs>
<font id="MiedingerMediumW00-Regular" horiz-adv-x="305" >
  <font-face 
    font-family="MiedingerMediumW00-Regular"
    font-weight="400"
    font-stretch="normal"
    units-per-em="1000"
    panose-1="2 0 5 7 3 0 0 2 0 4"
    ascent="800"
    descent="-200"
    x-height="700"
    cap-height="700"
    bbox="-102 -348 2140 973"
    underline-thickness="50"
    underline-position="-125"
    unicode-range="U+0020-FB02"
  />
<missing-glyph horiz-adv-x="450" 
 />
    <glyph glyph-name=".notdef" horiz-adv-x="450" 
 />
    <glyph glyph-name="glyph1" horiz-adv-x="0" 
 />
    <glyph glyph-name="glyph1" horiz-adv-x="0" 
 />
    <glyph glyph-name="glyph2" horiz-adv-x="450" 
 />
    <glyph glyph-name="space" unicode=" " horiz-adv-x="450" 
 />
    <glyph glyph-name="exclam" unicode="!" horiz-adv-x="311" 
d="M70 700h171l-25 -500h-121zM72 135h165v-135h-165v135z" />
    <glyph glyph-name="quotedbl" unicode="&#x22;" horiz-adv-x="368" 
d="M10 800h153l-25 -348h-103zM205 800h153l-25 -348h-103z" />
    <glyph glyph-name="numbersign" unicode="#" horiz-adv-x="704" 
d="M297 528h171l24 172h129l-24 -172h93v-111h-109l-19 -138h99v-111h-114l-24 -168h-129l24 168h-171l-24 -168h-129l24 168h-93v111h108l19 138h-98v111h114l24 172h129zM262 279h171l19 138h-171z" />
    <glyph glyph-name="dollar" unicode="$" horiz-adv-x="1084" 
d="M566 700h187q79 0 130.5 -16t83.5 -45.5t48.5 -70t25.5 -89.5h-169q-9 23 -20 39.5t-27.5 27t-41 15.5t-60.5 5h-157v-151h189q82 0 139.5 -14.5t93.5 -40.5t52.5 -64t16.5 -84q0 -50 -16.5 -89.5t-52.5 -66.5t-94 -41.5t-140 -14.5h-188v-100h-50v100h-208
q-79 0 -130.5 16t-83.5 45t-48.5 69.5t-25.5 90.5h169q9 -23 20 -39.5t27.5 -27.5t41 -16t60.5 -5h178v152h-170q-83 0 -140.5 14t-93.5 40.5t-52.5 63.5t-16.5 84q0 51 16.5 90.5t52.5 66.5t93.5 41.5t140.5 14.5h170v100h50v-100zM566 285v-152h135q51 0 86.5 3t58.5 11.5
t33.5 24t10.5 39.5t-10.5 38.5t-33 22.5t-58.5 10.5t-87 2.5h-135zM210 489q0 -24 10.5 -38.5t33.5 -22.5t58.5 -10.5t86.5 -2.5h117v151h-116q-51 0 -87 -3t-59 -11t-33.5 -23.5t-10.5 -39.5z" />
    <glyph glyph-name="percent" unicode="%" horiz-adv-x="1126" 
d="M497 508q0 -51 -16 -89.5t-45.5 -64t-71 -38t-91.5 -12.5t-91 14t-70.5 40.5t-45.5 64.5t-16 85t16 84.5t45.5 64t70.5 41t91 14.5t91.5 -14t71 -40.5t45.5 -64.5t16 -85zM273 396q53 0 80.5 28t27.5 84q0 48 -27 80t-81 32q-53 0 -80 -31.5t-27 -80.5t27 -80.5t80 -31.5
zM420 0h-109l405 700h109zM1076 189q0 -51 -16 -89.5t-45.5 -64t-71 -38t-91.5 -12.5t-91 14t-70.5 40.5t-46 64.5t-16.5 85t16.5 84.5t46 64t70.5 41t91 14.5t91.5 -14t71 -40.5t45.5 -64.5t16 -85zM852 77q107 0 107 112q0 48 -26.5 80t-80.5 32t-80.5 -31.5t-26.5 -80.5
t26.5 -80.5t80.5 -31.5z" />
    <glyph glyph-name="ampersand" unicode="&#x26;" horiz-adv-x="987" 
d="M542 475q-7 49 -40.5 75.5t-111.5 26.5h-81q-42 0 -69.5 -18t-27.5 -62q0 -42 28 -61.5t79 -19.5h660v-121h-31q0 -17 -0.5 -32.5t-1.5 -29.5q-3 -65 -26 -111t-63 -75.5t-96.5 -43t-126.5 -13.5h-337q-71 0 -120.5 19.5t-80 49.5t-44.5 66.5t-14 71.5q0 19 4.5 45.5
t17 51.5t34 45.5t56.5 29.5q-20 9 -38 25.5t-31 38t-20.5 45.5t-7.5 47q0 84 55.5 134.5t172.5 50.5h139q79 0 132 -18.5t86 -50.5t49.5 -75t22.5 -91h-168zM195 209q0 -42 28 -64.5t79 -22.5h324q31 0 59 5t49.5 19.5t35 40.5t16.5 67q2 9 2 19.5v21.5h-486q-51 0 -79 -23
t-28 -63z" />
    <glyph glyph-name="quotesingle" unicode="'" horiz-adv-x="173" 
d="M10 800h153l-25 -348h-103z" />
    <glyph glyph-name="parenleft" unicode="(" horiz-adv-x="342" 
d="M342 799q-29 -41 -56.5 -101t-48.5 -127.5t-34 -138t-13 -133.5t13 -133.5t34 -138t48.5 -127t56.5 -100.5h-115q-40 37 -74 93.5t-59 123.5t-39.5 140t-14.5 142t14.5 142t39.5 140.5t59 124t74 93.5h115z" />
    <glyph glyph-name="parenright" unicode=")" horiz-adv-x="342" 
d="M115 799q40 -37 74 -93.5t59 -124t39.5 -140.5t14.5 -142t-14.5 -142t-39.5 -140t-59 -123.5t-74 -93.5h-115q29 41 56.5 100.5t48.5 127t34 138t13 133.5t-13 133.5t-34 138t-48.5 127.5t-56.5 101h115z" />
    <glyph glyph-name="asterisk" unicode="*" horiz-adv-x="410" 
d="M163 634l-8 126h100l-8 -126l123 48l30 -96l-126 -33l87 -109l-85 -58l-72 113l-74 -112l-83 60l88 106l-125 35l31 95z" />
    <glyph glyph-name="plus" unicode="+" horiz-adv-x="641" 
d="M253 416v194h134v-194h195v-135h-195v-194h-134v194h-194v135h194z" />
    <glyph glyph-name="comma" unicode="," 
d="M70 135h165v-130q0 -51 -14.5 -81.5t-38 -47t-53 -22t-59.5 -5.5v58q21 0 37 4t27 14t16.5 28t5.5 47h-86v135z" />
    <glyph glyph-name="hyphen" unicode="-" horiz-adv-x="481" 
d="M59 416h363v-134h-363v134z" />
    <glyph glyph-name="period" unicode="." 
d="M70 135h165v-135h-165v135z" />
    <glyph glyph-name="slash" unicode="/" horiz-adv-x="569" 
d="M424 800h145l-424 -900h-145z" />
    <glyph glyph-name="zero" unicode="0" horiz-adv-x="993" 
d="M956 218q0 -65 -16 -107.5t-46 -68.5t-73 -36.5t-97 -10.5h-454q-54 0 -97 10.5t-73 36.5t-46 68.5t-16 107.5v267q0 63 16.5 105t46.5 67.5t73 36.5t96 11h454q53 0 96 -11t73 -36.5t46.5 -67.5t16.5 -105v-267zM203 244q0 -34 7.5 -56t23.5 -35t41.5 -18t60.5 -5h322
q35 0 60.5 5t41.5 18t23.5 35t7.5 56v210q0 65 -32.5 90t-100.5 25h-322q-68 0 -100.5 -25t-32.5 -90v-210z" />
    <glyph glyph-name="one" unicode="1" horiz-adv-x="576" 
d="M284 502q-25 -23 -58 -36.5t-65 -20.5t-58.5 -8.5t-37.5 -1.5v132q10 0 39 6t65.5 21t75.5 41t69 65h135v-700h-165v502z" />
    <glyph glyph-name="two" unicode="2" horiz-adv-x="984" 
d="M30 31q0 79 32 135t84 94.5t119 62.5t136.5 40t136.5 26.5t119 22.5t84 27t32 41q0 29 -13 46.5t-44 26.5t-82.5 11.5t-127.5 2.5h-106q-54 0 -87.5 -5t-52.5 -16t-28.5 -29t-15.5 -44h-165q8 51 24.5 93t49 72t85.5 46t135 16h257q54 0 112.5 -9.5t107 -34t80 -68.5
t31.5 -113q0 -36 -15 -63.5t-40.5 -47.5t-58 -34.5t-68 -24.5t-71.5 -16.5t-67 -11.5q-59 -9 -122.5 -18.5t-117 -24.5t-89.5 -38.5t-39 -61.5h698v-134h-913v31z" />
    <glyph glyph-name="three" unicode="3" horiz-adv-x="988" 
d="M51 475q7 48 23.5 90t49 73t84.5 49t132 18h367q117 0 172.5 -48t55.5 -132q0 -23 -7.5 -47t-20.5 -45.5t-31 -38t-38 -25.5q34 -9 56 -29.5t34.5 -45.5t17 -51.5t4.5 -45.5q0 -35 -14 -70.5t-44.5 -65t-80 -48t-120.5 -18.5h-357q-81 0 -135 18t-87.5 49.5t-50 74.5
t-22.5 93h165q8 -52 45 -77.5t115 -25.5h321q51 0 79.5 20t28.5 62q0 40 -28.5 63t-79.5 23h-318v121h301q51 0 79.5 19.5t28.5 61.5q0 44 -27.5 59.5t-70.5 15.5h-308q-78 0 -110.5 -24t-40.5 -73h-168v0z" />
    <glyph glyph-name="four" unicode="4" horiz-adv-x="943" 
d="M790 180v-180h-165v180h-584v125l584 395h165v-392h119v-128h-119zM625 308v257l-382 -257h382z" />
    <glyph glyph-name="five" unicode="5" horiz-adv-x="983" 
d="M310 335q-37 0 -65 -11.5t-42 -46.5h-158l53 423h810v-133h-675l-19 -149q18 23 37.5 30t40.5 7h402q53 0 98 -11t78 -37.5t51.5 -69t18.5 -105.5v-7q0 -65 -18 -109t-51 -71t-78 -38.5t-99 -11.5h-404q-54 0 -99.5 10.5t-78 36t-51 67t-18.5 104.5v11h161q0 -36 17 -55
t41.5 -28t52.5 -10.5t51 -1.5h277q57 0 91.5 21.5t34.5 81.5q0 39 -15 59.5t-39 30.5t-54 11.5t-60 1.5h-291v0z" />
    <glyph glyph-name="six" unicode="6" horiz-adv-x="1010" 
d="M335 567q-60 0 -88 -20t-28 -67v-72q18 23 38.5 30t41.5 7h416q53 0 98 -11t78 -36.5t51.5 -67.5t18.5 -105v-7q0 -65 -18 -107.5t-51 -68.5t-78 -36.5t-99 -10.5h-419q-54 0 -99.5 10.5t-78 36.5t-51 68.5t-18.5 107.5v265q0 63 19 105t52 66.5t78 35t98 10.5h367
q77 0 128.5 -15t84 -43t48 -68t20.5 -90h-160q-8 50 -42 66.5t-94 16.5h-313zM341 325q-24 0 -46 -4t-38.5 -15t-26.5 -30t-10 -50q0 -30 10 -49t26.5 -29.5t38.5 -14.5t46 -4h323q28 0 51.5 4t40 14.5t25.5 29.5t9 49q0 31 -9.5 50t-26.5 30t-40 15t-50 4h-323z" />
    <glyph glyph-name="seven" unicode="7" horiz-adv-x="815" 
d="M29 700h757v-133q-84 -49 -158 -120.5t-131 -150.5t-93.5 -157t-45.5 -139h-176q3 30 18 73t40.5 93.5t60.5 105t78 107.5t93.5 101t106.5 85h-550v135z" />
    <glyph glyph-name="eight" unicode="8" horiz-adv-x="980" 
d="M292 -10q-71 0 -119.5 19.5t-78.5 49.5t-43 66.5t-13 71.5q0 19 4.5 45.5t17 51.5t34 45.5t56.5 29.5q-20 9 -38 25.5t-31 38t-20.5 45.5t-7.5 47q0 40 13 74t40 58.5t69 38.5t101 14h428q117 0 170 -50.5t53 -134.5q0 -23 -7.5 -47t-20.5 -45.5t-31 -38t-38 -25.5
q34 -9 56 -29.5t34.5 -45.5t17 -51.5t4.5 -45.5q0 -35 -13 -71.5t-43 -66.5t-78.5 -49.5t-119.5 -19.5h-396zM302 295q-51 0 -79 -23.5t-28 -64.5q0 -42 28 -64t79 -22h375q51 0 79.5 22t28.5 64q0 41 -28.5 64.5t-79.5 23.5h-375zM309 581q-43 0 -70 -18.5t-27 -63.5
q0 -42 28 -62.5t79 -20.5h341q51 0 79.5 20.5t28.5 62.5q0 45 -27.5 63.5t-70.5 18.5h-361z" />
    <glyph glyph-name="nine" unicode="9" horiz-adv-x="1005" 
d="M669 128q60 0 88 20t28 67v72q-18 -23 -38.5 -30t-41.5 -7h-410q-53 0 -98 11.5t-78 37t-51.5 67.5t-18.5 103q0 64 18 108t50.5 71.5t78 39.5t99.5 12h414q54 0 99.5 -10.5t78 -36.5t51 -69t18.5 -107v-265q0 -63 -19 -105t-52 -66.5t-78 -35t-98 -10.5h-372
q-77 0 -129 15t-84 43t-47.5 68t-20.5 90h159q5 -31 19 -47.5t36.5 -24.5t53 -9.5t69.5 -1.5h276zM663 369q24 0 46 4t38.5 15t26.5 30t10 50q0 30 -10 49t-26.5 30t-38.5 15t-46 4h-317q-28 0 -51.5 -4t-40 -15t-25.5 -30t-9 -49q0 -31 9.5 -50t26.5 -30t40 -15t50 -4h317z
" />
    <glyph glyph-name="colon" unicode=":" 
d="M70 135h165v-135h-165v135zM70 495h165v-135h-165v135z" />
    <glyph glyph-name="semicolon" unicode=";" 
d="M70 495h165v-135h-165v135zM70 135h165v-130q0 -51 -14.5 -81.5t-38 -47t-53 -22t-59.5 -5.5v58q21 0 37 4t27 14t16.5 28t5.5 47h-86v135z" />
    <glyph glyph-name="less" unicode="&#x3c;" horiz-adv-x="609" 
d="M25 305v87l353 308h231l-403 -351l403 -349h-233z" />
    <glyph glyph-name="equal" unicode="=" horiz-adv-x="681" 
d="M59 555h563v-135h-563v135zM59 280h563v-134h-563v134z" />
    <glyph glyph-name="greater" unicode="&#x3e;" horiz-adv-x="609" 
d="M233 0h-233l403 349l-403 351h231l353 -308v-87z" />
    <glyph glyph-name="question" unicode="?" horiz-adv-x="957" 
d="M294 208q9 44 34 75t59 52t74.5 35t81 24t78.5 18.5t67.5 19.5t47 25.5t17.5 37.5q0 24 -12 38t-41.5 21.5t-80 10t-126.5 2.5h-114q-54 0 -87 -5t-52.5 -16.5t-28.5 -29.5t-16 -43h-165q8 51 24.5 93t49 72t85.5 46t135 16h265q106 0 170.5 -20t99.5 -51t46 -67t11 -69
q0 -47 -19 -78.5t-50 -52.5t-70.5 -33.5t-81.5 -21.5t-82.5 -16.5t-73.5 -17.5t-54.5 -25t-25.5 -40h-165zM294 135h165v-135h-165v135z" />
    <glyph glyph-name="at" unicode="@" horiz-adv-x="1195" 
d="M30 348q0 72 20.5 137.5t66.5 115.5t119.5 79.5t180.5 29.5h358q105 0 179 -30t121 -80t68.5 -115.5t21.5 -136.5t-21.5 -136t-68.5 -114.5t-121 -78.5t-179 -29h-358q-107 0 -180.5 29t-119.5 78t-66.5 114t-20.5 137zM669 607h-144l-307 -477h125l58 89h389l58 -89h128
zM598 518l137 -213h-277z" />
    <glyph glyph-name="A" unicode="A" horiz-adv-x="1055" 
d="M1085 0h-190l-84 130h-571l-86 -130h-184l451 700h213zM322 257h408l-201 313z" />
    <glyph glyph-name="B" unicode="B" horiz-adv-x="1135" 
d="M70 700h777q110 0 166.5 -50t56.5 -135q0 -23 -7.5 -47t-20.5 -45.5t-31 -38t-38 -25.5q34 -9 57.5 -26.5t38 -39t20.5 -44.5t6 -42q0 -51 -13 -90t-42.5 -65t-77 -39t-116.5 -13h-776v700zM235 135h586q31 0 49.5 8t28.5 19t13.5 24t3.5 24q0 10 -3.5 22.5t-13.5 24
t-28.5 19.5t-49.5 8h-586v-149zM235 415h561q31 0 49.5 8t28.5 19t13.5 24t3.5 24q0 10 -3.5 22.5t-13.5 24t-28.5 19.5t-49.5 8h-561v-149z" />
    <glyph glyph-name="C" unicode="C" horiz-adv-x="1139" 
d="M449 577q-123 0 -188.5 -59.5t-65.5 -169.5q0 -109 65.5 -167.5t188.5 -58.5h255q86 0 145 29t87 89h173q-13 -53 -41.5 -98.5t-74.5 -79t-110.5 -53t-148.5 -19.5h-316q-106 0 -179.5 29t-120 78t-67.5 113.5t-21 136.5t21 137.5t67.5 115.5t120 80t179.5 30h316
q82 0 145 -19t108.5 -51.5t74.5 -76.5t44 -95h-175q-30 55 -88 82t-139 27h-255z" />
    <glyph glyph-name="D" unicode="D" horiz-adv-x="1181" 
d="M70 700h691q105 0 179 -28.5t121 -76.5t68.5 -112t21.5 -135t-21.5 -134.5t-68.5 -111t-121 -75t-179 -27.5h-691v700zM235 567v-435h496q121 0 188 54t67 163t-67 163.5t-188 54.5h-496z" />
    <glyph glyph-name="E" unicode="E" horiz-adv-x="1070" 
d="M235 565v-150h748v-130h-748v-150h810v-135h-975v700h975v-135h-810z" />
    <glyph glyph-name="F" unicode="F" horiz-adv-x="999" 
d="M235 565v-180h692v-130h-692v-255h-165v700h919v-135h-754z" />
    <glyph glyph-name="G" unicode="G" horiz-adv-x="1173" 
d="M449 577q-123 0 -188.5 -61t-65.5 -170q0 -110 65.5 -167t188.5 -57h285q40 0 72 4.5t58 18.5t47 41.5t38 73.5h-406v114h575v-374h-117l-30 103q-8 -21 -24 -41.5t-41.5 -36.5t-61.5 -25.5t-85 -9.5h-341q-106 0 -179.5 28.5t-120 77.5t-67.5 113t-21 136t21 138
t67.5 116.5t120 80.5t179.5 30h316q80 0 142.5 -18t108 -49.5t75 -74t44.5 -91.5h-179q-27 50 -85.5 75t-135.5 25h-255z" />
    <glyph glyph-name="H" unicode="H" horiz-adv-x="1224" 
d="M989 286h-754v-286h-165v700h165v-279h754v279h165v-700h-165v286z" />
    <glyph glyph-name="I" unicode="I" 
d="M70 700h165v-700h-165v700z" />
    <glyph glyph-name="J" unicode="J" horiz-adv-x="1016" 
d="M409 -10q-97 0 -166.5 22.5t-116 63t-71 96.5t-30.5 123h166q15 -90 76.5 -131.5t171.5 -41.5h102q121 0 188 53t67 169v356h165v-357q0 -75 -21.5 -139.5t-68.5 -112t-121 -74.5t-179 -27h-162z" />
    <glyph glyph-name="K" unicode="K" horiz-adv-x="947" 
d="M934 700l-541 -318l589 -382h-276l-476 311v-311h-160v700h160v-255l433 255h271z" />
    <glyph glyph-name="L" unicode="L" horiz-adv-x="1015" 
d="M1005 135v-135h-935v700h165v-565h770z" />
    <glyph glyph-name="M" unicode="M" horiz-adv-x="1352" 
d="M70 0v700h231l376 -517l369 517h236v-700h-165v529l-377 -529h-121l-384 528v-528h-165z" />
    <glyph glyph-name="N" unicode="N" horiz-adv-x="1155" 
d="M1085 0h-185l-665 526v-526h-165v701h201l649 -514v513h165v-700z" />
    <glyph glyph-name="O" unicode="O" horiz-adv-x="1195" 
d="M418 -10q-106 0 -179.5 29t-120 78.5t-67.5 114t-21 136.5t21 137.5t67.5 115.5t120 79.5t179.5 29.5h357q105 0 179 -30t121 -80t68.5 -115.5t21.5 -136.5t-21.5 -136t-68.5 -114.5t-121 -78.5t-179 -29h-357zM449 577q-123 0 -188.5 -59.5t-65.5 -168.5
q0 -110 65.5 -168.5t188.5 -58.5h296q121 0 188 59t67 168t-67 168.5t-188 59.5h-296z" />
    <glyph glyph-name="P" unicode="P" horiz-adv-x="1082" 
d="M70 701h668q86 0 147.5 -16.5t100.5 -49.5t57.5 -82.5t18.5 -114.5q0 -57 -18 -104.5t-57 -81.5t-100 -53t-147 -19h-505v-180h-165v701zM235 315h509q27 0 54 4.5t49 17.5t36 37.5t14 64.5q0 41 -14 65.5t-36 38t-49 18t-54 4.5h-509v-250z" />
    <glyph glyph-name="Q" unicode="Q" horiz-adv-x="1197" 
d="M418 -10q-106 0 -179.5 29t-120 78.5t-67.5 114t-21 136.5t21 137.5t67.5 115.5t120 79.5t179.5 29.5h357q105 0 179 -30t121 -80t68.5 -115.5t21.5 -136.5q0 -47 -9 -91t-28 -83t-48.5 -72t-70.5 -57l160 -170h-149l-122 129q-56 -14 -123 -14h-357zM795 273l107 -115
q48 29 73 77t25 114q0 109 -67 168.5t-188 59.5h-296q-123 0 -188.5 -59.5t-65.5 -168.5q0 -110 65.5 -168.5t188.5 -58.5h254q40 0 79 6l-136 145h149z" />
    <glyph glyph-name="R" unicode="R" horiz-adv-x="1104" 
d="M943 336q35 -14 58.5 -31.5t38 -39t21 -45.5t7.5 -49q1 -31 2.5 -55.5t5 -44.5t10 -37.5t18.5 -33.5h-164q-18 21 -23 48.5t-7 59.5q-2 29 -10 55.5t-24.5 47t-42 32.5t-61.5 12h-536v-255h-166v700h692q66 0 120 -7.5t93 -29t60 -59.5t21 -99q0 -24 -6 -49.5t-19 -48.5
t-35 -41.5t-53 -29.5zM236 380h477q31 0 63.5 2t58.5 10.5t42.5 27t16.5 51.5q0 35 -17 54t-43.5 28t-59 10.5t-63.5 1.5h-475v-185z" />
    <glyph glyph-name="S" unicode="S" horiz-adv-x="1082" 
d="M701 133q51 0 86.5 3t58.5 11.5t33.5 24t10.5 39.5t-10.5 38.5t-33 22.5t-58.5 10.5t-87 2.5h-355q-83 0 -140.5 14t-93.5 40.5t-52.5 63.5t-16.5 84q0 51 16.5 90.5t52.5 66.5t93.5 41.5t140.5 14.5h407q79 0 130.5 -16t83.5 -45.5t48.5 -70t25.5 -89.5h-169
q-9 23 -20 39.5t-27.5 27t-41 15.5t-60.5 5h-323q-51 0 -87 -3t-59 -11t-33.5 -23.5t-10.5 -39.5t10.5 -38.5t33.5 -22.5t58.5 -10.5t86.5 -2.5h356q82 0 139.5 -14.5t93.5 -40.5t52.5 -64t16.5 -84q0 -50 -16.5 -89.5t-52.5 -66.5t-94 -41.5t-140 -14.5h-446
q-79 0 -130.5 16t-83.5 45t-48.5 69.5t-25.5 90.5h169q9 -23 20 -39.5t27.5 -27.5t41 -16t60.5 -5h363z" />
    <glyph glyph-name="T" unicode="T" horiz-adv-x="1023" 
d="M594 565v-565h-165v565h-419v135h1003v-135h-419z" />
    <glyph glyph-name="U" unicode="U" horiz-adv-x="1191" 
d="M443 -10q-106 0 -179.5 27t-120 74t-67.5 112t-21 140v357h165v-356q0 -117 66 -169.5t188 -52.5h242q121 0 188 53t67 169v356h165v-357q0 -75 -21.5 -139.5t-68.5 -112t-121 -74.5t-179 -27h-303z" />
    <glyph glyph-name="V" unicode="V" horiz-adv-x="995" 
d="M604 0h-213l-431 700h184l355 -570l346 570h190z" />
    <glyph glyph-name="W" unicode="W" horiz-adv-x="1387" 
d="M608 700h170l197 -535l232 535h180l-309 -700h-197l-188 493l-188 -493h-196l-309 700h180l232 -535z" />
    <glyph glyph-name="X" unicode="X" horiz-adv-x="965" 
d="M482 448l290 252h228l-403 -351l403 -349h-230l-288 249l-287 -249h-230l403 349l-403 351h228z" />
    <glyph glyph-name="Y" unicode="Y" horiz-adv-x="979" 
d="M407 230l-447 470h217l313 -329l313 329h216l-447 -469v-231h-165v230z" />
    <glyph glyph-name="Z" unicode="Z" horiz-adv-x="1043" 
d="M317 135h706v-135h-1003v118l675 447h-652v135h958v-113z" />
    <glyph glyph-name="bracketleft" unicode="[" horiz-adv-x="380" 
d="M350 -55v-145h-280v1000h280v-145h-115v-710h115z" />
    <glyph glyph-name="backslash" unicode="\" horiz-adv-x="569" 
d="M569 -100h-145l-424 900h145z" />
    <glyph glyph-name="bracketright" unicode="]" horiz-adv-x="380" 
d="M145 -55v710h-115v145h280v-1000h-280v145h115z" />
    <glyph glyph-name="asciicircum" unicode="^" horiz-adv-x="1082" 
d="M70 701h668q86 0 147.5 -16.5t100.5 -49.5t57.5 -82.5t18.5 -114.5q0 -57 -18 -104.5t-57 -81.5t-100 -53t-147 -19h-505v-180h-165v701z" />
    <glyph glyph-name="underscore" unicode="_" horiz-adv-x="563" 
d="M0 61h563v-124h-563v124z" />
    <glyph glyph-name="grave" unicode="`" horiz-adv-x="433" 
d="M39 894h223l91 -144h-161z" />
    <glyph glyph-name="a" unicode="a" horiz-adv-x="1055" 
d="M1085 0h-190l-84 130h-571l-86 -130h-184l451 700h213zM322 257h408l-201 313z" />
    <glyph glyph-name="b" unicode="b" horiz-adv-x="1135" 
d="M70 700h777q110 0 166.5 -50t56.5 -135q0 -23 -7.5 -47t-20.5 -45.5t-31 -38t-38 -25.5q34 -9 57.5 -26.5t38 -39t20.5 -44.5t6 -42q0 -51 -13 -90t-42.5 -65t-77 -39t-116.5 -13h-776v700zM235 135h586q31 0 49.5 8t28.5 19t13.5 24t3.5 24q0 10 -3.5 22.5t-13.5 24
t-28.5 19.5t-49.5 8h-586v-149zM235 415h561q31 0 49.5 8t28.5 19t13.5 24t3.5 24q0 10 -3.5 22.5t-13.5 24t-28.5 19.5t-49.5 8h-561v-149z" />
    <glyph glyph-name="c" unicode="c" horiz-adv-x="1139" 
d="M449 577q-123 0 -188.5 -59.5t-65.5 -169.5q0 -109 65.5 -167.5t188.5 -58.5h255q86 0 145 29t87 89h173q-13 -53 -41.5 -98.5t-74.5 -79t-110.5 -53t-148.5 -19.5h-316q-106 0 -179.5 29t-120 78t-67.5 113.5t-21 136.5t21 137.5t67.5 115.5t120 80t179.5 30h316
q82 0 145 -19t108.5 -51.5t74.5 -76.5t44 -95h-175q-30 55 -88 82t-139 27h-255z" />
    <glyph glyph-name="d" unicode="d" horiz-adv-x="1181" 
d="M70 700h691q105 0 179 -28.5t121 -76.5t68.5 -112t21.5 -135t-21.5 -134.5t-68.5 -111t-121 -75t-179 -27.5h-691v700zM235 567v-435h496q121 0 188 54t67 163t-67 163.5t-188 54.5h-496z" />
    <glyph glyph-name="e" unicode="e" horiz-adv-x="1070" 
d="M235 565v-150h748v-130h-748v-150h810v-135h-975v700h975v-135h-810z" />
    <glyph glyph-name="f" unicode="f" horiz-adv-x="999" 
d="M235 565v-180h692v-130h-692v-255h-165v700h919v-135h-754z" />
    <glyph glyph-name="g" unicode="g" horiz-adv-x="1173" 
d="M449 577q-123 0 -188.5 -61t-65.5 -170q0 -110 65.5 -167t188.5 -57h285q40 0 72 4.5t58 18.5t47 41.5t38 73.5h-406v114h575v-374h-117l-30 103q-8 -21 -24 -41.5t-41.5 -36.5t-61.5 -25.5t-85 -9.5h-341q-106 0 -179.5 28.5t-120 77.5t-67.5 113t-21 136t21 138
t67.5 116.5t120 80.5t179.5 30h316q80 0 142.5 -18t108 -49.5t75 -74t44.5 -91.5h-179q-27 50 -85.5 75t-135.5 25h-255z" />
    <glyph glyph-name="h" unicode="h" horiz-adv-x="1224" 
d="M989 286h-754v-286h-165v700h165v-279h754v279h165v-700h-165v286z" />
    <glyph glyph-name="i" unicode="i" 
d="M70 700h165v-700h-165v700z" />
    <glyph glyph-name="j" unicode="j" horiz-adv-x="1016" 
d="M409 -10q-97 0 -166.5 22.5t-116 63t-71 96.5t-30.5 123h166q15 -90 76.5 -131.5t171.5 -41.5h102q121 0 188 53t67 169v356h165v-357q0 -75 -21.5 -139.5t-68.5 -112t-121 -74.5t-179 -27h-162z" />
    <glyph glyph-name="k" unicode="k" horiz-adv-x="947" 
d="M934 700l-541 -318l589 -382h-276l-476 311v-311h-160v700h160v-255l433 255h271z" />
    <glyph glyph-name="l" unicode="l" horiz-adv-x="1015" 
d="M1005 135v-135h-935v700h165v-565h770z" />
    <glyph glyph-name="m" unicode="m" horiz-adv-x="1352" 
d="M70 0v700h231l376 -517l369 517h236v-700h-165v529l-377 -529h-121l-384 528v-528h-165z" />
    <glyph glyph-name="n" unicode="n" horiz-adv-x="1155" 
d="M1085 0h-185l-665 526v-526h-165v701h201l649 -514v513h165v-700z" />
    <glyph glyph-name="o" unicode="o" horiz-adv-x="1195" 
d="M418 -10q-106 0 -179.5 29t-120 78.5t-67.5 114t-21 136.5t21 137.5t67.5 115.5t120 79.5t179.5 29.5h357q105 0 179 -30t121 -80t68.5 -115.5t21.5 -136.5t-21.5 -136t-68.5 -114.5t-121 -78.5t-179 -29h-357zM449 577q-123 0 -188.5 -59.5t-65.5 -168.5
q0 -110 65.5 -168.5t188.5 -58.5h296q121 0 188 59t67 168t-67 168.5t-188 59.5h-296z" />
    <glyph glyph-name="p" unicode="p" horiz-adv-x="1082" 
d="M70 701h668q86 0 147.5 -16.5t100.5 -49.5t57.5 -82.5t18.5 -114.5q0 -57 -18 -104.5t-57 -81.5t-100 -53t-147 -19h-505v-180h-165v701zM235 315h509q27 0 54 4.5t49 17.5t36 37.5t14 64.5q0 41 -14 65.5t-36 38t-49 18t-54 4.5h-509v-250z" />
    <glyph glyph-name="q" unicode="q" horiz-adv-x="1197" 
d="M418 -10q-106 0 -179.5 29t-120 78.5t-67.5 114t-21 136.5t21 137.5t67.5 115.5t120 79.5t179.5 29.5h357q105 0 179 -30t121 -80t68.5 -115.5t21.5 -136.5q0 -47 -9 -91t-28 -83t-48.5 -72t-70.5 -57l160 -170h-149l-122 129q-56 -14 -123 -14h-357zM795 273l107 -115
q48 29 73 77t25 114q0 109 -67 168.5t-188 59.5h-296q-123 0 -188.5 -59.5t-65.5 -168.5q0 -110 65.5 -168.5t188.5 -58.5h254q40 0 79 6l-136 145h149z" />
    <glyph glyph-name="r" unicode="r" horiz-adv-x="1104" 
d="M943 336q35 -14 58.5 -31.5t38 -39t21 -45.5t7.5 -49q1 -31 2.5 -55.5t5 -44.5t10 -37.5t18.5 -33.5h-164q-18 21 -23 48.5t-7 59.5q-2 29 -10 55.5t-24.5 47t-42 32.5t-61.5 12h-536v-255h-166v700h692q66 0 120 -7.5t93 -29t60 -59.5t21 -99q0 -24 -6 -49.5t-19 -48.5
t-35 -41.5t-53 -29.5zM236 380h477q31 0 63.5 2t58.5 10.5t42.5 27t16.5 51.5q0 35 -17 54t-43.5 28t-59 10.5t-63.5 1.5h-475v-185z" />
    <glyph glyph-name="s" unicode="s" horiz-adv-x="1082" 
d="M701 133q51 0 86.5 3t58.5 11.5t33.5 24t10.5 39.5t-10.5 38.5t-33 22.5t-58.5 10.5t-87 2.5h-355q-83 0 -140.5 14t-93.5 40.5t-52.5 63.5t-16.5 84q0 51 16.5 90.5t52.5 66.5t93.5 41.5t140.5 14.5h407q79 0 130.5 -16t83.5 -45.5t48.5 -70t25.5 -89.5h-169
q-9 23 -20 39.5t-27.5 27t-41 15.5t-60.5 5h-323q-51 0 -87 -3t-59 -11t-33.5 -23.5t-10.5 -39.5t10.5 -38.5t33.5 -22.5t58.5 -10.5t86.5 -2.5h356q82 0 139.5 -14.5t93.5 -40.5t52.5 -64t16.5 -84q0 -50 -16.5 -89.5t-52.5 -66.5t-94 -41.5t-140 -14.5h-446
q-79 0 -130.5 16t-83.5 45t-48.5 69.5t-25.5 90.5h169q9 -23 20 -39.5t27.5 -27.5t41 -16t60.5 -5h363z" />
    <glyph glyph-name="t" unicode="t" horiz-adv-x="1023" 
d="M594 565v-565h-165v565h-419v135h1003v-135h-419z" />
    <glyph glyph-name="u" unicode="u" horiz-adv-x="1191" 
d="M443 -10q-106 0 -179.5 27t-120 74t-67.5 112t-21 140v357h165v-356q0 -117 66 -169.5t188 -52.5h242q121 0 188 53t67 169v356h165v-357q0 -75 -21.5 -139.5t-68.5 -112t-121 -74.5t-179 -27h-303z" />
    <glyph glyph-name="v" unicode="v" horiz-adv-x="995" 
d="M604 0h-213l-431 700h184l355 -570l346 570h190z" />
    <glyph glyph-name="w" unicode="w" horiz-adv-x="1387" 
d="M608 700h170l197 -535l232 535h180l-309 -700h-197l-188 493l-188 -493h-196l-309 700h180l232 -535z" />
    <glyph glyph-name="x" unicode="x" horiz-adv-x="965" 
d="M482 448l290 252h228l-403 -351l403 -349h-230l-288 249l-287 -249h-230l403 349l-403 351h228z" />
    <glyph glyph-name="y" unicode="y" horiz-adv-x="979" 
d="M407 230l-447 470h217l313 -329l313 329h216l-447 -469v-231h-165v230z" />
    <glyph glyph-name="z" unicode="z" horiz-adv-x="1043" 
d="M317 135h706v-135h-1003v118l675 447h-652v135h958v-113z" />
    <glyph glyph-name="braceleft" unicode="{" horiz-adv-x="376" 
d="M20 347q19 0 34 3.5t25.5 13.5t15.5 28.5t5 48.5v218q0 68 39.5 104.5t103.5 36.5h113v-134h-33q-32 0 -45 -16.5t-13 -45.5v-191q0 -29 -4 -49t-14 -33t-27 -20.5t-43 -10.5q26 -3 43 -9.5t27 -19.5t14 -33t4 -49v-192q0 -29 13 -45.5t45 -16.5h33v-135h-113
q-64 0 -103.5 36.5t-39.5 104.5v219q0 30 -5 48.5t-15.5 28.5t-25.5 13.5t-34 3.5v93z" />
    <glyph glyph-name="bar" unicode="|" 
d="M70 800h165v-1000h-165v1000z" />
    <glyph glyph-name="braceright" unicode="}" horiz-adv-x="376" 
d="M356 254q-23 0 -38 -4t-24.5 -16t-13.5 -34.5t-4 -59.5v-179q0 -47 -12.5 -77.5t-37 -49.5t-60 -26.5t-80.5 -7.5h-66v135h33q38 0 48 22.5t10 59.5v172q0 29 4 49t14 33t27 19.5t43 9.5q-26 3 -43 10.5t-27 20.5t-14 33t-4 49v129q0 40 -3 78q-3 22 -16 34t-39 12h-33
v134h66q40 0 75 -6t60.5 -22t40 -43t14.5 -70v-193q0 -39 4 -62t13 -36t24.5 -17t38.5 -4v-93z" />
    <glyph glyph-name="asciitilde" unicode="~" horiz-adv-x="1104" 
d="M943 336q35 -14 58.5 -31.5t38 -39t21 -45.5t7.5 -49q1 -31 2.5 -55.5t5 -44.5t10 -37.5t18.5 -33.5h-164q-18 21 -23 48.5t-7 59.5q-2 29 -10 55.5t-24.5 47t-42 32.5t-61.5 12h-536v-255h-166v700h692q66 0 120 -7.5t93 -29t60 -59.5t21 -99q0 -24 -6 -49.5t-19 -48.5
t-35 -41.5t-53 -29.5z" />
    <glyph glyph-name="uni00A0" unicode="&#xa0;" horiz-adv-x="300" 
 />
    <glyph glyph-name="exclamdown" unicode="&#xa1;" horiz-adv-x="311" 
d="M241 -100h-171l25 500h121zM238 465h-165v135h165v-135z" />
    <glyph glyph-name="cent" unicode="&#xa2;" horiz-adv-x="1139" 
d="M599 577v-455h105q86 0 145 29t87 89h173q-13 -53 -41.5 -98.5t-74.5 -79t-110.5 -53t-148.5 -19.5h-135v-90h-50v90h-131q-106 0 -179.5 29t-120 78t-67.5 113.5t-21 136.5t21 137.5t67.5 115.5t120 80t179.5 30h131v90h50v-90h135q82 0 145 -19t108.5 -51.5t74.5 -76.5
t44 -95h-175q-30 55 -88 82t-139 27h-105zM195 348q0 -109 65.5 -167.5t188.5 -58.5h100v455h-100q-123 0 -188.5 -59.5t-65.5 -169.5z" />
    <glyph glyph-name="sterling" unicode="&#xa3;" horiz-adv-x="1040" 
d="M33 403h61q-9 17 -19 44.5t-10 65.5q0 53 37 91t95.5 62t131.5 35.5t146 13.5h38.5t36.5 -1q96 -3 172 -21.5t131.5 -49t89.5 -71t46 -86.5h-189q-10 24 -37 42.5t-67.5 31.5t-91.5 19.5t-109 6.5q-54 0 -98.5 -6t-76 -18.5t-49 -31.5t-17.5 -45q0 -24 4.5 -42t12.5 -40
h411v-100h-402v-20.5t-2 -21.5q-5 -36 -21.5 -73.5t-49.5 -67.5q43 17 82.5 23t88.5 6q57 0 106.5 -5t97.5 -11.5t95.5 -11.5t100.5 -5q23 0 49.5 5.5t52 14.5t48.5 20.5t40 24.5l52 -118q-51 -35 -106.5 -56.5t-127.5 -21.5q-77 0 -135 7t-106 15t-92 15t-93 7
q-50 0 -87.5 -2t-66 -7.5t-50.5 -14t-40 -20.5l-78 124q34 23 57.5 64.5t23.5 93.5v18.5t-2 17.5h-84v100z" />
    <glyph glyph-name="currency" unicode="&#xa4;" horiz-adv-x="1200" 
d="M510 577q-88 0 -148.5 -31.5t-86.5 -94.5h576l-20 -68h-574q-1 -8 -1 -16.5v-17.5v-16t1 -16h567l-20 -67h-531q25 -64 86 -96t151 -32h255q86 0 145 29t87 89h173q-13 -53 -41.5 -98.5t-74.5 -79t-110.5 -53t-148.5 -19.5h-316q-87 0 -152.5 20t-111.5 55t-74 82.5
t-40 102.5h-116l20 67h86q-1 8 -1 16v16v16.5t1 17.5h-81l20 68h72q13 54 41 101.5t74 82.5t111 55t151 20h316q82 0 145 -19t108.5 -51.5t74.5 -76.5t44 -95h-175q-30 55 -88 82t-139 27h-255z" />
    <glyph glyph-name="yen" unicode="&#xa5;" horiz-adv-x="979" 
d="M39 178h368v52l-41 44h-327v104h227l-306 322h217l313 -329l313 329h216l-307 -322h229v-104h-328l-41 -43v-53h369v-104h-369v-74h-165v74h-368v104z" />
    <glyph glyph-name="brokenbar" unicode="&#xa6;" 
d="M70 200h165v-400h-165v400zM235 400h-165v400h165v-400z" />
    <glyph glyph-name="section" unicode="&#xa7;" horiz-adv-x="1195" 
d="M418 -10q-106 0 -179.5 29t-120 78.5t-67.5 114t-21 136.5t21 137.5t67.5 115.5t120 79.5t179.5 29.5h357q105 0 179 -30t121 -80t68.5 -115.5t21.5 -136.5t-21.5 -136t-68.5 -114.5t-121 -78.5t-179 -29h-357z" />
    <glyph glyph-name="dieresis" unicode="&#xa8;" horiz-adv-x="532" 
d="M50 857h167v-107h-167v107zM315 857h167v-107h-167v107z" />
    <glyph glyph-name="copyright" unicode="&#xa9;" horiz-adv-x="1195" 
d="M30 348q0 72 20.5 137.5t66.5 115.5t119.5 79.5t180.5 29.5h358q105 0 179 -30t121 -80t68.5 -115.5t21.5 -136.5t-21.5 -136t-68.5 -114.5t-121 -78.5t-179 -29h-358q-107 0 -180.5 29t-119.5 78t-66.5 114t-20.5 137zM681 494q52 0 89 -17.5t56 -52.5h113
q-9 32 -28 60.5t-48.5 49.5t-70 33.5t-92.5 12.5h-204q-68 0 -115.5 -19.5t-77.5 -51.5t-43.5 -74.5t-13.5 -88.5t13.5 -87.5t43.5 -73t77.5 -50t115.5 -18.5h204q54 0 95.5 12.5t71 34t47.5 50.5t27 63h-111q-18 -38 -56 -57t-93 -19h-165q-78 0 -120.5 37.5t-42.5 108.5
q0 70 42.5 108.5t120.5 38.5h165z" />
    <glyph glyph-name="ordfeminine" unicode="&#xaa;" horiz-adv-x="1055" 
d="M1085 0h-190l-84 130h-571l-86 -130h-184l451 700h213z" />
    <glyph glyph-name="guillemotleft" unicode="&#xab;" horiz-adv-x="613" 
d="M327 414l236 161v-133l-125 -92l125 -92v-133l-236 161v128zM50 414l236 161v-133l-125 -92l125 -92v-133l-236 161v128z" />
    <glyph glyph-name="logicalnot" unicode="&#xac;" horiz-adv-x="999" 
d="M927 90h-165v280h-692v130h857v-410z" />
    <glyph glyph-name="registered" unicode="&#xae;" horiz-adv-x="1195" 
d="M30 348q0 72 20.5 137.5t66.5 115.5t119.5 79.5t180.5 29.5h358q105 0 179 -30t121 -80t68.5 -115.5t21.5 -136.5t-21.5 -136t-68.5 -114.5t-121 -78.5t-179 -29h-358q-107 0 -180.5 29t-119.5 78t-66.5 114t-20.5 137zM853 340q41 14 58 46.5t17 64.5q0 45 -18 71
t-48.5 38.5t-70.5 16t-84 3.5h-430v-462h110v168h353q41 0 64.5 -22.5t24.5 -57.5q1 -26 4 -50t18 -38h108q-14 19 -18 41t-5 60q0 18 -4 35.5t-13 33t-25 29t-41 23.5zM387 491h336q15 0 32 -1.5t31.5 -7.5t24 -18.5t9.5 -34.5t-10.5 -34t-28 -18t-38.5 -7.5t-42 -1.5h-314
v123z" />
    <glyph glyph-name="macron" unicode="&#xaf;" horiz-adv-x="670" 
d="M100 851h470v-102h-470v102z" />
    <glyph glyph-name="degree" unicode="&#xb0;" horiz-adv-x="1181" 
d="M70 700h691q105 0 179 -28.5t121 -76.5t68.5 -112t21.5 -135t-21.5 -134.5t-68.5 -111t-121 -75t-179 -27.5h-691v700z" />
    <glyph glyph-name="plusminus" unicode="&#xb1;" horiz-adv-x="681" 
d="M59 186h563v-134h-563v134zM273 535v135h134v-135h215v-134h-215v-134h-134v134h-214v134h214z" />
    <glyph glyph-name="acute" unicode="&#xb4;" horiz-adv-x="433" 
d="M283 750h-161l91 144h223z" />
    <glyph glyph-name="uni00B5" unicode="&#xb5;" horiz-adv-x="1814" 
d="M1769 530q-3 -12 -7.5 -23.5t-11 -21.5t-16.5 -16t-23 -6q-20 0 -37 14.5t-23 46.5q-21 -40 -35 -51t-30 -11q-19 0 -32.5 13.5t-22.5 33.5t-13 42t-4 39q0 22 14 50.5t34 54t43.5 43t42.5 17.5q22 0 32 -29l7 26q8 -4 15.5 -7t17.5 -3q14 0 23.5 7t18.5 13
q-3 -18 -11 -57t-16 -81.5t-14.5 -79.5t-6.5 -50q0 -17 8 -17q12 0 20.5 16.5t16.5 36.5h10zM1496 572l-7 -24.5t-14.5 -36t-23 -33t-32.5 -14.5q-20 0 -38.5 14.5t-25.5 46.5q-11 -20 -19.5 -32.5t-16 -19.5t-14.5 -9t-15 -2q-19 0 -32.5 13.5t-22.5 33.5t-13 42t-4 39
q0 22 14 50.5t34 54t43.5 43t42.5 17.5t30 -24q5 25 10 49t9 43t6.5 31t3.5 15q8 -4 16 -7t17 -3q14 0 23.5 7t19.5 13q-2 -12 -8 -42.5t-13.5 -70t-16 -84t-15.5 -83t-11.5 -67.5t-4.5 -38q0 -7 2 -12t7 -5q9 0 18.5 10.5t17 25.5t13.5 31.5t9 27.5h11zM1494 485
q-7 -44 -36 -65t-60 -26q-1 -26 -27 -47t-62 -21q-13 0 -27 3t-26 10t-19.5 19t-7.5 30q0 19 16 37t37 19v-4q-16 -3 -29.5 -15.5t-13.5 -29.5q0 -16 6 -26t16.5 -15.5t23 -7.5t26.5 -2q13 0 26.5 2t25 7.5t19.5 15.5t9 25q-3 -1 -7 -1q-23 0 -39 9t-16 25q0 8 8 14t15 6
q16 0 28.5 -12.5t16.5 -28.5q31 4 59 26t36 53h2zM1205 530q-3 -12 -7.5 -23.5t-11 -21.5t-16.5 -16t-23 -6q-20 0 -37 14.5t-23 46.5q-21 -40 -35 -51t-30 -11q-19 0 -32.5 13.5t-22.5 33.5t-13 42t-4 39q0 22 14 50.5t34 54t43.5 43t42.5 17.5q22 0 32 -29l7 26
q8 -4 15.5 -7t17.5 -3q14 0 23.5 7t18.5 13q-3 -18 -11 -57t-16 -81.5t-14.5 -79.5t-6.5 -50q0 -17 8 -17q12 0 20.5 16.5t16.5 36.5h10zM1719 138l40 -32l-143 -27l9 -51l-88 71q-15 -35 -35.5 -66.5t-46.5 -57.5q25 -9 53 -9q38 0 59 13.5t33 38.5h4q-3 -15 -12.5 -27
t-22 -20.5t-27.5 -12.5t-29 -4q-36 0 -67 12q-34 -34 -71.5 -54.5t-71.5 -20.5q-32 0 -53 27.5t-21 93.5q-2 -1 -7 -1q-18 0 -35.5 8.5t-31 25.5t-22 43t-8.5 61q0 20 14 46.5t36.5 50.5t51.5 41t59 17q20 0 35 -15.5t15 -51.5q0 -23 -12.5 -42.5t-31 -34t-41 -23.5
t-43.5 -11q-6 -34 -9 -58t-3 -25q0 -11 7.5 -16.5t18.5 -5.5q4 0 7 1v1q0 17 6 38t17.5 40t27 31.5t34.5 12.5q9 0 13 -8t4 -17q0 -16 -8.5 -34t-22 -33.5t-30 -26.5t-33.5 -13q0 -59 20.5 -84.5t51.5 -25.5q28 0 61 18.5t64 49.5q-35 17 -57.5 47.5t-22.5 74.5q0 15 4.5 30
t13 28t21 23t28.5 13v-4q-31 -9 -45.5 -36.5t-14.5 -57.5q0 -37 23 -65.5t58 -43.5q24 26 44.5 59t31.5 70l-114 35l50 20l-67 136l54 -16l-12 80l52 -59l31 45l31 -98l42 135l21 -35l79 46v-89h49l-104 -103l103 29l-17 -53l78 -8zM1189 439q-3 -17 -14 -32t-27 -26.5
t-36 -18.5t-41 -7h-11q-8 -8 -21 -12t-27 -4q-29 0 -57 13t-42 41l1 1q17 -20 40 -35t55 -15q12 0 23.5 3t19.5 10q-15 3 -37 9.5t-42.5 19t-34.5 31t-14 44.5q0 8 1.5 17.5t8.5 16.5l4 -4q-5 -15 -5 -27q0 -24 13.5 -40.5t33 -28t42 -17.5t41.5 -7q3 7 3 17q0 23 -18.5 39
t-43.5 16q-10 0 -20.5 -2.5t-19.5 -7.5l-4 1q8 8 19.5 11.5t22.5 3.5q13 0 25.5 -4.5t22.5 -12t16.5 -19t6.5 -24.5q0 -11 -3 -18h4q16 0 33 4t32 13t25.5 22.5t14.5 33.5zM1101 42q0 -20 -6.5 -40.5t-18.5 -37.5t-29.5 -28t-39.5 -11q-17 0 -28.5 9t-11.5 26q0 11 8.5 19.5
t19.5 8.5q6 0 9 -1v-4q-9 0 -19 -6t-10 -17q0 -13 9 -20t20 -7q19 0 35.5 11.5t28.5 28.5t18.5 36.5t6.5 36.5q0 13 -4 24t-10 21q-14 -31 -36 -55.5t-52 -24.5q-23 0 -31 16.5t-8 36.5q0 19 6 33t15 23.5t18.5 14.5t16.5 7q3 18 5.5 39t4.5 40.5t3.5 35t1.5 24.5q0 2 -3 6
t-9 4q-5 0 -12 -4.5t-14 -14t-12 -24.5t-5 -36q0 -10 -4.5 -38.5t-11 -65t-14.5 -76.5t-15 -74.5t-12.5 -58t-6.5 -27.5q-8 4 -15.5 7t-17.5 3q-14 0 -23.5 -7t-18.5 -13q2 12 8 44.5t14.5 75t17 90.5t16 89.5t12.5 72.5t5 40q0 22 -7.5 34.5t-18.5 22t-24 19.5t-24 27.5
t-18.5 45.5t-7.5 75q0 27 7 54.5t16 56t16 57t7 55.5q0 22 -9 22q-11 0 -29 -21t-32 -56q-2 -14 -7.5 -46t-11.5 -65.5t-12 -61t-7 -32.5q-8 4 -15.5 7.5t-17.5 3.5q-14 0 -22 -3t-17 -9q3 18 10 56.5t14 80t12.5 77.5t5.5 50q0 7 -2 12t-7 5q-12 0 -20.5 -16.5t-16.5 -36.5
h-10q4 12 8.5 23.5t12 21t18 15.5t25.5 6q28 0 41.5 -17t17.5 -40q6 8 13 18t15 19t18 15t23 6q16 0 27.5 -10t19.5 -26.5t12 -37t4 -41.5q0 -36 -8 -67t-17 -59t-17 -55t-8 -55q0 -27 7 -42t17.5 -23.5t23 -14t24 -13t20.5 -20.5t13 -36q18 31 31 40t28 9q19 0 33 -14
t23.5 -34.5t14 -42t4.5 -36.5q0 -17 -4 -37t-12 -40q8 -12 13.5 -26.5t5.5 -31.5zM635 530q-3 -12 -7 -23.5t-11 -21.5t-17 -16t-23 -6q-20 0 -37 14.5t-23 46.5q-20 -40 -34.5 -51t-30.5 -11q-19 0 -32.5 13.5t-22 33.5t-12.5 42t-4 39q0 22 14 50.5t34 54t43.5 43
t42.5 17.5q21 0 31 -29l7 26q8 -4 16 -7t17 -3q14 0 23.5 7t19.5 13q-3 -18 -11 -57t-16.5 -81.5t-15 -79.5t-6.5 -50q0 -17 9 -17q12 0 20.5 16.5t16.5 36.5h9zM786 317v3q-5 29 -20.5 39t-26.5 10q-9 0 -18.5 -4.5t-21 -10t-26 -10t-34.5 -4.5q-18 0 -26 8t-8 17
q0 18 16 25t28 7l58 -6q11 0 21.5 4.5t10.5 18.5q0 15 -11.5 22.5t-25.5 7.5q-10 0 -19.5 -4.5t-9.5 -13.5q0 -13 16 -13q12 0 21 6l2 -7q-5 -2 -10.5 -4t-11.5 -2q-10 0 -17.5 5t-7.5 14q0 12 13.5 18.5t24.5 6.5q17 0 30 -9t13 -26t-13.5 -23.5t-24.5 -6.5l-59 7
q-11 0 -24.5 -6t-13.5 -21q0 -10 9 -14t17 -4q12 0 25 5t25.5 11.5t24 11.5t20.5 5q26 0 43 -18t17 -46zM359 591q0 -32 -16.5 -61t-44.5 -49q16 -16 16 -43q0 -26 -16 -43t-39 -27q1 -2 1 -5q0 -20 -17 -32.5t-34 -12.5h-5l3 5q5 0 12.5 2.5t14 7t11.5 11t5 15.5q0 4 -1 6
q-12 -5 -24.5 -6.5t-24.5 -1.5q-9 0 -24 2t-28.5 7t-23.5 13t-10 21q0 9 5.5 14.5t14 9t17.5 5t15 1.5q10 0 23.5 -3.5t26 -10t23 -15.5t16.5 -19q19 8 32.5 22.5t13.5 35.5q0 22 -11 36q-16 -10 -33.5 -15.5t-37.5 -5.5q-29 0 -54 10.5t-43.5 31t-29 49.5t-10.5 65
q0 20 13 54q-17 12 -25 31t-8 42q0 22 7.5 45.5t21 42t32.5 30.5t41 12q6 0 16 -2v-6q-4 1 -12 1q-21 0 -38.5 -11t-31 -28.5t-21 -39t-7.5 -42.5q0 -20 7 -36.5t23 -27.5q16 36 42 76.5t55.5 74.5t59 56.5t52.5 22.5q13 0 21 -6.5t12 -17t5.5 -22.5t1.5 -22
q0 -28 -13 -55.5t-34.5 -50.5t-48 -41.5t-53.5 -28.5q0 -1 -0.5 -1.5t-0.5 -2.5q-5 -17 -9.5 -37t-9 -39.5t-7 -37.5t-2.5 -33q0 -16 6.5 -25.5t15 -14t15.5 -6t9 -1.5q33 0 63 22q-10 7 -21.5 9.5t-22.5 2.5q-9 0 -21 -2.5t-14 -4.5v4q5 5 16 8t17 3q30 0 52 -14
q24 20 38.5 51t14.5 63q0 19 -6.5 38t-28.5 19q-18 0 -32.5 -9t-24.5 -22.5t-15.5 -30.5t-5.5 -33q0 -9 4.5 -23t18.5 -14q10 0 17.5 7t12.5 17t7.5 21t2.5 20q0 3 -1 7t-2 9h8q2 -5 2 -9.5v-6.5q0 -11 -3.5 -23.5t-10 -23.5t-15 -18.5t-18.5 -7.5q-19 0 -24.5 16.5
t-5.5 31.5q0 16 6 33.5t16.5 32.5t25.5 24.5t34 9.5q27 0 42.5 -24t15.5 -56zM820 -25q0 -20 -9 -35t-21 -25h-9q14 11 23 24.5t9 31.5q0 14 -6 30.5t-31 22.5q2 -12 4 -27.5t2 -39.5q0 -26 -12.5 -45t-31.5 -31t-42.5 -17.5t-45.5 -5.5q-15 0 -30 4.5t-27.5 13.5t-20 21.5
t-7.5 28.5q0 17 7 27.5t16.5 16.5t19.5 8t16 2q11 0 16 -1q8 15 22 28.5t35 22.5v3q-2 8 -2.5 16t-0.5 14q-11 -22 -28 -37t-42 -15t-41 26t-16 64q0 19 7 40.5t15.5 43.5t15.5 41.5t7 33.5q0 17 -3 23t-8 6q-8 0 -15 -5t-13 -11.5t-9.5 -12.5t-4.5 -9q0 -25 -12.5 -41.5
t-31.5 -25.5q0 -92 -37 -136t-109 -44q-19 0 -37.5 4t-32.5 14t-23 25.5t-9 38.5q0 26 15 48t40 22q17 0 24.5 -12t7.5 -25q0 -25 -13.5 -46.5t-38.5 -21.5q-5 0 -10.5 2t-10.5 4q4 -15 17 -25.5t26 -10.5q21 0 36.5 15t27 38.5t19.5 52.5t14 57q-31 13 -45 40
q-12 -5 -18 -5q-71 0 -71 75q0 27 10.5 53.5t29 47.5t44 33.5t54.5 12.5q30 0 49 -5t32.5 -11t23.5 -11t22 -5q5 0 10 0.5t10 1.5v-5q-34 -8 -65.5 -30t-51.5 -50q-3 24 -20 38.5t-43 14.5q-19 0 -36 -8.5t-30 -22.5t-21 -32t-8 -37q0 -53 58 -53q10 0 18 4q-7 14 -7 35
q0 28 14.5 44.5t26.5 16.5q11 0 16.5 -7.5t5.5 -17.5q0 -21 -14.5 -41.5t-31.5 -31.5q6 -13 16.5 -21.5t23.5 -13.5q8 34 20.5 68t38.5 65q4 5 14 14.5t22 19t25.5 17t26.5 9.5v-7q-18 -9 -29.5 -24.5t-18 -34t-9 -39.5t-2.5 -40q0 -22 3 -47q17 8 28.5 23t11.5 35
q0 14 -4 27t-11 20v2q8 -5 12.5 -16t6.5 -22q6 12 21.5 26.5t40.5 14.5q15 0 26.5 -8t19 -21t11 -30.5t3.5 -35.5q0 -12 -7 -31.5t-15.5 -41t-15.5 -44t-7 -40.5q0 -21 12 -21q13 0 23.5 14t19.5 37t16 52.5t13 59.5t11.5 58t10.5 49q8 -4 16 -7t17 -3q14 0 23.5 7t19.5 13
q-5 -26 -13 -60t-15.5 -69.5t-12.5 -69t-3 -57.5l1 -17q20 -5 33 -21t13 -42zM517 -4q0 -38 -25.5 -63.5t-60.5 -31.5q-10 -18 -31.5 -26.5t-40.5 -8.5q-14 0 -31 3.5t-31.5 11t-24.5 19t-10 28.5q0 14 8.5 25t24.5 11h6.5t8.5 -2q-43 38 -84 55t-98 17q-23 0 -48 -2.5
t-60 -7.5q31 11 52.5 17t40.5 13q22 8 43 22.5t37 32.5t25.5 37.5t9.5 37.5q0 45 -29 67.5t-71 22.5q-13 0 -29 -1.5t-29.5 -7t-22.5 -15.5t-9 -27t17.5 -26t36.5 -9t35 11t31 24v-9q-10 -14 -28 -27t-38 -13q-25 0 -44.5 13t-19.5 36q0 19 9.5 31t23.5 18.5t30.5 9
t31.5 2.5q56 0 86 -28.5t30 -76.5q0 -21 -11.5 -41t-26.5 -36.5t-30 -29t-22 -17.5l18 -4q24 -5 45 -12t40 -18.5t36.5 -27.5t35.5 -39h-2v-2q-6 2 -11 3t-10 1q-18 0 -25 -8.5t-7 -19.5q0 -15 10 -25.5t24 -17t29.5 -9.5t26.5 -3q17 0 33.5 7.5t25.5 18.5h-4
q-8 0 -20.5 2.5t-24 8t-19.5 14.5t-8 22q0 15 9.5 21.5t23.5 6.5q23 0 42.5 -15.5t19.5 -36.5q0 -4 -2 -10q13 3 27 9.5t25 17t18 24.5t7 33q0 11 -1 18.5t-5 19.5h4q2 -4 4.5 -15.5t2.5 -22.5zM1671 689q0 33 -5 44.5t-13 11.5q-9 0 -15 -7.5t-9.5 -18t-5.5 -21.5t-3 -18
q-2 -11 -7 -37.5t-10.5 -57.5t-9.5 -59t-4 -40q0 -3 1 -7t7 -4q14 0 27.5 21t24.5 69q2 23 8.5 57.5t13.5 66.5zM1375 699q-1 27 -6.5 36.5t-11.5 9.5q-9 0 -15 -7.5t-9.5 -18t-5.5 -21.5t-3 -18q-2 -11 -7 -37.5t-10.5 -57.5t-9.5 -59t-4 -40q0 -3 1 -7t7 -4q13 0 22 11
t17 36.5t16 68.5t19 108zM1390 406q-3 14 -12 23.5t-23 9.5q-6 0 -10.5 -2.5t-4.5 -10.5q0 -12 14.5 -16t31.5 -4h4zM1107 689q0 33 -5 44.5t-13 11.5q-9 0 -15 -7.5t-9.5 -18t-5.5 -21.5t-3 -18q-2 -11 -7 -37.5t-10.5 -57.5t-9.5 -59t-4 -40q0 -3 1 -7t7 -4q14 0 27.5 21
t24.5 69q2 23 8.5 57.5t13.5 66.5zM1291 272q0 22 -10 22q-12 0 -23 -14.5t-20 -37.5t-16 -51t-12 -55q19 3 34.5 19t25.5 37t15.5 43t5.5 37zM1320 123q0 5 -1.5 9.5t-7.5 4.5q-15 0 -28.5 -11.5t-24 -28.5t-16.5 -36.5t-6 -35.5v-2q12 0 26.5 10t27.5 25t21.5 32.5
t8.5 32.5zM538 689q0 33 -5.5 44.5t-12.5 11.5t-12.5 -8t-10 -18.5t-7 -21.5t-3.5 -17q-2 -11 -7.5 -37.5t-10.5 -57.5t-9 -59t-4 -40q0 -3 1 -7t7 -4q13 0 26.5 21t24.5 69q2 23 8.5 57.5t14.5 66.5zM1007 131q-11 -1 -20 -8t-15.5 -17.5t-10 -23t-3.5 -24.5q0 -9 5 -21.5
t19 -12.5q6 0 10.5 12t7 29t4 35.5t3.5 30.5zM326 868q0 10 -3 17.5t-14 7.5t-21 -12t-27 -48q0 -2 -7 -19.5t-16.5 -42.5t-19 -51.5t-15.5 -45.5q25 11 47.5 31.5t39 46.5t26.5 56t10 60zM422 299q0 8 -3 14t-12 6q-10 0 -16 -6t-9.5 -14.5t-5 -18t-1.5 -16.5q0 -19 5 -29
q16 11 29 29t13 35zM673 -72q0 11 -9 18.5t-20 12.5q-1 -3 -1 -6.5v-6.5q0 -10 3.5 -20t11.5 -10q9 0 12 4t3 8zM724 -72q0 21 -10 46.5t-15 44.5q-17 -5 -30 -15.5t-21 -27.5q20 -7 28.5 -21.5t8.5 -23.5q0 -7 -5.5 -16t-19.5 -9q-12 0 -20 12.5t-8 25.5v9t2 9q-5 1 -8.5 1
h-7.5q-19 0 -30.5 -10.5t-11.5 -29.5q0 -14 6.5 -24.5t16.5 -18t23 -11t26 -3.5q12 0 25 4t24.5 12t19 19.5t7.5 26.5zM245 378q-11 20 -35 32.5t-44 12.5q-5 0 -11.5 -1t-13 -3t-11 -7t-4.5 -12q0 -10 7 -16t17.5 -9.5t22.5 -4.5t21 -1q25 0 51 9zM428 -76q0 18 -16.5 30
t-32.5 12q-11 0 -19 -6t-8 -19q0 -9 6 -15.5t15 -10.5t18.5 -5.5t17.5 -1.5q10 0 14.5 2.5t4.5 13.5z" />
    <glyph glyph-name="uni00B5" unicode="&#x3bc;" horiz-adv-x="1814" 
d="M1769 530q-3 -12 -7.5 -23.5t-11 -21.5t-16.5 -16t-23 -6q-20 0 -37 14.5t-23 46.5q-21 -40 -35 -51t-30 -11q-19 0 -32.5 13.5t-22.5 33.5t-13 42t-4 39q0 22 14 50.5t34 54t43.5 43t42.5 17.5q22 0 32 -29l7 26q8 -4 15.5 -7t17.5 -3q14 0 23.5 7t18.5 13
q-3 -18 -11 -57t-16 -81.5t-14.5 -79.5t-6.5 -50q0 -17 8 -17q12 0 20.5 16.5t16.5 36.5h10zM1496 572l-7 -24.5t-14.5 -36t-23 -33t-32.5 -14.5q-20 0 -38.5 14.5t-25.5 46.5q-11 -20 -19.5 -32.5t-16 -19.5t-14.5 -9t-15 -2q-19 0 -32.5 13.5t-22.5 33.5t-13 42t-4 39
q0 22 14 50.5t34 54t43.5 43t42.5 17.5t30 -24q5 25 10 49t9 43t6.5 31t3.5 15q8 -4 16 -7t17 -3q14 0 23.5 7t19.5 13q-2 -12 -8 -42.5t-13.5 -70t-16 -84t-15.5 -83t-11.5 -67.5t-4.5 -38q0 -7 2 -12t7 -5q9 0 18.5 10.5t17 25.5t13.5 31.5t9 27.5h11zM1494 485
q-7 -44 -36 -65t-60 -26q-1 -26 -27 -47t-62 -21q-13 0 -27 3t-26 10t-19.5 19t-7.5 30q0 19 16 37t37 19v-4q-16 -3 -29.5 -15.5t-13.5 -29.5q0 -16 6 -26t16.5 -15.5t23 -7.5t26.5 -2q13 0 26.5 2t25 7.5t19.5 15.5t9 25q-3 -1 -7 -1q-23 0 -39 9t-16 25q0 8 8 14t15 6
q16 0 28.5 -12.5t16.5 -28.5q31 4 59 26t36 53h2zM1205 530q-3 -12 -7.5 -23.5t-11 -21.5t-16.5 -16t-23 -6q-20 0 -37 14.5t-23 46.5q-21 -40 -35 -51t-30 -11q-19 0 -32.5 13.5t-22.5 33.5t-13 42t-4 39q0 22 14 50.5t34 54t43.5 43t42.5 17.5q22 0 32 -29l7 26
q8 -4 15.5 -7t17.5 -3q14 0 23.5 7t18.5 13q-3 -18 -11 -57t-16 -81.5t-14.5 -79.5t-6.5 -50q0 -17 8 -17q12 0 20.5 16.5t16.5 36.5h10zM1719 138l40 -32l-143 -27l9 -51l-88 71q-15 -35 -35.5 -66.5t-46.5 -57.5q25 -9 53 -9q38 0 59 13.5t33 38.5h4q-3 -15 -12.5 -27
t-22 -20.5t-27.5 -12.5t-29 -4q-36 0 -67 12q-34 -34 -71.5 -54.5t-71.5 -20.5q-32 0 -53 27.5t-21 93.5q-2 -1 -7 -1q-18 0 -35.5 8.5t-31 25.5t-22 43t-8.5 61q0 20 14 46.5t36.5 50.5t51.5 41t59 17q20 0 35 -15.5t15 -51.5q0 -23 -12.5 -42.5t-31 -34t-41 -23.5
t-43.5 -11q-6 -34 -9 -58t-3 -25q0 -11 7.5 -16.5t18.5 -5.5q4 0 7 1v1q0 17 6 38t17.5 40t27 31.5t34.5 12.5q9 0 13 -8t4 -17q0 -16 -8.5 -34t-22 -33.5t-30 -26.5t-33.5 -13q0 -59 20.5 -84.5t51.5 -25.5q28 0 61 18.5t64 49.5q-35 17 -57.5 47.5t-22.5 74.5q0 15 4.5 30
t13 28t21 23t28.5 13v-4q-31 -9 -45.5 -36.5t-14.5 -57.5q0 -37 23 -65.5t58 -43.5q24 26 44.5 59t31.5 70l-114 35l50 20l-67 136l54 -16l-12 80l52 -59l31 45l31 -98l42 135l21 -35l79 46v-89h49l-104 -103l103 29l-17 -53l78 -8zM1189 439q-3 -17 -14 -32t-27 -26.5
t-36 -18.5t-41 -7h-11q-8 -8 -21 -12t-27 -4q-29 0 -57 13t-42 41l1 1q17 -20 40 -35t55 -15q12 0 23.5 3t19.5 10q-15 3 -37 9.5t-42.5 19t-34.5 31t-14 44.5q0 8 1.5 17.5t8.5 16.5l4 -4q-5 -15 -5 -27q0 -24 13.5 -40.5t33 -28t42 -17.5t41.5 -7q3 7 3 17q0 23 -18.5 39
t-43.5 16q-10 0 -20.5 -2.5t-19.5 -7.5l-4 1q8 8 19.5 11.5t22.5 3.5q13 0 25.5 -4.5t22.5 -12t16.5 -19t6.5 -24.5q0 -11 -3 -18h4q16 0 33 4t32 13t25.5 22.5t14.5 33.5zM1101 42q0 -20 -6.5 -40.5t-18.5 -37.5t-29.5 -28t-39.5 -11q-17 0 -28.5 9t-11.5 26q0 11 8.5 19.5
t19.5 8.5q6 0 9 -1v-4q-9 0 -19 -6t-10 -17q0 -13 9 -20t20 -7q19 0 35.5 11.5t28.5 28.5t18.5 36.5t6.5 36.5q0 13 -4 24t-10 21q-14 -31 -36 -55.5t-52 -24.5q-23 0 -31 16.5t-8 36.5q0 19 6 33t15 23.5t18.5 14.5t16.5 7q3 18 5.5 39t4.5 40.5t3.5 35t1.5 24.5q0 2 -3 6
t-9 4q-5 0 -12 -4.5t-14 -14t-12 -24.5t-5 -36q0 -10 -4.5 -38.5t-11 -65t-14.5 -76.5t-15 -74.5t-12.5 -58t-6.5 -27.5q-8 4 -15.5 7t-17.5 3q-14 0 -23.5 -7t-18.5 -13q2 12 8 44.5t14.5 75t17 90.5t16 89.5t12.5 72.5t5 40q0 22 -7.5 34.5t-18.5 22t-24 19.5t-24 27.5
t-18.5 45.5t-7.5 75q0 27 7 54.5t16 56t16 57t7 55.5q0 22 -9 22q-11 0 -29 -21t-32 -56q-2 -14 -7.5 -46t-11.5 -65.5t-12 -61t-7 -32.5q-8 4 -15.5 7.5t-17.5 3.5q-14 0 -22 -3t-17 -9q3 18 10 56.5t14 80t12.5 77.5t5.5 50q0 7 -2 12t-7 5q-12 0 -20.5 -16.5t-16.5 -36.5
h-10q4 12 8.5 23.5t12 21t18 15.5t25.5 6q28 0 41.5 -17t17.5 -40q6 8 13 18t15 19t18 15t23 6q16 0 27.5 -10t19.5 -26.5t12 -37t4 -41.5q0 -36 -8 -67t-17 -59t-17 -55t-8 -55q0 -27 7 -42t17.5 -23.5t23 -14t24 -13t20.5 -20.5t13 -36q18 31 31 40t28 9q19 0 33 -14
t23.5 -34.5t14 -42t4.5 -36.5q0 -17 -4 -37t-12 -40q8 -12 13.5 -26.5t5.5 -31.5zM635 530q-3 -12 -7 -23.5t-11 -21.5t-17 -16t-23 -6q-20 0 -37 14.5t-23 46.5q-20 -40 -34.5 -51t-30.5 -11q-19 0 -32.5 13.5t-22 33.5t-12.5 42t-4 39q0 22 14 50.5t34 54t43.5 43
t42.5 17.5q21 0 31 -29l7 26q8 -4 16 -7t17 -3q14 0 23.5 7t19.5 13q-3 -18 -11 -57t-16.5 -81.5t-15 -79.5t-6.5 -50q0 -17 9 -17q12 0 20.5 16.5t16.5 36.5h9zM786 317v3q-5 29 -20.5 39t-26.5 10q-9 0 -18.5 -4.5t-21 -10t-26 -10t-34.5 -4.5q-18 0 -26 8t-8 17
q0 18 16 25t28 7l58 -6q11 0 21.5 4.5t10.5 18.5q0 15 -11.5 22.5t-25.5 7.5q-10 0 -19.5 -4.5t-9.5 -13.5q0 -13 16 -13q12 0 21 6l2 -7q-5 -2 -10.5 -4t-11.5 -2q-10 0 -17.5 5t-7.5 14q0 12 13.5 18.5t24.5 6.5q17 0 30 -9t13 -26t-13.5 -23.5t-24.5 -6.5l-59 7
q-11 0 -24.5 -6t-13.5 -21q0 -10 9 -14t17 -4q12 0 25 5t25.5 11.5t24 11.5t20.5 5q26 0 43 -18t17 -46zM359 591q0 -32 -16.5 -61t-44.5 -49q16 -16 16 -43q0 -26 -16 -43t-39 -27q1 -2 1 -5q0 -20 -17 -32.5t-34 -12.5h-5l3 5q5 0 12.5 2.5t14 7t11.5 11t5 15.5q0 4 -1 6
q-12 -5 -24.5 -6.5t-24.5 -1.5q-9 0 -24 2t-28.5 7t-23.5 13t-10 21q0 9 5.5 14.5t14 9t17.5 5t15 1.5q10 0 23.5 -3.5t26 -10t23 -15.5t16.5 -19q19 8 32.5 22.5t13.5 35.5q0 22 -11 36q-16 -10 -33.5 -15.5t-37.5 -5.5q-29 0 -54 10.5t-43.5 31t-29 49.5t-10.5 65
q0 20 13 54q-17 12 -25 31t-8 42q0 22 7.5 45.5t21 42t32.5 30.5t41 12q6 0 16 -2v-6q-4 1 -12 1q-21 0 -38.5 -11t-31 -28.5t-21 -39t-7.5 -42.5q0 -20 7 -36.5t23 -27.5q16 36 42 76.5t55.5 74.5t59 56.5t52.5 22.5q13 0 21 -6.5t12 -17t5.5 -22.5t1.5 -22
q0 -28 -13 -55.5t-34.5 -50.5t-48 -41.5t-53.5 -28.5q0 -1 -0.5 -1.5t-0.5 -2.5q-5 -17 -9.5 -37t-9 -39.5t-7 -37.5t-2.5 -33q0 -16 6.5 -25.5t15 -14t15.5 -6t9 -1.5q33 0 63 22q-10 7 -21.5 9.5t-22.5 2.5q-9 0 -21 -2.5t-14 -4.5v4q5 5 16 8t17 3q30 0 52 -14
q24 20 38.5 51t14.5 63q0 19 -6.5 38t-28.5 19q-18 0 -32.5 -9t-24.5 -22.5t-15.5 -30.5t-5.5 -33q0 -9 4.5 -23t18.5 -14q10 0 17.5 7t12.5 17t7.5 21t2.5 20q0 3 -1 7t-2 9h8q2 -5 2 -9.5v-6.5q0 -11 -3.5 -23.5t-10 -23.5t-15 -18.5t-18.5 -7.5q-19 0 -24.5 16.5
t-5.5 31.5q0 16 6 33.5t16.5 32.5t25.5 24.5t34 9.5q27 0 42.5 -24t15.5 -56zM820 -25q0 -20 -9 -35t-21 -25h-9q14 11 23 24.5t9 31.5q0 14 -6 30.5t-31 22.5q2 -12 4 -27.5t2 -39.5q0 -26 -12.5 -45t-31.5 -31t-42.5 -17.5t-45.5 -5.5q-15 0 -30 4.5t-27.5 13.5t-20 21.5
t-7.5 28.5q0 17 7 27.5t16.5 16.5t19.5 8t16 2q11 0 16 -1q8 15 22 28.5t35 22.5v3q-2 8 -2.5 16t-0.5 14q-11 -22 -28 -37t-42 -15t-41 26t-16 64q0 19 7 40.5t15.5 43.5t15.5 41.5t7 33.5q0 17 -3 23t-8 6q-8 0 -15 -5t-13 -11.5t-9.5 -12.5t-4.5 -9q0 -25 -12.5 -41.5
t-31.5 -25.5q0 -92 -37 -136t-109 -44q-19 0 -37.5 4t-32.5 14t-23 25.5t-9 38.5q0 26 15 48t40 22q17 0 24.5 -12t7.5 -25q0 -25 -13.5 -46.5t-38.5 -21.5q-5 0 -10.5 2t-10.5 4q4 -15 17 -25.5t26 -10.5q21 0 36.5 15t27 38.5t19.5 52.5t14 57q-31 13 -45 40
q-12 -5 -18 -5q-71 0 -71 75q0 27 10.5 53.5t29 47.5t44 33.5t54.5 12.5q30 0 49 -5t32.5 -11t23.5 -11t22 -5q5 0 10 0.5t10 1.5v-5q-34 -8 -65.5 -30t-51.5 -50q-3 24 -20 38.5t-43 14.5q-19 0 -36 -8.5t-30 -22.5t-21 -32t-8 -37q0 -53 58 -53q10 0 18 4q-7 14 -7 35
q0 28 14.5 44.5t26.5 16.5q11 0 16.5 -7.5t5.5 -17.5q0 -21 -14.5 -41.5t-31.5 -31.5q6 -13 16.5 -21.5t23.5 -13.5q8 34 20.5 68t38.5 65q4 5 14 14.5t22 19t25.5 17t26.5 9.5v-7q-18 -9 -29.5 -24.5t-18 -34t-9 -39.5t-2.5 -40q0 -22 3 -47q17 8 28.5 23t11.5 35
q0 14 -4 27t-11 20v2q8 -5 12.5 -16t6.5 -22q6 12 21.5 26.5t40.5 14.5q15 0 26.5 -8t19 -21t11 -30.5t3.5 -35.5q0 -12 -7 -31.5t-15.5 -41t-15.5 -44t-7 -40.5q0 -21 12 -21q13 0 23.5 14t19.5 37t16 52.5t13 59.5t11.5 58t10.5 49q8 -4 16 -7t17 -3q14 0 23.5 7t19.5 13
q-5 -26 -13 -60t-15.5 -69.5t-12.5 -69t-3 -57.5l1 -17q20 -5 33 -21t13 -42zM517 -4q0 -38 -25.5 -63.5t-60.5 -31.5q-10 -18 -31.5 -26.5t-40.5 -8.5q-14 0 -31 3.5t-31.5 11t-24.5 19t-10 28.5q0 14 8.5 25t24.5 11h6.5t8.5 -2q-43 38 -84 55t-98 17q-23 0 -48 -2.5
t-60 -7.5q31 11 52.5 17t40.5 13q22 8 43 22.5t37 32.5t25.5 37.5t9.5 37.5q0 45 -29 67.5t-71 22.5q-13 0 -29 -1.5t-29.5 -7t-22.5 -15.5t-9 -27t17.5 -26t36.5 -9t35 11t31 24v-9q-10 -14 -28 -27t-38 -13q-25 0 -44.5 13t-19.5 36q0 19 9.5 31t23.5 18.5t30.5 9
t31.5 2.5q56 0 86 -28.5t30 -76.5q0 -21 -11.5 -41t-26.5 -36.5t-30 -29t-22 -17.5l18 -4q24 -5 45 -12t40 -18.5t36.5 -27.5t35.5 -39h-2v-2q-6 2 -11 3t-10 1q-18 0 -25 -8.5t-7 -19.5q0 -15 10 -25.5t24 -17t29.5 -9.5t26.5 -3q17 0 33.5 7.5t25.5 18.5h-4
q-8 0 -20.5 2.5t-24 8t-19.5 14.5t-8 22q0 15 9.5 21.5t23.5 6.5q23 0 42.5 -15.5t19.5 -36.5q0 -4 -2 -10q13 3 27 9.5t25 17t18 24.5t7 33q0 11 -1 18.5t-5 19.5h4q2 -4 4.5 -15.5t2.5 -22.5zM1671 689q0 33 -5 44.5t-13 11.5q-9 0 -15 -7.5t-9.5 -18t-5.5 -21.5t-3 -18
q-2 -11 -7 -37.5t-10.5 -57.5t-9.5 -59t-4 -40q0 -3 1 -7t7 -4q14 0 27.5 21t24.5 69q2 23 8.5 57.5t13.5 66.5zM1375 699q-1 27 -6.5 36.5t-11.5 9.5q-9 0 -15 -7.5t-9.5 -18t-5.5 -21.5t-3 -18q-2 -11 -7 -37.5t-10.5 -57.5t-9.5 -59t-4 -40q0 -3 1 -7t7 -4q13 0 22 11
t17 36.5t16 68.5t19 108zM1390 406q-3 14 -12 23.5t-23 9.5q-6 0 -10.5 -2.5t-4.5 -10.5q0 -12 14.5 -16t31.5 -4h4zM1107 689q0 33 -5 44.5t-13 11.5q-9 0 -15 -7.5t-9.5 -18t-5.5 -21.5t-3 -18q-2 -11 -7 -37.5t-10.5 -57.5t-9.5 -59t-4 -40q0 -3 1 -7t7 -4q14 0 27.5 21
t24.5 69q2 23 8.5 57.5t13.5 66.5zM1291 272q0 22 -10 22q-12 0 -23 -14.5t-20 -37.5t-16 -51t-12 -55q19 3 34.5 19t25.5 37t15.5 43t5.5 37zM1320 123q0 5 -1.5 9.5t-7.5 4.5q-15 0 -28.5 -11.5t-24 -28.5t-16.5 -36.5t-6 -35.5v-2q12 0 26.5 10t27.5 25t21.5 32.5
t8.5 32.5zM538 689q0 33 -5.5 44.5t-12.5 11.5t-12.5 -8t-10 -18.5t-7 -21.5t-3.5 -17q-2 -11 -7.5 -37.5t-10.5 -57.5t-9 -59t-4 -40q0 -3 1 -7t7 -4q13 0 26.5 21t24.5 69q2 23 8.5 57.5t14.5 66.5zM1007 131q-11 -1 -20 -8t-15.5 -17.5t-10 -23t-3.5 -24.5q0 -9 5 -21.5
t19 -12.5q6 0 10.5 12t7 29t4 35.5t3.5 30.5zM326 868q0 10 -3 17.5t-14 7.5t-21 -12t-27 -48q0 -2 -7 -19.5t-16.5 -42.5t-19 -51.5t-15.5 -45.5q25 11 47.5 31.5t39 46.5t26.5 56t10 60zM422 299q0 8 -3 14t-12 6q-10 0 -16 -6t-9.5 -14.5t-5 -18t-1.5 -16.5q0 -19 5 -29
q16 11 29 29t13 35zM673 -72q0 11 -9 18.5t-20 12.5q-1 -3 -1 -6.5v-6.5q0 -10 3.5 -20t11.5 -10q9 0 12 4t3 8zM724 -72q0 21 -10 46.5t-15 44.5q-17 -5 -30 -15.5t-21 -27.5q20 -7 28.5 -21.5t8.5 -23.5q0 -7 -5.5 -16t-19.5 -9q-12 0 -20 12.5t-8 25.5v9t2 9q-5 1 -8.5 1
h-7.5q-19 0 -30.5 -10.5t-11.5 -29.5q0 -14 6.5 -24.5t16.5 -18t23 -11t26 -3.5q12 0 25 4t24.5 12t19 19.5t7.5 26.5zM245 378q-11 20 -35 32.5t-44 12.5q-5 0 -11.5 -1t-13 -3t-11 -7t-4.5 -12q0 -10 7 -16t17.5 -9.5t22.5 -4.5t21 -1q25 0 51 9zM428 -76q0 18 -16.5 30
t-32.5 12q-11 0 -19 -6t-8 -19q0 -9 6 -15.5t15 -10.5t18.5 -5.5t17.5 -1.5q10 0 14.5 2.5t4.5 13.5z" />
    <glyph glyph-name="paragraph" unicode="&#xb6;" horiz-adv-x="882" 
d="M822 701v-901h-165v754h-98v-754h-165v430h-12q-86 0 -147 16.5t-100 47.5t-57 73.5t-18 95.5q0 71 22 117t70 73t123.5 37.5t181.5 10.5h365z" />
    <glyph glyph-name="periodcentered" unicode="&#xb7;" 
d="M70 495h165v-135h-165v135z" />
    <glyph glyph-name="cedilla" unicode="&#xb8;" horiz-adv-x="406" 
d="M66 -126q19 -5 39 -8t44 -3q32 0 54.5 8.5t22.5 24.5q0 12 -11.5 19t-29.5 7q-16 0 -32 -5t-27 -14l-19 14l59 84h56l-31 -41q11 3 22.5 4t23.5 1q47 0 78 -16.5t31 -56.5q0 -22 -11 -36.5t-29.5 -23.5t-43 -12.5t-51.5 -3.5q-46 0 -88.5 7t-69.5 15z" />
    <glyph glyph-name="uni00B9" unicode="&#xb9;" horiz-adv-x="1195" 
d="M30 348q0 72 20.5 137.5t66.5 115.5t119.5 79.5t180.5 29.5h358q105 0 179 -30t121 -80t68.5 -115.5t21.5 -136.5t-21.5 -136t-68.5 -114.5t-121 -78.5t-179 -29h-358q-107 0 -180.5 29t-119.5 78t-66.5 114t-20.5 137zM316 99h109v119h335q57 0 97.5 12.5t66 35t37.5 54
t12 69.5q0 86 -50 130t-164 44h-443v-464zM425 473h338q18 0 36 -3t32.5 -12t23.5 -25t9 -43t-9 -43.5t-23.5 -25t-32.5 -11.5t-36 -3h-338v166z" />
    <glyph glyph-name="ordmasculine" unicode="&#xba;" horiz-adv-x="1197" 
d="M418 -10q-106 0 -179.5 29t-120 78.5t-67.5 114t-21 136.5t21 137.5t67.5 115.5t120 79.5t179.5 29.5h357q105 0 179 -30t121 -80t68.5 -115.5t21.5 -136.5q0 -47 -9 -91t-28 -83t-48.5 -72t-70.5 -57l160 -170h-149l-122 129q-56 -14 -123 -14h-357z" />
    <glyph glyph-name="guillemotright" unicode="&#xbb;" horiz-adv-x="613" 
d="M563 286l-236 -161v133l125 92l-125 92v133l236 -161v-128zM286 286l-236 -161v133l125 92l-125 92v133l236 -161v-128z" />
    <glyph glyph-name="questiondown" unicode="&#xbf;" horiz-adv-x="957" 
d="M663 392q-13 -59 -51.5 -94.5t-89.5 -57.5t-107 -34.5t-103 -25t-77.5 -29.5t-30.5 -47q0 -24 12 -38t41.5 -21.5t79.5 -9.5t127 -2h114q54 0 86.5 5t51.5 16t27.5 29t14.5 44h169q-8 -51 -24.5 -93t-49 -72t-85.5 -46t-135 -16h-265q-107 0 -171 20t-99 50.5t-46 66.5
t-11 69q0 46 19 78t50 53t70.5 33.5t81.5 21.5t82.5 16.5t73.5 17.5t54.5 25.5t25.5 40.5h165zM663 465h-165v135h165v-135z" />
    <glyph glyph-name="Agrave" unicode="&#xc0;" horiz-adv-x="1055" 
d="M1085 0h-190l-84 130h-571l-86 -130h-184l451 700h213zM322 257h408l-201 313zM312 894h223l91 -144h-161z" />
    <glyph glyph-name="Aacute" unicode="&#xc1;" horiz-adv-x="1055" 
d="M1085 0h-190l-84 130h-571l-86 -130h-184l451 700h213zM322 257h408l-201 313zM604 750h-161l91 144h223z" />
    <glyph glyph-name="Acircumflex" unicode="&#xc2;" horiz-adv-x="1055" 
d="M1085 0h-190l-84 130h-571l-86 -130h-184l451 700h213zM322 257h408l-201 313zM788 750h-200l-68 76l-68 -76h-182l147 144h218z" />
    <glyph glyph-name="Atilde" unicode="&#xc3;" horiz-adv-x="1055" 
d="M1085 0h-190l-84 130h-571l-86 -130h-184l451 700h213zM322 257h408l-201 313zM766 903q-7 -44 -19.5 -71.5t-29 -44t-36 -22.5t-41.5 -6q-20 0 -53.5 7.5t-68 16.5t-62.5 16.5t-37 7.5q-20 0 -29.5 -10t-15.5 -37h-84q10 47 26.5 75t35.5 43t39.5 20t38.5 5
q10 0 40 -7.5t64 -16.5t64.5 -16.5t43.5 -7.5q14 0 25 8t18 40h81z" />
    <glyph glyph-name="Adieresis" unicode="&#xc4;" horiz-adv-x="1055" 
d="M1085 0h-190l-84 130h-571l-86 -130h-184l451 700h213zM322 257h408l-201 313zM313 857h167v-107h-167v107zM578 857h167v-107h-167v107z" />
    <glyph glyph-name="Aring" unicode="&#xc5;" horiz-adv-x="1055" 
d="M1085 0h-190l-84 130h-571l-86 -130h-184l451 700h213zM322 257h408l-201 313zM409 853q0 25 9.5 46.5t26 38t38 26t46.5 9.5t46.5 -9.5t38 -26t26 -38t9.5 -46.5t-9.5 -46.5t-26 -38t-38 -26t-46.5 -9.5t-46.5 9.5t-38 26t-26 38t-9.5 46.5zM479 853q0 -21 14.5 -35.5
t35.5 -14.5t35.5 14.5t14.5 35.5t-14.5 35.5t-35.5 14.5t-35.5 -14.5t-14.5 -35.5z" />
    <glyph glyph-name="AE" unicode="&#xc6;" horiz-adv-x="1623" 
d="M254 155l-99 -155h-185l451 700h1177v-135h-810v-150h748v-130h-748v-150h810v-135h-975v155h-369zM338 285h285v280h-103z" />
    <glyph glyph-name="Ccedilla" unicode="&#xc7;" horiz-adv-x="1139" 
d="M455 -128q19 -5 39 -8t44 -3q32 0 54.5 8t22.5 25q0 11 -11.5 18.5t-29.5 7.5q-16 0 -32 -5.5t-27 -14.5l-19 14l53 76h-131q-106 0 -179.5 29t-120 78t-67.5 113.5t-21 136.5t21 137.5t67.5 115.5t120 80t179.5 30h316q82 0 145 -19t108.5 -51.5t74.5 -76.5t44 -95h-175
q-30 55 -88 82t-139 27h-255q-123 0 -188.5 -59.5t-65.5 -169.5q0 -109 65.5 -167.5t188.5 -58.5h255q86 0 145 29t87 89h173q-13 -53 -41.5 -98.5t-74.5 -79t-110.5 -53t-148.5 -19.5h-130l-24 -33q21 6 46 6q47 0 78 -17t31 -56q0 -22 -11 -37t-29.5 -24t-43 -12.5
t-51.5 -3.5q-46 0 -88.5 7.5t-69.5 15.5z" />
    <glyph glyph-name="Egrave" unicode="&#xc8;" horiz-adv-x="1070" 
d="M235 565v-150h748v-130h-748v-150h810v-135h-975v700h975v-135h-810zM390 894h223l91 -144h-161z" />
    <glyph glyph-name="Eacute" unicode="&#xc9;" horiz-adv-x="1070" 
d="M235 565v-150h748v-130h-748v-150h810v-135h-975v700h975v-135h-810zM643 750h-161l91 144h223z" />
    <glyph glyph-name="Ecircumflex" unicode="&#xca;" horiz-adv-x="1070" 
d="M235 565v-150h748v-130h-748v-150h810v-135h-975v700h975v-135h-810zM841 750h-200l-68 76l-68 -76h-182l147 144h218z" />
    <glyph glyph-name="Edieresis" unicode="&#xcb;" horiz-adv-x="1070" 
d="M235 565v-150h748v-130h-748v-150h810v-135h-975v700h975v-135h-810zM371 857h167v-107h-167v107zM636 857h167v-107h-167v107z" />
    <glyph glyph-name="Igrave" unicode="&#xcc;" 
d="M70 700h165v-700h-165v700zM-67 894h223l91 -144h-161z" />
    <glyph glyph-name="Iacute" unicode="&#xcd;" 
d="M70 700h165v-700h-165v700zM216 750h-161l91 144h223z" />
    <glyph glyph-name="Icircumflex" unicode="&#xce;" 
d="M70 700h165v-700h-165v700zM416 750h-199l-68 76l-68 -76h-183l148 144h217z" />
    <glyph glyph-name="Idieresis" unicode="&#xcf;" 
d="M70 700h165v-700h-165v700zM-64 857h167v-107h-167v107zM201 857h167v-107h-167v107z" />
    <glyph glyph-name="Eth" unicode="&#xd0;" horiz-adv-x="1181" 
d="M0 406h70v294h691q105 0 179 -28.5t121 -76.5t68.5 -112t21.5 -135t-21.5 -134.5t-68.5 -111t-121 -75t-179 -27.5h-691v292h-70v114zM235 567v-161h372v-114h-372v-160h496q121 0 188 54t67 163t-67 163.5t-188 54.5h-496z" />
    <glyph glyph-name="Ntilde" unicode="&#xd1;" horiz-adv-x="1155" 
d="M1085 0h-185l-665 526v-526h-165v701h201l649 -514v513h165v-700zM857 903q-7 -44 -19.5 -71.5t-29 -44t-36 -22.5t-41.5 -6q-20 0 -53.5 7.5t-68 16.5t-62.5 16.5t-37 7.5q-20 0 -29.5 -10t-15.5 -37h-84q10 47 26.5 75t35.5 43t39.5 20t38.5 5q10 0 40 -7.5t64 -16.5
t64.5 -16.5t43.5 -7.5q14 0 25 8t18 40h81z" />
    <glyph glyph-name="Ograve" unicode="&#xd2;" horiz-adv-x="1195" 
d="M418 -10q-106 0 -179.5 29t-120 78.5t-67.5 114t-21 136.5t21 137.5t67.5 115.5t120 79.5t179.5 29.5h357q105 0 179 -30t121 -80t68.5 -115.5t21.5 -136.5t-21.5 -136t-68.5 -114.5t-121 -78.5t-179 -29h-357zM449 577q-123 0 -188.5 -59.5t-65.5 -168.5
q0 -110 65.5 -168.5t188.5 -58.5h296q121 0 188 59t67 168t-67 168.5t-188 59.5h-296zM405 894h223l91 -144h-161z" />
    <glyph glyph-name="Oacute" unicode="&#xd3;" horiz-adv-x="1195" 
d="M418 -10q-106 0 -179.5 29t-120 78.5t-67.5 114t-21 136.5t21 137.5t67.5 115.5t120 79.5t179.5 29.5h357q105 0 179 -30t121 -80t68.5 -115.5t21.5 -136.5t-21.5 -136t-68.5 -114.5t-121 -78.5t-179 -29h-357zM449 577q-123 0 -188.5 -59.5t-65.5 -168.5
q0 -110 65.5 -168.5t188.5 -58.5h296q121 0 188 59t67 168t-67 168.5t-188 59.5h-296zM683 750h-161l91 144h223z" />
    <glyph glyph-name="Ocircumflex" unicode="&#xd4;" horiz-adv-x="1195" 
d="M418 -10q-106 0 -179.5 29t-120 78.5t-67.5 114t-21 136.5t21 137.5t67.5 115.5t120 79.5t179.5 29.5h357q105 0 179 -30t121 -80t68.5 -115.5t21.5 -136.5t-21.5 -136t-68.5 -114.5t-121 -78.5t-179 -29h-357zM449 577q-123 0 -188.5 -59.5t-65.5 -168.5
q0 -110 65.5 -168.5t188.5 -58.5h296q121 0 188 59t67 168t-67 168.5t-188 59.5h-296zM861 750h-200l-68 76l-68 -76h-182l147 144h218z" />
    <glyph glyph-name="Otilde" unicode="&#xd5;" horiz-adv-x="1195" 
d="M418 -10q-106 0 -179.5 29t-120 78.5t-67.5 114t-21 136.5t21 137.5t67.5 115.5t120 79.5t179.5 29.5h357q105 0 179 -30t121 -80t68.5 -115.5t21.5 -136.5t-21.5 -136t-68.5 -114.5t-121 -78.5t-179 -29h-357zM449 577q-123 0 -188.5 -59.5t-65.5 -168.5
q0 -110 65.5 -168.5t188.5 -58.5h296q121 0 188 59t67 168t-67 168.5t-188 59.5h-296zM835 903q-7 -44 -19.5 -71.5t-29 -44t-36 -22.5t-41.5 -6q-20 0 -53.5 7.5t-68 16.5t-62.5 16.5t-37 7.5q-20 0 -29.5 -10t-15.5 -37h-84q10 47 26.5 75t35.5 43t39.5 20t38.5 5
q10 0 40 -7.5t64 -16.5t64.5 -16.5t43.5 -7.5q14 0 25 8t18 40h81z" />
    <glyph glyph-name="Odieresis" unicode="&#xd6;" horiz-adv-x="1195" 
d="M418 -10q-106 0 -179.5 29t-120 78.5t-67.5 114t-21 136.5t21 137.5t67.5 115.5t120 79.5t179.5 29.5h357q105 0 179 -30t121 -80t68.5 -115.5t21.5 -136.5t-21.5 -136t-68.5 -114.5t-121 -78.5t-179 -29h-357zM449 577q-123 0 -188.5 -59.5t-65.5 -168.5
q0 -110 65.5 -168.5t188.5 -58.5h296q121 0 188 59t67 168t-67 168.5t-188 59.5h-296zM381 857h167v-107h-167v107zM646 857h167v-107h-167v107z" />
    <glyph glyph-name="multiply" unicode="&#xd7;" horiz-adv-x="583" 
d="M291 443l137 137l96 -95l-137 -137l137 -137l-95 -96l-138 138l-137 -137l-95 94l137 138l-137 137l95 95z" />
    <glyph glyph-name="Oslash" unicode="&#xd8;" horiz-adv-x="1195" 
d="M372 -8q-93 6 -158 37t-106 79t-59.5 110t-18.5 130q0 72 21 137.5t67.5 115.5t120 79.5t179.5 29.5h292l43 90h115l-43 -93q91 -7 155.5 -39t105.5 -81t60 -110.5t19 -128.5q0 -71 -21.5 -136t-68.5 -114.5t-121 -78.5t-179 -29h-289l-42 -90h-115zM195 349
q0 -108 63 -165.5t176 -61.5l214 455h-199q-123 0 -188.5 -59.5t-65.5 -168.5zM1000 349q0 106 -63.5 164t-173.5 63l-214 -454h196q121 0 188 59t67 168z" />
    <glyph glyph-name="Ugrave" unicode="&#xd9;" horiz-adv-x="1191" 
d="M443 -10q-106 0 -179.5 27t-120 74t-67.5 112t-21 140v357h165v-356q0 -117 66 -169.5t188 -52.5h242q121 0 188 53t67 169v356h165v-357q0 -75 -21.5 -139.5t-68.5 -112t-121 -74.5t-179 -27h-303zM406 894h223l91 -144h-161z" />
    <glyph glyph-name="Uacute" unicode="&#xda;" horiz-adv-x="1191" 
d="M443 -10q-106 0 -179.5 27t-120 74t-67.5 112t-21 140v357h165v-356q0 -117 66 -169.5t188 -52.5h242q121 0 188 53t67 169v356h165v-357q0 -75 -21.5 -139.5t-68.5 -112t-121 -74.5t-179 -27h-303zM663 750h-161l91 144h223z" />
    <glyph glyph-name="Ucircumflex" unicode="&#xdb;" horiz-adv-x="1191" 
d="M443 -10q-106 0 -179.5 27t-120 74t-67.5 112t-21 140v357h165v-356q0 -117 66 -169.5t188 -52.5h242q121 0 188 53t67 169v356h165v-357q0 -75 -21.5 -139.5t-68.5 -112t-121 -74.5t-179 -27h-303zM854 750h-200l-68 76l-68 -76h-182l147 144h218z" />
    <glyph glyph-name="Udieresis" unicode="&#xdc;" horiz-adv-x="1191" 
d="M443 -10q-106 0 -179.5 27t-120 74t-67.5 112t-21 140v357h165v-356q0 -117 66 -169.5t188 -52.5h242q121 0 188 53t67 169v356h165v-357q0 -75 -21.5 -139.5t-68.5 -112t-121 -74.5t-179 -27h-303zM379 857h167v-107h-167v107zM644 857h167v-107h-167v107z" />
    <glyph glyph-name="Yacute" unicode="&#xdd;" horiz-adv-x="979" 
d="M407 230l-447 470h217l313 -329l313 329h216l-447 -469v-231h-165v230zM566 750h-161l91 144h223z" />
    <glyph glyph-name="Thorn" unicode="&#xde;" horiz-adv-x="1082" 
d="M70 701h165v-87h503q86 0 147.5 -16.5t100.5 -49.5t57.5 -82.5t18.5 -114.5q0 -57 -18 -104.5t-57 -81.5t-100 -53t-147 -19h-505v-93h-165v701zM235 478v-250h509q27 0 54 4.5t49 17.5t36 37.5t14 64.5q0 41 -14 65.5t-36 38t-49 18t-54 4.5h-509z" />
    <glyph glyph-name="germandbls" unicode="&#xdf;" horiz-adv-x="2165" 
d="M701 133q101 0 145 16.5t44 61.5q0 43 -43.5 58.5t-145.5 15.5h-355q-83 0 -140.5 14t-93.5 40.5t-52.5 63.5t-16.5 84q0 51 16.5 90.5t52.5 66.5t93.5 41.5t140.5 14.5h407q79 0 130.5 -16t83.5 -45.5t48.5 -70t25.5 -89.5h-169q-9 23 -20 39.5t-27.5 27t-41 15.5
t-60.5 5h-323q-102 0 -146 -16t-44 -61q0 -44 44 -59t145 -15h356q82 0 139.5 -14.5t93.5 -40.5t52.5 -64t16.5 -84q0 -50 -16.5 -89.5t-52.5 -66.5t-94 -41.5t-140 -14.5h-446q-79 0 -130.5 16t-83.5 45t-48.5 69.5t-25.5 90.5h169q9 -23 20 -39.5t27.5 -27.5t41 -16
t60.5 -5h363zM1783 133q102 0 146 16.5t44 61.5q0 43 -44 58.5t-145 15.5h-356q-82 0 -139.5 14t-93.5 40.5t-52.5 63.5t-16.5 84q0 51 16.5 90.5t52.5 66.5t93.5 41.5t140.5 14.5h406q79 0 130.5 -16t83.5 -45.5t49 -70t26 -89.5h-169q-9 23 -20 39.5t-28 27t-41.5 15.5
t-60.5 5h-323q-101 0 -145 -16t-44 -61q0 -44 43.5 -59t145.5 -15h355q82 0 140 -14.5t94 -40.5t52.5 -64t16.5 -84q0 -50 -16.5 -89.5t-52.5 -66.5t-94 -41.5t-140 -14.5h-447q-79 0 -130 16t-83 45t-49 69.5t-26 90.5h169q9 -23 20 -39.5t27.5 -27.5t41 -16t60.5 -5h363z
" />
    <glyph glyph-name="agrave" unicode="&#xe0;" horiz-adv-x="1055" 
d="M1085 0h-190l-84 130h-571l-86 -130h-184l451 700h213zM322 257h408l-201 313zM312 894h223l91 -144h-161z" />
    <glyph glyph-name="aacute" unicode="&#xe1;" horiz-adv-x="1055" 
d="M1085 0h-190l-84 130h-571l-86 -130h-184l451 700h213zM322 257h408l-201 313zM604 750h-161l91 144h223z" />
    <glyph glyph-name="acircumflex" unicode="&#xe2;" horiz-adv-x="1055" 
d="M1085 0h-190l-84 130h-571l-86 -130h-184l451 700h213zM322 257h408l-201 313zM788 750h-200l-68 76l-68 -76h-182l147 144h218z" />
    <glyph glyph-name="atilde" unicode="&#xe3;" horiz-adv-x="1055" 
d="M1085 0h-190l-84 130h-571l-86 -130h-184l451 700h213zM322 257h408l-201 313zM766 903q-7 -44 -19.5 -71.5t-29 -44t-36 -22.5t-41.5 -6q-20 0 -53.5 7.5t-68 16.5t-62.5 16.5t-37 7.5q-20 0 -29.5 -10t-15.5 -37h-84q10 47 26.5 75t35.5 43t39.5 20t38.5 5
q10 0 40 -7.5t64 -16.5t64.5 -16.5t43.5 -7.5q14 0 25 8t18 40h81z" />
    <glyph glyph-name="adieresis" unicode="&#xe4;" horiz-adv-x="1055" 
d="M1085 0h-190l-84 130h-571l-86 -130h-184l451 700h213zM322 257h408l-201 313zM313 857h167v-107h-167v107zM578 857h167v-107h-167v107z" />
    <glyph glyph-name="aring" unicode="&#xe5;" horiz-adv-x="1055" 
d="M1085 0h-190l-84 130h-571l-86 -130h-184l451 700h213zM322 257h408l-201 313zM409 853q0 25 9.5 46.5t26 38t38 26t46.5 9.5t46.5 -9.5t38 -26t26 -38t9.5 -46.5t-9.5 -46.5t-26 -38t-38 -26t-46.5 -9.5t-46.5 9.5t-38 26t-26 38t-9.5 46.5zM479 853q0 -21 14.5 -35.5
t35.5 -14.5t35.5 14.5t14.5 35.5t-14.5 35.5t-35.5 14.5t-35.5 -14.5t-14.5 -35.5z" />
    <glyph glyph-name="ae" unicode="&#xe6;" horiz-adv-x="1623" 
d="M254 155l-99 -155h-185l451 700h1177v-135h-810v-150h748v-130h-748v-150h810v-135h-975v155h-369zM338 285h285v280h-103z" />
    <glyph glyph-name="ccedilla" unicode="&#xe7;" horiz-adv-x="1139" 
d="M455 -128q19 -5 39 -8t44 -3q32 0 54.5 8t22.5 25q0 11 -11.5 18.5t-29.5 7.5q-16 0 -32 -5.5t-27 -14.5l-19 14l53 76h-131q-106 0 -179.5 29t-120 78t-67.5 113.5t-21 136.5t21 137.5t67.5 115.5t120 80t179.5 30h316q82 0 145 -19t108.5 -51.5t74.5 -76.5t44 -95h-175
q-30 55 -88 82t-139 27h-255q-123 0 -188.5 -59.5t-65.5 -169.5q0 -109 65.5 -167.5t188.5 -58.5h255q86 0 145 29t87 89h173q-13 -53 -41.5 -98.5t-74.5 -79t-110.5 -53t-148.5 -19.5h-130l-24 -33q21 6 46 6q47 0 78 -17t31 -56q0 -22 -11 -37t-29.5 -24t-43 -12.5
t-51.5 -3.5q-46 0 -88.5 7.5t-69.5 15.5z" />
    <glyph glyph-name="egrave" unicode="&#xe8;" horiz-adv-x="1070" 
d="M235 565v-150h748v-130h-748v-150h810v-135h-975v700h975v-135h-810zM390 894h223l91 -144h-161z" />
    <glyph glyph-name="eacute" unicode="&#xe9;" horiz-adv-x="1070" 
d="M235 565v-150h748v-130h-748v-150h810v-135h-975v700h975v-135h-810zM643 750h-161l91 144h223z" />
    <glyph glyph-name="ecircumflex" unicode="&#xea;" horiz-adv-x="1070" 
d="M235 565v-150h748v-130h-748v-150h810v-135h-975v700h975v-135h-810zM841 750h-200l-68 76l-68 -76h-182l147 144h218z" />
    <glyph glyph-name="edieresis" unicode="&#xeb;" horiz-adv-x="1070" 
d="M235 565v-150h748v-130h-748v-150h810v-135h-975v700h975v-135h-810zM371 857h167v-107h-167v107zM636 857h167v-107h-167v107z" />
    <glyph glyph-name="igrave" unicode="&#xec;" 
d="M70 700h165v-700h-165v700zM-67 894h223l91 -144h-161z" />
    <glyph glyph-name="iacute" unicode="&#xed;" 
d="M70 700h165v-700h-165v700zM216 750h-161l91 144h223z" />
    <glyph glyph-name="icircumflex" unicode="&#xee;" 
d="M70 700h165v-700h-165v700zM416 750h-199l-68 76l-68 -76h-183l148 144h217z" />
    <glyph glyph-name="idieresis" unicode="&#xef;" 
d="M70 700h165v-700h-165v700zM-64 857h167v-107h-167v107zM201 857h167v-107h-167v107z" />
    <glyph glyph-name="eth" unicode="&#xf0;" horiz-adv-x="1181" 
d="M0 406h70v294h691q105 0 179 -28.5t121 -76.5t68.5 -112t21.5 -135t-21.5 -134.5t-68.5 -111t-121 -75t-179 -27.5h-691v292h-70v114zM235 567v-161h372v-114h-372v-160h496q121 0 188 54t67 163t-67 163.5t-188 54.5h-496z" />
    <glyph glyph-name="ntilde" unicode="&#xf1;" horiz-adv-x="1155" 
d="M1085 0h-185l-665 526v-526h-165v701h201l649 -514v513h165v-700zM857 903q-7 -44 -19.5 -71.5t-29 -44t-36 -22.5t-41.5 -6q-20 0 -53.5 7.5t-68 16.5t-62.5 16.5t-37 7.5q-20 0 -29.5 -10t-15.5 -37h-84q10 47 26.5 75t35.5 43t39.5 20t38.5 5q10 0 40 -7.5t64 -16.5
t64.5 -16.5t43.5 -7.5q14 0 25 8t18 40h81z" />
    <glyph glyph-name="ograve" unicode="&#xf2;" horiz-adv-x="1195" 
d="M418 -10q-106 0 -179.5 29t-120 78.5t-67.5 114t-21 136.5t21 137.5t67.5 115.5t120 79.5t179.5 29.5h357q105 0 179 -30t121 -80t68.5 -115.5t21.5 -136.5t-21.5 -136t-68.5 -114.5t-121 -78.5t-179 -29h-357zM449 577q-123 0 -188.5 -59.5t-65.5 -168.5
q0 -110 65.5 -168.5t188.5 -58.5h296q121 0 188 59t67 168t-67 168.5t-188 59.5h-296zM405 894h223l91 -144h-161z" />
    <glyph glyph-name="oacute" unicode="&#xf3;" horiz-adv-x="1195" 
d="M418 -10q-106 0 -179.5 29t-120 78.5t-67.5 114t-21 136.5t21 137.5t67.5 115.5t120 79.5t179.5 29.5h357q105 0 179 -30t121 -80t68.5 -115.5t21.5 -136.5t-21.5 -136t-68.5 -114.5t-121 -78.5t-179 -29h-357zM449 577q-123 0 -188.5 -59.5t-65.5 -168.5
q0 -110 65.5 -168.5t188.5 -58.5h296q121 0 188 59t67 168t-67 168.5t-188 59.5h-296zM683 750h-161l91 144h223z" />
    <glyph glyph-name="ocircumflex" unicode="&#xf4;" horiz-adv-x="1195" 
d="M418 -10q-106 0 -179.5 29t-120 78.5t-67.5 114t-21 136.5t21 137.5t67.5 115.5t120 79.5t179.5 29.5h357q105 0 179 -30t121 -80t68.5 -115.5t21.5 -136.5t-21.5 -136t-68.5 -114.5t-121 -78.5t-179 -29h-357zM449 577q-123 0 -188.5 -59.5t-65.5 -168.5
q0 -110 65.5 -168.5t188.5 -58.5h296q121 0 188 59t67 168t-67 168.5t-188 59.5h-296zM861 750h-200l-68 76l-68 -76h-182l147 144h218z" />
    <glyph glyph-name="otilde" unicode="&#xf5;" horiz-adv-x="1195" 
d="M418 -10q-106 0 -179.5 29t-120 78.5t-67.5 114t-21 136.5t21 137.5t67.5 115.5t120 79.5t179.5 29.5h357q105 0 179 -30t121 -80t68.5 -115.5t21.5 -136.5t-21.5 -136t-68.5 -114.5t-121 -78.5t-179 -29h-357zM449 577q-123 0 -188.5 -59.5t-65.5 -168.5
q0 -110 65.5 -168.5t188.5 -58.5h296q121 0 188 59t67 168t-67 168.5t-188 59.5h-296zM835 903q-7 -44 -19.5 -71.5t-29 -44t-36 -22.5t-41.5 -6q-20 0 -53.5 7.5t-68 16.5t-62.5 16.5t-37 7.5q-20 0 -29.5 -10t-15.5 -37h-84q10 47 26.5 75t35.5 43t39.5 20t38.5 5
q10 0 40 -7.5t64 -16.5t64.5 -16.5t43.5 -7.5q14 0 25 8t18 40h81z" />
    <glyph glyph-name="odieresis" unicode="&#xf6;" horiz-adv-x="1195" 
d="M418 -10q-106 0 -179.5 29t-120 78.5t-67.5 114t-21 136.5t21 137.5t67.5 115.5t120 79.5t179.5 29.5h357q105 0 179 -30t121 -80t68.5 -115.5t21.5 -136.5t-21.5 -136t-68.5 -114.5t-121 -78.5t-179 -29h-357zM449 577q-123 0 -188.5 -59.5t-65.5 -168.5
q0 -110 65.5 -168.5t188.5 -58.5h296q121 0 188 59t67 168t-67 168.5t-188 59.5h-296zM381 857h167v-107h-167v107zM646 857h167v-107h-167v107z" />
    <glyph glyph-name="divide" unicode="&#xf7;" horiz-adv-x="641" 
d="M238 237h165v-135h-165v135zM238 597h165v-135h-165v135zM582 416v-135h-523v135h523z" />
    <glyph glyph-name="oslash" unicode="&#xf8;" horiz-adv-x="1195" 
d="M372 -8q-93 6 -158 37t-106 79t-59.5 110t-18.5 130q0 72 21 137.5t67.5 115.5t120 79.5t179.5 29.5h292l43 90h115l-43 -93q91 -7 155.5 -39t105.5 -81t60 -110.5t19 -128.5q0 -71 -21.5 -136t-68.5 -114.5t-121 -78.5t-179 -29h-289l-42 -90h-115zM195 349
q0 -108 63 -165.5t176 -61.5l214 455h-199q-123 0 -188.5 -59.5t-65.5 -168.5zM1000 349q0 106 -63.5 164t-173.5 63l-214 -454h196q121 0 188 59t67 168z" />
    <glyph glyph-name="ugrave" unicode="&#xf9;" horiz-adv-x="1191" 
d="M443 -10q-106 0 -179.5 27t-120 74t-67.5 112t-21 140v357h165v-356q0 -117 66 -169.5t188 -52.5h242q121 0 188 53t67 169v356h165v-357q0 -75 -21.5 -139.5t-68.5 -112t-121 -74.5t-179 -27h-303zM406 894h223l91 -144h-161z" />
    <glyph glyph-name="uacute" unicode="&#xfa;" horiz-adv-x="1191" 
d="M443 -10q-106 0 -179.5 27t-120 74t-67.5 112t-21 140v357h165v-356q0 -117 66 -169.5t188 -52.5h242q121 0 188 53t67 169v356h165v-357q0 -75 -21.5 -139.5t-68.5 -112t-121 -74.5t-179 -27h-303zM663 750h-161l91 144h223z" />
    <glyph glyph-name="ucircumflex" unicode="&#xfb;" horiz-adv-x="1191" 
d="M443 -10q-106 0 -179.5 27t-120 74t-67.5 112t-21 140v357h165v-356q0 -117 66 -169.5t188 -52.5h242q121 0 188 53t67 169v356h165v-357q0 -75 -21.5 -139.5t-68.5 -112t-121 -74.5t-179 -27h-303zM854 750h-200l-68 76l-68 -76h-182l147 144h218z" />
    <glyph glyph-name="udieresis" unicode="&#xfc;" horiz-adv-x="1191" 
d="M443 -10q-106 0 -179.5 27t-120 74t-67.5 112t-21 140v357h165v-356q0 -117 66 -169.5t188 -52.5h242q121 0 188 53t67 169v356h165v-357q0 -75 -21.5 -139.5t-68.5 -112t-121 -74.5t-179 -27h-303zM379 857h167v-107h-167v107zM644 857h167v-107h-167v107z" />
    <glyph glyph-name="yacute" unicode="&#xfd;" horiz-adv-x="979" 
d="M407 230l-447 470h217l313 -329l313 329h216l-447 -469v-231h-165v230zM566 750h-161l91 144h223z" />
    <glyph glyph-name="thorn" unicode="&#xfe;" horiz-adv-x="1082" 
d="M70 701h165v-87h503q86 0 147.5 -16.5t100.5 -49.5t57.5 -82.5t18.5 -114.5q0 -57 -18 -104.5t-57 -81.5t-100 -53t-147 -19h-505v-93h-165v701zM235 478v-250h509q27 0 54 4.5t49 17.5t36 37.5t14 64.5q0 41 -14 65.5t-36 38t-49 18t-54 4.5h-509z" />
    <glyph glyph-name="ydieresis" unicode="&#xff;" horiz-adv-x="979" 
d="M407 230l-447 470h217l313 -329l313 329h216l-447 -469v-231h-165v230zM273 857h167v-107h-167v107zM538 857h167v-107h-167v107z" />
    <glyph glyph-name="Amacron" unicode="&#x100;" horiz-adv-x="1055" 
d="M1085 0h-190l-84 130h-571l-86 -130h-184l451 700h213zM322 257h408l-201 313zM292 851h470v-102h-470v102z" />
    <glyph glyph-name="amacron" unicode="&#x101;" horiz-adv-x="1055" 
d="M1085 0h-190l-84 130h-571l-86 -130h-184l451 700h213zM322 257h408l-201 313zM292 851h470v-102h-470v102z" />
    <glyph glyph-name="Abreve" unicode="&#x102;" horiz-adv-x="1055" 
d="M1085 0h-190l-84 130h-571l-86 -130h-184l451 700h213zM322 257h408l-201 313zM733 882q-7 -39 -26.5 -64.5t-47 -40.5t-61.5 -21t-71 -6q-39 0 -73 6t-61 21t-45.5 40.5t-26.5 64.5h97q9 -28 38 -35.5t71 -7.5t70 8.5t39 34.5h97z" />
    <glyph glyph-name="abreve" unicode="&#x103;" horiz-adv-x="1055" 
d="M1085 0h-190l-84 130h-571l-86 -130h-184l451 700h213zM322 257h408l-201 313zM733 882q-7 -39 -26.5 -64.5t-47 -40.5t-61.5 -21t-71 -6q-39 0 -73 6t-61 21t-45.5 40.5t-26.5 64.5h97q9 -28 38 -35.5t71 -7.5t70 8.5t39 34.5h97z" />
    <glyph glyph-name="Aogonek" unicode="&#x104;" horiz-adv-x="1055" 
d="M1085 0h-106q-55 -23 -77 -47t-22 -51q0 -20 15 -31.5t46 -11.5q11 0 27 2.5t32 8.5l5 -37q-29 -8 -61.5 -14t-72.5 -6q-54 0 -83.5 17t-29.5 52q0 39 37 70t100 48l-84 130h-571l-86 -130h-184l451 700h213zM322 257h408l-201 313z" />
    <glyph glyph-name="aogonek" unicode="&#x105;" horiz-adv-x="1055" 
d="M1085 0h-106q-55 -23 -77 -47t-22 -51q0 -20 15 -31.5t46 -11.5q11 0 27 2.5t32 8.5l5 -37q-29 -8 -61.5 -14t-72.5 -6q-54 0 -83.5 17t-29.5 52q0 39 37 70t100 48l-84 130h-571l-86 -130h-184l451 700h213zM322 257h408l-201 313z" />
    <glyph glyph-name="Cacute" unicode="&#x106;" horiz-adv-x="1139" 
d="M449 577q-123 0 -188.5 -59.5t-65.5 -169.5q0 -109 65.5 -167.5t188.5 -58.5h255q86 0 145 29t87 89h173q-13 -53 -41.5 -98.5t-74.5 -79t-110.5 -53t-148.5 -19.5h-316q-106 0 -179.5 29t-120 78t-67.5 113.5t-21 136.5t21 137.5t67.5 115.5t120 80t179.5 30h316
q82 0 145 -19t108.5 -51.5t74.5 -76.5t44 -95h-175q-30 55 -88 82t-139 27h-255zM633 750h-161l91 144h223z" />
    <glyph glyph-name="cacute" unicode="&#x107;" horiz-adv-x="1139" 
d="M449 577q-123 0 -188.5 -59.5t-65.5 -169.5q0 -109 65.5 -167.5t188.5 -58.5h255q86 0 145 29t87 89h173q-13 -53 -41.5 -98.5t-74.5 -79t-110.5 -53t-148.5 -19.5h-316q-106 0 -179.5 29t-120 78t-67.5 113.5t-21 136.5t21 137.5t67.5 115.5t120 80t179.5 30h316
q82 0 145 -19t108.5 -51.5t74.5 -76.5t44 -95h-175q-30 55 -88 82t-139 27h-255zM633 750h-161l91 144h223z" />
    <glyph glyph-name="Ccircumflex" unicode="&#x108;" horiz-adv-x="1139" 
d="M449 577q-123 0 -188.5 -59.5t-65.5 -169.5q0 -109 65.5 -167.5t188.5 -58.5h255q86 0 145 29t87 89h173q-13 -53 -41.5 -98.5t-74.5 -79t-110.5 -53t-148.5 -19.5h-316q-106 0 -179.5 29t-120 78t-67.5 113.5t-21 136.5t21 137.5t67.5 115.5t120 80t179.5 30h316
q82 0 145 -19t108.5 -51.5t74.5 -76.5t44 -95h-175q-30 55 -88 82t-139 27h-255zM834 750h-200l-68 76l-68 -76h-182l147 144h218z" />
    <glyph glyph-name="ccircumflex" unicode="&#x109;" horiz-adv-x="1139" 
d="M449 577q-123 0 -188.5 -59.5t-65.5 -169.5q0 -109 65.5 -167.5t188.5 -58.5h255q86 0 145 29t87 89h173q-13 -53 -41.5 -98.5t-74.5 -79t-110.5 -53t-148.5 -19.5h-316q-106 0 -179.5 29t-120 78t-67.5 113.5t-21 136.5t21 137.5t67.5 115.5t120 80t179.5 30h316
q82 0 145 -19t108.5 -51.5t74.5 -76.5t44 -95h-175q-30 55 -88 82t-139 27h-255zM834 750h-200l-68 76l-68 -76h-182l147 144h218z" />
    <glyph glyph-name="Cdotaccent" unicode="&#x10a;" horiz-adv-x="1139" 
d="M449 577q-123 0 -188.5 -59.5t-65.5 -169.5q0 -109 65.5 -167.5t188.5 -58.5h255q86 0 145 29t87 89h173q-13 -53 -41.5 -98.5t-74.5 -79t-110.5 -53t-148.5 -19.5h-316q-106 0 -179.5 29t-120 78t-67.5 113.5t-21 136.5t21 137.5t67.5 115.5t120 80t179.5 30h316
q82 0 145 -19t108.5 -51.5t74.5 -76.5t44 -95h-175q-30 55 -88 82t-139 27h-255zM486 857h167v-107h-167v107z" />
    <glyph glyph-name="cdotaccent" unicode="&#x10b;" horiz-adv-x="1139" 
d="M449 577q-123 0 -188.5 -59.5t-65.5 -169.5q0 -109 65.5 -167.5t188.5 -58.5h255q86 0 145 29t87 89h173q-13 -53 -41.5 -98.5t-74.5 -79t-110.5 -53t-148.5 -19.5h-316q-106 0 -179.5 29t-120 78t-67.5 113.5t-21 136.5t21 137.5t67.5 115.5t120 80t179.5 30h316
q82 0 145 -19t108.5 -51.5t74.5 -76.5t44 -95h-175q-30 55 -88 82t-139 27h-255zM486 857h167v-107h-167v107z" />
    <glyph glyph-name="Ccaron" unicode="&#x10c;" horiz-adv-x="1139" 
d="M449 577q-123 0 -188.5 -59.5t-65.5 -169.5q0 -109 65.5 -167.5t188.5 -58.5h255q86 0 145 29t87 89h173q-13 -53 -41.5 -98.5t-74.5 -79t-110.5 -53t-148.5 -19.5h-316q-106 0 -179.5 29t-120 78t-67.5 113.5t-21 136.5t21 137.5t67.5 115.5t120 80t179.5 30h316
q82 0 145 -19t108.5 -51.5t74.5 -76.5t44 -95h-175q-30 55 -88 82t-139 27h-255zM307 894h199l68 -76l68 76h183l-148 -144h-217z" />
    <glyph glyph-name="ccaron" unicode="&#x10d;" horiz-adv-x="1139" 
d="M449 577q-123 0 -188.5 -59.5t-65.5 -169.5q0 -109 65.5 -167.5t188.5 -58.5h255q86 0 145 29t87 89h173q-13 -53 -41.5 -98.5t-74.5 -79t-110.5 -53t-148.5 -19.5h-316q-106 0 -179.5 29t-120 78t-67.5 113.5t-21 136.5t21 137.5t67.5 115.5t120 80t179.5 30h316
q82 0 145 -19t108.5 -51.5t74.5 -76.5t44 -95h-175q-30 55 -88 82t-139 27h-255zM307 894h199l68 -76l68 76h183l-148 -144h-217z" />
    <glyph glyph-name="Dcaron" unicode="&#x10e;" horiz-adv-x="1181" 
d="M70 700h691q105 0 179 -28.5t121 -76.5t68.5 -112t21.5 -135t-21.5 -134.5t-68.5 -111t-121 -75t-179 -27.5h-691v700zM235 567v-435h496q121 0 188 54t67 163t-67 163.5t-188 54.5h-496zM303 894h199l68 -76l68 76h183l-148 -144h-217z" />
    <glyph glyph-name="dcaron" unicode="&#x10f;" horiz-adv-x="1181" 
d="M70 700h691q105 0 179 -28.5t121 -76.5t68.5 -112t21.5 -135t-21.5 -134.5t-68.5 -111t-121 -75t-179 -27.5h-691v700zM235 567v-435h496q121 0 188 54t67 163t-67 163.5t-188 54.5h-496zM303 894h199l68 -76l68 76h183l-148 -144h-217z" />
    <glyph glyph-name="Dcroat" unicode="&#x110;" horiz-adv-x="1181" 
d="M0 406h70v294h691q105 0 179 -28.5t121 -76.5t68.5 -112t21.5 -135t-21.5 -134.5t-68.5 -111t-121 -75t-179 -27.5h-691v292h-70v114zM235 567v-161h372v-114h-372v-160h496q121 0 188 54t67 163t-67 163.5t-188 54.5h-496z" />
    <glyph glyph-name="dcroat" unicode="&#x111;" horiz-adv-x="1181" 
d="M0 406h70v294h691q105 0 179 -28.5t121 -76.5t68.5 -112t21.5 -135t-21.5 -134.5t-68.5 -111t-121 -75t-179 -27.5h-691v292h-70v114zM235 567v-161h372v-114h-372v-160h496q121 0 188 54t67 163t-67 163.5t-188 54.5h-496z" />
    <glyph glyph-name="Emacron" unicode="&#x112;" horiz-adv-x="1070" 
d="M235 565v-150h748v-130h-748v-150h810v-135h-975v700h975v-135h-810zM315 851h470v-102h-470v102z" />
    <glyph glyph-name="emacron" unicode="&#x113;" horiz-adv-x="1070" 
d="M235 565v-150h748v-130h-748v-150h810v-135h-975v700h975v-135h-810zM315 851h470v-102h-470v102z" />
    <glyph glyph-name="Edotaccent" unicode="&#x116;" horiz-adv-x="1070" 
d="M235 565v-150h748v-130h-748v-150h810v-135h-975v700h975v-135h-810zM498 857h167v-107h-167v107z" />
    <glyph glyph-name="edotaccent" unicode="&#x117;" horiz-adv-x="1070" 
d="M235 565v-150h748v-130h-748v-150h810v-135h-975v700h975v-135h-810zM498 857h167v-107h-167v107z" />
    <glyph glyph-name="Eogonek" unicode="&#x118;" horiz-adv-x="1070" 
d="M235 565v-150h748v-130h-748v-150h810v-135h-134q-48 -25 -73.5 -48t-25.5 -50q0 -20 14.5 -31.5t46.5 -11.5q11 0 27 2.5t32 8.5l5 -37q-29 -8 -62 -14t-73 -6q-54 0 -83 17t-29 52q0 39 37 70t100 48h-757v700h975v-135h-810z" />
    <glyph glyph-name="eogonek" unicode="&#x119;" horiz-adv-x="1070" 
d="M235 565v-150h748v-130h-748v-150h810v-135h-134q-48 -25 -73.5 -48t-25.5 -50q0 -20 14.5 -31.5t46.5 -11.5q11 0 27 2.5t32 8.5l5 -37q-29 -8 -62 -14t-73 -6q-54 0 -83 17t-29 52q0 39 37 70t100 48h-757v700h975v-135h-810z" />
    <glyph glyph-name="Ecaron" unicode="&#x11a;" horiz-adv-x="1070" 
d="M235 565v-150h748v-130h-748v-150h810v-135h-975v700h975v-135h-810zM314 894h199l68 -76l68 76h183l-148 -144h-217z" />
    <glyph glyph-name="ecaron" unicode="&#x11b;" horiz-adv-x="1070" 
d="M235 565v-150h748v-130h-748v-150h810v-135h-975v700h975v-135h-810zM314 894h199l68 -76l68 76h183l-148 -144h-217z" />
    <glyph glyph-name="Gcircumflex" unicode="&#x11c;" horiz-adv-x="1173" 
d="M449 577q-123 0 -188.5 -61t-65.5 -170q0 -110 65.5 -167t188.5 -57h285q40 0 72 4.5t58 18.5t47 41.5t38 73.5h-406v114h575v-374h-117l-30 103q-8 -21 -24 -41.5t-41.5 -36.5t-61.5 -25.5t-85 -9.5h-341q-106 0 -179.5 28.5t-120 77.5t-67.5 113t-21 136t21 138
t67.5 116.5t120 80.5t179.5 30h316q80 0 142.5 -18t108 -49.5t75 -74t44.5 -91.5h-179q-27 50 -85.5 75t-135.5 25h-255zM845 750h-200l-68 76l-68 -76h-182l147 144h218z" />
    <glyph glyph-name="gcircumflex" unicode="&#x11d;" horiz-adv-x="1173" 
d="M449 577q-123 0 -188.5 -61t-65.5 -170q0 -110 65.5 -167t188.5 -57h285q40 0 72 4.5t58 18.5t47 41.5t38 73.5h-406v114h575v-374h-117l-30 103q-8 -21 -24 -41.5t-41.5 -36.5t-61.5 -25.5t-85 -9.5h-341q-106 0 -179.5 28.5t-120 77.5t-67.5 113t-21 136t21 138
t67.5 116.5t120 80.5t179.5 30h316q80 0 142.5 -18t108 -49.5t75 -74t44.5 -91.5h-179q-27 50 -85.5 75t-135.5 25h-255zM845 750h-200l-68 76l-68 -76h-182l147 144h218z" />
    <glyph glyph-name="Gbreve" unicode="&#x11e;" horiz-adv-x="1173" 
d="M449 577q-123 0 -188.5 -61t-65.5 -170q0 -110 65.5 -167t188.5 -57h285q40 0 72 4.5t58 18.5t47 41.5t38 73.5h-406v114h575v-374h-117l-30 103q-8 -21 -24 -41.5t-41.5 -36.5t-61.5 -25.5t-85 -9.5h-341q-106 0 -179.5 28.5t-120 77.5t-67.5 113t-21 136t21 138
t67.5 116.5t120 80.5t179.5 30h316q80 0 142.5 -18t108 -49.5t75 -74t44.5 -91.5h-179q-27 50 -85.5 75t-135.5 25h-255zM792 882q-7 -39 -26.5 -64.5t-47 -40.5t-61.5 -21t-71 -6q-39 0 -73 6t-61 21t-45.5 40.5t-26.5 64.5h97q9 -28 38 -35.5t71 -7.5t70 8.5t39 34.5h97z
" />
    <glyph glyph-name="gbreve" unicode="&#x11f;" horiz-adv-x="1173" 
d="M449 577q-123 0 -188.5 -61t-65.5 -170q0 -110 65.5 -167t188.5 -57h285q40 0 72 4.5t58 18.5t47 41.5t38 73.5h-406v114h575v-374h-117l-30 103q-8 -21 -24 -41.5t-41.5 -36.5t-61.5 -25.5t-85 -9.5h-341q-106 0 -179.5 28.5t-120 77.5t-67.5 113t-21 136t21 138
t67.5 116.5t120 80.5t179.5 30h316q80 0 142.5 -18t108 -49.5t75 -74t44.5 -91.5h-179q-27 50 -85.5 75t-135.5 25h-255zM792 882q-7 -39 -26.5 -64.5t-47 -40.5t-61.5 -21t-71 -6q-39 0 -73 6t-61 21t-45.5 40.5t-26.5 64.5h97q9 -28 38 -35.5t71 -7.5t70 8.5t39 34.5h97z
" />
    <glyph glyph-name="Gdotaccent" unicode="&#x120;" horiz-adv-x="1173" 
d="M449 577q-123 0 -188.5 -61t-65.5 -170q0 -110 65.5 -167t188.5 -57h285q40 0 72 4.5t58 18.5t47 41.5t38 73.5h-406v114h575v-374h-117l-30 103q-8 -21 -24 -41.5t-41.5 -36.5t-61.5 -25.5t-85 -9.5h-341q-106 0 -179.5 28.5t-120 77.5t-67.5 113t-21 136t21 138
t67.5 116.5t120 80.5t179.5 30h316q80 0 142.5 -18t108 -49.5t75 -74t44.5 -91.5h-179q-27 50 -85.5 75t-135.5 25h-255zM502 857h167v-107h-167v107z" />
    <glyph glyph-name="gdotaccent" unicode="&#x121;" horiz-adv-x="1173" 
d="M449 577q-123 0 -188.5 -61t-65.5 -170q0 -110 65.5 -167t188.5 -57h285q40 0 72 4.5t58 18.5t47 41.5t38 73.5h-406v114h575v-374h-117l-30 103q-8 -21 -24 -41.5t-41.5 -36.5t-61.5 -25.5t-85 -9.5h-341q-106 0 -179.5 28.5t-120 77.5t-67.5 113t-21 136t21 138
t67.5 116.5t120 80.5t179.5 30h316q80 0 142.5 -18t108 -49.5t75 -74t44.5 -91.5h-179q-27 50 -85.5 75t-135.5 25h-255zM502 857h167v-107h-167v107z" />
    <glyph glyph-name="Gcommaaccent" unicode="&#x122;" horiz-adv-x="1173" 
d="M510 -62h165v-130q0 -51 -14.5 -81.5t-38 -47t-53 -22t-59.5 -5.5v58q21 0 37 4t27 14t16.5 28t5.5 47h-86v135zM449 577q-123 0 -188.5 -61t-65.5 -170q0 -110 65.5 -167t188.5 -57h285q40 0 72 4.5t58 18.5t47 41.5t38 73.5h-406v114h575v-374h-117l-30 103
q-8 -21 -24 -41.5t-41.5 -36.5t-61.5 -25.5t-85 -9.5h-341q-106 0 -179.5 28.5t-120 77.5t-67.5 113t-21 136t21 138t67.5 116.5t120 80.5t179.5 30h316q80 0 142.5 -18t108 -49.5t75 -74t44.5 -91.5h-179q-27 50 -85.5 75t-135.5 25h-255z" />
    <glyph glyph-name="gcommaaccent" unicode="&#x123;" horiz-adv-x="1173" 
d="M510 -62h165v-130q0 -51 -14.5 -81.5t-38 -47t-53 -22t-59.5 -5.5v58q21 0 37 4t27 14t16.5 28t5.5 47h-86v135zM449 577q-123 0 -188.5 -61t-65.5 -170q0 -110 65.5 -167t188.5 -57h285q40 0 72 4.5t58 18.5t47 41.5t38 73.5h-406v114h575v-374h-117l-30 103
q-8 -21 -24 -41.5t-41.5 -36.5t-61.5 -25.5t-85 -9.5h-341q-106 0 -179.5 28.5t-120 77.5t-67.5 113t-21 136t21 138t67.5 116.5t120 80.5t179.5 30h316q80 0 142.5 -18t108 -49.5t75 -74t44.5 -91.5h-179q-27 50 -85.5 75t-135.5 25h-255z" />
    <glyph glyph-name="Hcircumflex" unicode="&#x124;" horiz-adv-x="1224" 
d="M989 286h-754v-286h-165v700h165v-279h754v279h165v-700h-165v286zM871 750h-200l-68 76l-68 -76h-182l147 144h218z" />
    <glyph glyph-name="hcircumflex" unicode="&#x125;" horiz-adv-x="1224" 
d="M989 286h-754v-286h-165v700h165v-279h754v279h165v-700h-165v286zM871 750h-200l-68 76l-68 -76h-182l147 144h218z" />
    <glyph glyph-name="Hbar" unicode="&#x126;" horiz-adv-x="1224" 
d="M0 603h70v97h165v-97h754v97h165v-97h70v-62h-70v-541h-165v286h-754v-286h-165v541h-70v62zM989 421v120h-754v-120h754z" />
    <glyph glyph-name="hbar" unicode="&#x127;" horiz-adv-x="1224" 
d="M0 603h70v97h165v-97h754v97h165v-97h70v-62h-70v-541h-165v286h-754v-286h-165v541h-70v62zM989 421v120h-754v-120h754z" />
    <glyph glyph-name="Itilde" unicode="&#x128;" 
d="M70 700h165v-700h-165v700zM390 903q-7 -44 -19.5 -71.5t-29 -44t-36 -22.5t-41.5 -6q-20 0 -53.5 7.5t-68 16.5t-62.5 16.5t-37 7.5q-20 0 -29.5 -10t-15.5 -37h-84q10 47 26.5 75t35.5 43t39.5 20t38.5 5q10 0 40 -7.5t64 -16.5t64.5 -16.5t43.5 -7.5q14 0 25 8t18 40
h81z" />
    <glyph glyph-name="itilde" unicode="&#x129;" 
d="M70 700h165v-700h-165v700zM390 903q-7 -44 -19.5 -71.5t-29 -44t-36 -22.5t-41.5 -6q-20 0 -53.5 7.5t-68 16.5t-62.5 16.5t-37 7.5q-20 0 -29.5 -10t-15.5 -37h-84q10 47 26.5 75t35.5 43t39.5 20t38.5 5q10 0 40 -7.5t64 -16.5t64.5 -16.5t43.5 -7.5q14 0 25 8t18 40
h81z" />
    <glyph glyph-name="Imacron" unicode="&#x12a;" 
d="M70 700h165v-700h-165v700zM-83 851h470v-102h-470v102z" />
    <glyph glyph-name="imacron" unicode="&#x12b;" 
d="M70 700h165v-700h-165v700zM-83 851h470v-102h-470v102z" />
    <glyph glyph-name="Iogonek" unicode="&#x12e;" 
d="M70 700h165v-700h-31q-48 -25 -73.5 -48t-25.5 -50q0 -20 15 -31.5t46 -11.5q11 0 27 2.5t32 8.5l5 -37q-29 -8 -61.5 -14t-72.5 -6q-54 0 -83.5 17t-29.5 52q0 39 37 70t100 48h-50v700z" />
    <glyph glyph-name="iogonek" unicode="&#x12f;" 
d="M70 700h165v-700h-31q-48 -25 -73.5 -48t-25.5 -50q0 -20 15 -31.5t46 -11.5q11 0 27 2.5t32 8.5l5 -37q-29 -8 -61.5 -14t-72.5 -6q-54 0 -83.5 17t-29.5 52q0 39 37 70t100 48h-50v700z" />
    <glyph glyph-name="Idotaccent" unicode="&#x130;" 
d="M70 700h165v-700h-165v700zM69 857h167v-107h-167v107z" />
    <glyph glyph-name="dotlessi" unicode="&#x131;" 
d="M70 700h165v-700h-165v700z" />
    <glyph glyph-name="Jcircumflex" unicode="&#x134;" horiz-adv-x="1016" 
d="M409 -10q-97 0 -166.5 22.5t-116 63t-71 96.5t-30.5 123h166q15 -90 76.5 -131.5t171.5 -41.5h102q121 0 188 53t67 169v356h165v-357q0 -75 -21.5 -139.5t-68.5 -112t-121 -74.5t-179 -27h-162zM1139 750h-200l-68 76l-68 -76h-182l147 144h218z" />
    <glyph glyph-name="jcircumflex" unicode="&#x135;" horiz-adv-x="1016" 
d="M409 -10q-97 0 -166.5 22.5t-116 63t-71 96.5t-30.5 123h166q15 -90 76.5 -131.5t171.5 -41.5h102q121 0 188 53t67 169v356h165v-357q0 -75 -21.5 -139.5t-68.5 -112t-121 -74.5t-179 -27h-162zM1139 750h-200l-68 76l-68 -76h-182l147 144h218z" />
    <glyph glyph-name="Kcommaaccent" unicode="&#x136;" horiz-adv-x="947" 
d="M934 700l-541 -318l589 -382h-276l-476 311v-311h-160v700h160v-255l433 255h271zM356 -62h165v-130q0 -51 -14.5 -81.5t-38 -47t-53 -22t-59.5 -5.5v58q21 0 37 4t27 14t16.5 28t5.5 47h-86v135z" />
    <glyph glyph-name="kcommaaccent" unicode="&#x137;" horiz-adv-x="947" 
d="M934 700l-541 -318l589 -382h-276l-476 311v-311h-160v700h160v-255l433 255h271zM356 -62h165v-130q0 -51 -14.5 -81.5t-38 -47t-53 -22t-59.5 -5.5v58q21 0 37 4t27 14t16.5 28t5.5 47h-86v135z" />
    <glyph glyph-name="kgreenlandic" unicode="&#x138;" horiz-adv-x="947" 
d="M934 700l-541 -318l589 -382h-276l-476 311v-311h-160v700h160v-255l433 255h271z" />
    <glyph glyph-name="Lacute" unicode="&#x139;" horiz-adv-x="1015" 
d="M1005 135v-135h-935v700h165v-565h770zM222 750h-161l91 144h223z" />
    <glyph glyph-name="lacute" unicode="&#x13a;" horiz-adv-x="1015" 
d="M1005 135v-135h-935v700h165v-565h770zM222 750h-161l91 144h223z" />
    <glyph glyph-name="Lcommaaccent" unicode="&#x13b;" horiz-adv-x="1015" 
d="M1005 135v-135h-935v700h165v-565h770zM476 -62h165v-130q0 -51 -14.5 -81.5t-38 -47t-53 -22t-59.5 -5.5v58q21 0 37 4t27 14t16.5 28t5.5 47h-86v135z" />
    <glyph glyph-name="lcommaaccent" unicode="&#x13c;" horiz-adv-x="1015" 
d="M1005 135v-135h-935v700h165v-565h770zM476 -62h165v-130q0 -51 -14.5 -81.5t-38 -47t-53 -22t-59.5 -5.5v58q21 0 37 4t27 14t16.5 28t5.5 47h-86v135z" />
    <glyph glyph-name="Lcaron" unicode="&#x13d;" horiz-adv-x="1015" 
d="M1005 135v-135h-935v700h165v-565h770zM742 750h165v-130q0 -51 -14.5 -81.5t-38 -47t-53 -22t-59.5 -5.5v58q21 0 37.5 4t27 14t16 28t5.5 47h-86v135z" />
    <glyph glyph-name="lcaron" unicode="&#x13e;" horiz-adv-x="1015" 
d="M1005 135v-135h-935v700h165v-565h770zM742 750h165v-130q0 -51 -14.5 -81.5t-38 -47t-53 -22t-59.5 -5.5v58q21 0 37.5 4t27 14t16 28t5.5 47h-86v135z" />
    <glyph glyph-name="Lslash" unicode="&#x141;" horiz-adv-x="1015" 
d="M0 371l70 18v311h165v-267l165 44v-124l-165 -44v-174h770v-135h-935v265l-70 -18v124z" />
    <glyph glyph-name="lslash" unicode="&#x142;" horiz-adv-x="1015" 
d="M0 371l70 18v311h165v-267l165 44v-124l-165 -44v-174h770v-135h-935v265l-70 -18v124z" />
    <glyph glyph-name="Nacute" unicode="&#x143;" horiz-adv-x="1155" 
d="M1085 0h-185l-665 526v-526h-165v701h201l649 -514v513h165v-700zM672 750h-161l91 144h223z" />
    <glyph glyph-name="nacute" unicode="&#x144;" horiz-adv-x="1155" 
d="M1085 0h-185l-665 526v-526h-165v701h201l649 -514v513h165v-700zM672 750h-161l91 144h223z" />
    <glyph glyph-name="Ncommaaccent" unicode="&#x145;" horiz-adv-x="1155" 
d="M1085 0h-185l-665 526v-526h-165v701h201l649 -514v513h165v-700zM485 -62h165v-130q0 -51 -14.5 -81.5t-38 -47t-53 -22t-59.5 -5.5v58q21 0 37 4t27 14t16.5 28t5.5 47h-86v135z" />
    <glyph glyph-name="ncommaaccent" unicode="&#x146;" horiz-adv-x="1155" 
d="M1085 0h-185l-665 526v-526h-165v701h201l649 -514v513h165v-700zM485 -62h165v-130q0 -51 -14.5 -81.5t-38 -47t-53 -22t-59.5 -5.5v58q21 0 37 4t27 14t16.5 28t5.5 47h-86v135z" />
    <glyph glyph-name="Ncaron" unicode="&#x147;" horiz-adv-x="1155" 
d="M1085 0h-185l-665 526v-526h-165v701h201l649 -514v513h165v-700zM348 894h199l68 -76l68 76h183l-148 -144h-217z" />
    <glyph glyph-name="ncaron" unicode="&#x148;" horiz-adv-x="1155" 
d="M1085 0h-185l-665 526v-526h-165v701h201l649 -514v513h165v-700zM348 894h199l68 -76l68 76h183l-148 -144h-217z" />
    <glyph glyph-name="Eng" unicode="&#x14a;" horiz-adv-x="1155" 
d="M582 -67h83q70 0 125 19t87 65l-642 509v-526h-165v701h201l647 -513q1 20 1.5 40t0.5 41v431h165v-546q0 -75 -21.5 -139.5t-68.5 -112t-121 -74.5t-179 -27h-113v132z" />
    <glyph glyph-name="eng" unicode="&#x14b;" horiz-adv-x="1155" 
d="M582 -67h83q70 0 125 19t87 65l-642 509v-526h-165v701h201l647 -513q1 20 1.5 40t0.5 41v431h165v-546q0 -75 -21.5 -139.5t-68.5 -112t-121 -74.5t-179 -27h-113v132z" />
    <glyph glyph-name="Omacron" unicode="&#x14c;" horiz-adv-x="1195" 
d="M418 -10q-106 0 -179.5 29t-120 78.5t-67.5 114t-21 136.5t21 137.5t67.5 115.5t120 79.5t179.5 29.5h357q105 0 179 -30t121 -80t68.5 -115.5t21.5 -136.5t-21.5 -136t-68.5 -114.5t-121 -78.5t-179 -29h-357zM449 577q-123 0 -188.5 -59.5t-65.5 -168.5
q0 -110 65.5 -168.5t188.5 -58.5h296q121 0 188 59t67 168t-67 168.5t-188 59.5h-296zM362 851h470v-102h-470v102z" />
    <glyph glyph-name="omacron" unicode="&#x14d;" horiz-adv-x="1195" 
d="M418 -10q-106 0 -179.5 29t-120 78.5t-67.5 114t-21 136.5t21 137.5t67.5 115.5t120 79.5t179.5 29.5h357q105 0 179 -30t121 -80t68.5 -115.5t21.5 -136.5t-21.5 -136t-68.5 -114.5t-121 -78.5t-179 -29h-357zM449 577q-123 0 -188.5 -59.5t-65.5 -168.5
q0 -110 65.5 -168.5t188.5 -58.5h296q121 0 188 59t67 168t-67 168.5t-188 59.5h-296zM362 851h470v-102h-470v102z" />
    <glyph glyph-name="Ohungarumlaut" unicode="&#x150;" horiz-adv-x="1195" 
d="M418 -10q-106 0 -179.5 29t-120 78.5t-67.5 114t-21 136.5t21 137.5t67.5 115.5t120 79.5t179.5 29.5h357q105 0 179 -30t121 -80t68.5 -115.5t21.5 -136.5t-21.5 -136t-68.5 -114.5t-121 -78.5t-179 -29h-357zM449 577q-123 0 -188.5 -59.5t-65.5 -168.5
q0 -110 65.5 -168.5t188.5 -58.5h296q121 0 188 59t67 168t-67 168.5t-188 59.5h-296zM510 750h-161l91 144h223zM789 750h-161l91 144h223z" />
    <glyph glyph-name="ohungarumlaut" unicode="&#x151;" horiz-adv-x="1195" 
d="M418 -10q-106 0 -179.5 29t-120 78.5t-67.5 114t-21 136.5t21 137.5t67.5 115.5t120 79.5t179.5 29.5h357q105 0 179 -30t121 -80t68.5 -115.5t21.5 -136.5t-21.5 -136t-68.5 -114.5t-121 -78.5t-179 -29h-357zM449 577q-123 0 -188.5 -59.5t-65.5 -168.5
q0 -110 65.5 -168.5t188.5 -58.5h296q121 0 188 59t67 168t-67 168.5t-188 59.5h-296zM510 750h-161l91 144h223zM789 750h-161l91 144h223z" />
    <glyph glyph-name="OE" unicode="&#x152;" horiz-adv-x="2001" 
d="M1166 565v-150h748v-130h-748v-150h810v-135h-975v54q-41 -30 -96 -47t-130 -17h-357q-106 0 -179.5 29t-120 78.5t-67.5 114t-21 136.5t21 137.5t67.5 115.5t120 79.5t179.5 29.5h357q75 0 130 -18t96 -48v56h975v-135h-810zM449 577q-123 0 -188.5 -59.5t-65.5 -168.5
q0 -110 65.5 -168.5t188.5 -58.5h296q121 0 188 59t67 168t-67 168.5t-188 59.5h-296z" />
    <glyph glyph-name="oe" unicode="&#x153;" horiz-adv-x="2001" 
d="M1166 565v-150h748v-130h-748v-150h810v-135h-975v54q-41 -30 -96 -47t-130 -17h-357q-106 0 -179.5 29t-120 78.5t-67.5 114t-21 136.5t21 137.5t67.5 115.5t120 79.5t179.5 29.5h357q75 0 130 -18t96 -48v56h975v-135h-810zM449 577q-123 0 -188.5 -59.5t-65.5 -168.5
q0 -110 65.5 -168.5t188.5 -58.5h296q121 0 188 59t67 168t-67 168.5t-188 59.5h-296z" />
    <glyph glyph-name="Racute" unicode="&#x154;" horiz-adv-x="1104" 
d="M611 750h-161l91 144h223zM943 336q35 -14 58.5 -31.5t38 -39t21 -45.5t7.5 -49q1 -31 2.5 -55.5t5 -44.5t10 -37.5t18.5 -33.5h-164q-18 21 -23 48.5t-7 59.5q-2 29 -10 55.5t-24.5 47t-42 32.5t-61.5 12h-536v-255h-166v700h692q66 0 120 -7.5t93 -29t60 -59.5t21 -99
q0 -24 -6 -49.5t-19 -48.5t-35 -41.5t-53 -29.5zM236 380h477q31 0 63.5 2t58.5 10.5t42.5 27t16.5 51.5q0 35 -17 54t-43.5 28t-59 10.5t-63.5 1.5h-475v-185z" />
    <glyph glyph-name="racute" unicode="&#x155;" horiz-adv-x="1104" 
d="M611 750h-161l91 144h223zM943 336q35 -14 58.5 -31.5t38 -39t21 -45.5t7.5 -49q1 -31 2.5 -55.5t5 -44.5t10 -37.5t18.5 -33.5h-164q-18 21 -23 48.5t-7 59.5q-2 29 -10 55.5t-24.5 47t-42 32.5t-61.5 12h-536v-255h-166v700h692q66 0 120 -7.5t93 -29t60 -59.5t21 -99
q0 -24 -6 -49.5t-19 -48.5t-35 -41.5t-53 -29.5zM236 380h477q31 0 63.5 2t58.5 10.5t42.5 27t16.5 51.5q0 35 -17 54t-43.5 28t-59 10.5t-63.5 1.5h-475v-185z" />
    <glyph glyph-name="Rcommaaccent" unicode="&#x156;" horiz-adv-x="1104" 
d="M489 -62h165v-130q0 -51 -14.5 -81.5t-38 -47t-53 -22t-59.5 -5.5v58q21 0 37.5 4t27 14t16 28t5.5 47h-86v135zM943 336q35 -14 58.5 -31.5t38 -39t21 -45.5t7.5 -49q1 -31 2.5 -55.5t5 -44.5t10 -37.5t18.5 -33.5h-164q-18 21 -23 48.5t-7 59.5q-2 29 -10 55.5
t-24.5 47t-42 32.5t-61.5 12h-536v-255h-166v700h692q66 0 120 -7.5t93 -29t60 -59.5t21 -99q0 -24 -6 -49.5t-19 -48.5t-35 -41.5t-53 -29.5zM236 380h477q31 0 63.5 2t58.5 10.5t42.5 27t16.5 51.5q0 35 -17 54t-43.5 28t-59 10.5t-63.5 1.5h-475v-185z" />
    <glyph glyph-name="rcommaaccent" unicode="&#x157;" horiz-adv-x="1104" 
d="M489 -62h165v-130q0 -51 -14.5 -81.5t-38 -47t-53 -22t-59.5 -5.5v58q21 0 37.5 4t27 14t16 28t5.5 47h-86v135zM943 336q35 -14 58.5 -31.5t38 -39t21 -45.5t7.5 -49q1 -31 2.5 -55.5t5 -44.5t10 -37.5t18.5 -33.5h-164q-18 21 -23 48.5t-7 59.5q-2 29 -10 55.5
t-24.5 47t-42 32.5t-61.5 12h-536v-255h-166v700h692q66 0 120 -7.5t93 -29t60 -59.5t21 -99q0 -24 -6 -49.5t-19 -48.5t-35 -41.5t-53 -29.5zM236 380h477q31 0 63.5 2t58.5 10.5t42.5 27t16.5 51.5q0 35 -17 54t-43.5 28t-59 10.5t-63.5 1.5h-475v-185z" />
    <glyph glyph-name="Rcaron" unicode="&#x158;" horiz-adv-x="1104" 
d="M293 894h199l68 -76l68 76h183l-148 -144h-217zM943 336q35 -14 58.5 -31.5t38 -39t21 -45.5t7.5 -49q1 -31 2.5 -55.5t5 -44.5t10 -37.5t18.5 -33.5h-164q-18 21 -23 48.5t-7 59.5q-2 29 -10 55.5t-24.5 47t-42 32.5t-61.5 12h-536v-255h-166v700h692q66 0 120 -7.5
t93 -29t60 -59.5t21 -99q0 -24 -6 -49.5t-19 -48.5t-35 -41.5t-53 -29.5zM236 380h477q31 0 63.5 2t58.5 10.5t42.5 27t16.5 51.5q0 35 -17 54t-43.5 28t-59 10.5t-63.5 1.5h-475v-185z" />
    <glyph glyph-name="rcaron" unicode="&#x159;" horiz-adv-x="1104" 
d="M293 894h199l68 -76l68 76h183l-148 -144h-217zM943 336q35 -14 58.5 -31.5t38 -39t21 -45.5t7.5 -49q1 -31 2.5 -55.5t5 -44.5t10 -37.5t18.5 -33.5h-164q-18 21 -23 48.5t-7 59.5q-2 29 -10 55.5t-24.5 47t-42 32.5t-61.5 12h-536v-255h-166v700h692q66 0 120 -7.5
t93 -29t60 -59.5t21 -99q0 -24 -6 -49.5t-19 -48.5t-35 -41.5t-53 -29.5zM236 380h477q31 0 63.5 2t58.5 10.5t42.5 27t16.5 51.5q0 35 -17 54t-43.5 28t-59 10.5t-63.5 1.5h-475v-185z" />
    <glyph glyph-name="Sacute" unicode="&#x15a;" horiz-adv-x="1082" 
d="M701 133q51 0 86.5 3t58.5 11.5t33.5 24t10.5 39.5t-10.5 38.5t-33 22.5t-58.5 10.5t-87 2.5h-355q-83 0 -140.5 14t-93.5 40.5t-52.5 63.5t-16.5 84q0 51 16.5 90.5t52.5 66.5t93.5 41.5t140.5 14.5h407q79 0 130.5 -16t83.5 -45.5t48.5 -70t25.5 -89.5h-169
q-9 23 -20 39.5t-27.5 27t-41 15.5t-60.5 5h-323q-51 0 -87 -3t-59 -11t-33.5 -23.5t-10.5 -39.5t10.5 -38.5t33.5 -22.5t58.5 -10.5t86.5 -2.5h356q82 0 139.5 -14.5t93.5 -40.5t52.5 -64t16.5 -84q0 -50 -16.5 -89.5t-52.5 -66.5t-94 -41.5t-140 -14.5h-446
q-79 0 -130.5 16t-83.5 45t-48.5 69.5t-25.5 90.5h169q9 -23 20 -39.5t27.5 -27.5t41 -16t60.5 -5h363zM624 750h-161l91 144h223z" />
    <glyph glyph-name="sacute" unicode="&#x15b;" horiz-adv-x="1082" 
d="M701 133q51 0 86.5 3t58.5 11.5t33.5 24t10.5 39.5t-10.5 38.5t-33 22.5t-58.5 10.5t-87 2.5h-355q-83 0 -140.5 14t-93.5 40.5t-52.5 63.5t-16.5 84q0 51 16.5 90.5t52.5 66.5t93.5 41.5t140.5 14.5h407q79 0 130.5 -16t83.5 -45.5t48.5 -70t25.5 -89.5h-169
q-9 23 -20 39.5t-27.5 27t-41 15.5t-60.5 5h-323q-51 0 -87 -3t-59 -11t-33.5 -23.5t-10.5 -39.5t10.5 -38.5t33.5 -22.5t58.5 -10.5t86.5 -2.5h356q82 0 139.5 -14.5t93.5 -40.5t52.5 -64t16.5 -84q0 -50 -16.5 -89.5t-52.5 -66.5t-94 -41.5t-140 -14.5h-446
q-79 0 -130.5 16t-83.5 45t-48.5 69.5t-25.5 90.5h169q9 -23 20 -39.5t27.5 -27.5t41 -16t60.5 -5h363zM624 750h-161l91 144h223z" />
    <glyph glyph-name="Scircumflex" unicode="&#x15c;" horiz-adv-x="1082" 
d="M701 133q51 0 86.5 3t58.5 11.5t33.5 24t10.5 39.5t-10.5 38.5t-33 22.5t-58.5 10.5t-87 2.5h-355q-83 0 -140.5 14t-93.5 40.5t-52.5 63.5t-16.5 84q0 51 16.5 90.5t52.5 66.5t93.5 41.5t140.5 14.5h407q79 0 130.5 -16t83.5 -45.5t48.5 -70t25.5 -89.5h-169
q-9 23 -20 39.5t-27.5 27t-41 15.5t-60.5 5h-323q-51 0 -87 -3t-59 -11t-33.5 -23.5t-10.5 -39.5t10.5 -38.5t33.5 -22.5t58.5 -10.5t86.5 -2.5h356q82 0 139.5 -14.5t93.5 -40.5t52.5 -64t16.5 -84q0 -50 -16.5 -89.5t-52.5 -66.5t-94 -41.5t-140 -14.5h-446
q-79 0 -130.5 16t-83.5 45t-48.5 69.5t-25.5 90.5h169q9 -23 20 -39.5t27.5 -27.5t41 -16t60.5 -5h363zM800 750h-200l-68 76l-68 -76h-182l147 144h218z" />
    <glyph glyph-name="scircumflex" unicode="&#x15d;" horiz-adv-x="1082" 
d="M701 133q51 0 86.5 3t58.5 11.5t33.5 24t10.5 39.5t-10.5 38.5t-33 22.5t-58.5 10.5t-87 2.5h-355q-83 0 -140.5 14t-93.5 40.5t-52.5 63.5t-16.5 84q0 51 16.5 90.5t52.5 66.5t93.5 41.5t140.5 14.5h407q79 0 130.5 -16t83.5 -45.5t48.5 -70t25.5 -89.5h-169
q-9 23 -20 39.5t-27.5 27t-41 15.5t-60.5 5h-323q-51 0 -87 -3t-59 -11t-33.5 -23.5t-10.5 -39.5t10.5 -38.5t33.5 -22.5t58.5 -10.5t86.5 -2.5h356q82 0 139.5 -14.5t93.5 -40.5t52.5 -64t16.5 -84q0 -50 -16.5 -89.5t-52.5 -66.5t-94 -41.5t-140 -14.5h-446
q-79 0 -130.5 16t-83.5 45t-48.5 69.5t-25.5 90.5h169q9 -23 20 -39.5t27.5 -27.5t41 -16t60.5 -5h363zM800 750h-200l-68 76l-68 -76h-182l147 144h218z" />
    <glyph glyph-name="Scedilla" unicode="&#x15e;" horiz-adv-x="1082" 
d="M432 -124q19 -5 39 -8t44 -3q32 0 54.5 8t22.5 25q0 11 -11 18.5t-29 7.5q-16 0 -32.5 -5.5t-27.5 -14.5l-19 14l57 82h-222q-79 0 -130.5 16t-83.5 45t-48.5 69.5t-25.5 90.5h169q9 -23 20 -39.5t27.5 -27.5t41 -16t60.5 -5h363q51 0 86.5 3t58.5 11.5t33.5 24
t10.5 39.5t-10.5 38.5t-33 22.5t-58.5 10.5t-87 2.5h-355q-83 0 -140.5 14t-93.5 40.5t-52.5 63.5t-16.5 84q0 51 16.5 90.5t52.5 66.5t93.5 41.5t140.5 14.5h407q79 0 130.5 -16t83.5 -45.5t48.5 -70t25.5 -89.5h-169q-9 23 -20 39.5t-27.5 27t-41 15.5t-60.5 5h-323
q-51 0 -87 -3t-59 -11t-33.5 -23.5t-10.5 -39.5t10.5 -38.5t33.5 -22.5t58.5 -10.5t86.5 -2.5h356q82 0 139.5 -14.5t93.5 -40.5t52.5 -64t16.5 -84q0 -50 -16.5 -89.5t-52.5 -66.5t-94 -41.5t-140 -14.5h-168l-28 -39q21 6 46 6q46 0 77 -17t31 -56q0 -22 -11 -37
t-29.5 -24t-43 -12.5t-51.5 -3.5q-46 0 -88.5 7.5t-68.5 15.5z" />
    <glyph glyph-name="scedilla" unicode="&#x15f;" horiz-adv-x="1082" 
d="M432 -124q19 -5 39 -8t44 -3q32 0 54.5 8t22.5 25q0 11 -11 18.5t-29 7.5q-16 0 -32.5 -5.5t-27.5 -14.5l-19 14l57 82h-222q-79 0 -130.5 16t-83.5 45t-48.5 69.5t-25.5 90.5h169q9 -23 20 -39.5t27.5 -27.5t41 -16t60.5 -5h363q51 0 86.5 3t58.5 11.5t33.5 24
t10.5 39.5t-10.5 38.5t-33 22.5t-58.5 10.5t-87 2.5h-355q-83 0 -140.5 14t-93.5 40.5t-52.5 63.5t-16.5 84q0 51 16.5 90.5t52.5 66.5t93.5 41.5t140.5 14.5h407q79 0 130.5 -16t83.5 -45.5t48.5 -70t25.5 -89.5h-169q-9 23 -20 39.5t-27.5 27t-41 15.5t-60.5 5h-323
q-51 0 -87 -3t-59 -11t-33.5 -23.5t-10.5 -39.5t10.5 -38.5t33.5 -22.5t58.5 -10.5t86.5 -2.5h356q82 0 139.5 -14.5t93.5 -40.5t52.5 -64t16.5 -84q0 -50 -16.5 -89.5t-52.5 -66.5t-94 -41.5t-140 -14.5h-168l-28 -39q21 6 46 6q46 0 77 -17t31 -56q0 -22 -11 -37
t-29.5 -24t-43 -12.5t-51.5 -3.5q-46 0 -88.5 7.5t-68.5 15.5z" />
    <glyph glyph-name="Scaron" unicode="&#x160;" horiz-adv-x="1082" 
d="M701 133q51 0 86.5 3t58.5 11.5t33.5 24t10.5 39.5t-10.5 38.5t-33 22.5t-58.5 10.5t-87 2.5h-355q-83 0 -140.5 14t-93.5 40.5t-52.5 63.5t-16.5 84q0 51 16.5 90.5t52.5 66.5t93.5 41.5t140.5 14.5h407q79 0 130.5 -16t83.5 -45.5t48.5 -70t25.5 -89.5h-169
q-9 23 -20 39.5t-27.5 27t-41 15.5t-60.5 5h-323q-51 0 -87 -3t-59 -11t-33.5 -23.5t-10.5 -39.5t10.5 -38.5t33.5 -22.5t58.5 -10.5t86.5 -2.5h356q82 0 139.5 -14.5t93.5 -40.5t52.5 -64t16.5 -84q0 -50 -16.5 -89.5t-52.5 -66.5t-94 -41.5t-140 -14.5h-446
q-79 0 -130.5 16t-83.5 45t-48.5 69.5t-25.5 90.5h169q9 -23 20 -39.5t27.5 -27.5t41 -16t60.5 -5h363zM297 894h199l68 -76l68 76h183l-148 -144h-217z" />
    <glyph glyph-name="scaron" unicode="&#x161;" horiz-adv-x="1082" 
d="M701 133q51 0 86.5 3t58.5 11.5t33.5 24t10.5 39.5t-10.5 38.5t-33 22.5t-58.5 10.5t-87 2.5h-355q-83 0 -140.5 14t-93.5 40.5t-52.5 63.5t-16.5 84q0 51 16.5 90.5t52.5 66.5t93.5 41.5t140.5 14.5h407q79 0 130.5 -16t83.5 -45.5t48.5 -70t25.5 -89.5h-169
q-9 23 -20 39.5t-27.5 27t-41 15.5t-60.5 5h-323q-51 0 -87 -3t-59 -11t-33.5 -23.5t-10.5 -39.5t10.5 -38.5t33.5 -22.5t58.5 -10.5t86.5 -2.5h356q82 0 139.5 -14.5t93.5 -40.5t52.5 -64t16.5 -84q0 -50 -16.5 -89.5t-52.5 -66.5t-94 -41.5t-140 -14.5h-446
q-79 0 -130.5 16t-83.5 45t-48.5 69.5t-25.5 90.5h169q9 -23 20 -39.5t27.5 -27.5t41 -16t60.5 -5h363zM297 894h199l68 -76l68 76h183l-148 -144h-217z" />
    <glyph glyph-name="Tcommaaccent" unicode="&#x162;" horiz-adv-x="1023" 
d="M594 565v-565h-165v565h-419v135h1003v-135h-419zM428 -62h165v-130q0 -51 -14.5 -81.5t-38 -47t-53 -22t-59.5 -5.5v58q21 0 37.5 4t27 14t16 28t5.5 47h-86v135z" />
    <glyph glyph-name="tcommaaccent" unicode="&#x163;" horiz-adv-x="1023" 
d="M594 565v-565h-165v565h-419v135h1003v-135h-419zM428 -62h165v-130q0 -51 -14.5 -81.5t-38 -47t-53 -22t-59.5 -5.5v58q21 0 37.5 4t27 14t16 28t5.5 47h-86v135z" />
    <glyph glyph-name="Tcaron" unicode="&#x164;" horiz-adv-x="1023" 
d="M594 565v-565h-165v565h-419v135h1003v-135h-419zM252 894h199l68 -76l68 76h183l-148 -144h-217z" />
    <glyph glyph-name="tcaron" unicode="&#x165;" horiz-adv-x="1023" 
d="M594 565v-565h-165v565h-419v135h1003v-135h-419zM252 894h199l68 -76l68 76h183l-148 -144h-217z" />
    <glyph glyph-name="Tbar" unicode="&#x166;" horiz-adv-x="1023" 
d="M251 367h178v198h-419v135h1003v-135h-419v-198h177v-102h-177v-265h-165v265h-178v102z" />
    <glyph glyph-name="tbar" unicode="&#x167;" horiz-adv-x="1023" 
d="M251 367h178v198h-419v135h1003v-135h-419v-198h177v-102h-177v-265h-165v265h-178v102z" />
    <glyph glyph-name="Utilde" unicode="&#x168;" horiz-adv-x="1191" 
d="M443 -10q-106 0 -179.5 27t-120 74t-67.5 112t-21 140v357h165v-356q0 -117 66 -169.5t188 -52.5h242q121 0 188 53t67 169v356h165v-357q0 -75 -21.5 -139.5t-68.5 -112t-121 -74.5t-179 -27h-303zM839 903q-7 -44 -19.5 -71.5t-29 -44t-36 -22.5t-41.5 -6
q-20 0 -53.5 7.5t-68 16.5t-62.5 16.5t-37 7.5q-20 0 -29.5 -10t-15.5 -37h-84q10 47 26.5 75t35.5 43t39.5 20t38.5 5q10 0 40 -7.5t64 -16.5t64.5 -16.5t43.5 -7.5q14 0 25 8t18 40h81z" />
    <glyph glyph-name="utilde" unicode="&#x169;" horiz-adv-x="1191" 
d="M443 -10q-106 0 -179.5 27t-120 74t-67.5 112t-21 140v357h165v-356q0 -117 66 -169.5t188 -52.5h242q121 0 188 53t67 169v356h165v-357q0 -75 -21.5 -139.5t-68.5 -112t-121 -74.5t-179 -27h-303zM839 903q-7 -44 -19.5 -71.5t-29 -44t-36 -22.5t-41.5 -6
q-20 0 -53.5 7.5t-68 16.5t-62.5 16.5t-37 7.5q-20 0 -29.5 -10t-15.5 -37h-84q10 47 26.5 75t35.5 43t39.5 20t38.5 5q10 0 40 -7.5t64 -16.5t64.5 -16.5t43.5 -7.5q14 0 25 8t18 40h81z" />
    <glyph glyph-name="Umacron" unicode="&#x16a;" horiz-adv-x="1191" 
d="M443 -10q-106 0 -179.5 27t-120 74t-67.5 112t-21 140v357h165v-356q0 -117 66 -169.5t188 -52.5h242q121 0 188 53t67 169v356h165v-357q0 -75 -21.5 -139.5t-68.5 -112t-121 -74.5t-179 -27h-303zM360 851h470v-102h-470v102z" />
    <glyph glyph-name="umacron" unicode="&#x16b;" horiz-adv-x="1191" 
d="M443 -10q-106 0 -179.5 27t-120 74t-67.5 112t-21 140v357h165v-356q0 -117 66 -169.5t188 -52.5h242q121 0 188 53t67 169v356h165v-357q0 -75 -21.5 -139.5t-68.5 -112t-121 -74.5t-179 -27h-303zM360 851h470v-102h-470v102z" />
    <glyph glyph-name="Ubreve" unicode="&#x16c;" horiz-adv-x="1191" 
d="M443 -10q-106 0 -179.5 27t-120 74t-67.5 112t-21 140v357h165v-356q0 -117 66 -169.5t188 -52.5h242q121 0 188 53t67 169v356h165v-357q0 -75 -21.5 -139.5t-68.5 -112t-121 -74.5t-179 -27h-303zM801 882q-7 -39 -26.5 -64.5t-47 -40.5t-61.5 -21t-71 -6q-39 0 -73 6
t-61 21t-45.5 40.5t-26.5 64.5h97q9 -28 38 -35.5t71 -7.5t70 8.5t39 34.5h97z" />
    <glyph glyph-name="ubreve" unicode="&#x16d;" horiz-adv-x="1191" 
d="M443 -10q-106 0 -179.5 27t-120 74t-67.5 112t-21 140v357h165v-356q0 -117 66 -169.5t188 -52.5h242q121 0 188 53t67 169v356h165v-357q0 -75 -21.5 -139.5t-68.5 -112t-121 -74.5t-179 -27h-303zM801 882q-7 -39 -26.5 -64.5t-47 -40.5t-61.5 -21t-71 -6q-39 0 -73 6
t-61 21t-45.5 40.5t-26.5 64.5h97q9 -28 38 -35.5t71 -7.5t70 8.5t39 34.5h97z" />
    <glyph glyph-name="Uring" unicode="&#x16e;" horiz-adv-x="1191" 
d="M443 -10q-106 0 -179.5 27t-120 74t-67.5 112t-21 140v357h165v-356q0 -117 66 -169.5t188 -52.5h242q121 0 188 53t67 169v356h165v-357q0 -75 -21.5 -139.5t-68.5 -112t-121 -74.5t-179 -27h-303zM475 853q0 25 9.5 46.5t26 38t38 26t46.5 9.5t46.5 -9.5t38 -26t26 -38
t9.5 -46.5t-9.5 -46.5t-26 -38t-38 -26t-46.5 -9.5t-46.5 9.5t-38 26t-26 38t-9.5 46.5zM545 853q0 -21 14.5 -35.5t35.5 -14.5t35.5 14.5t14.5 35.5t-14.5 35.5t-35.5 14.5t-35.5 -14.5t-14.5 -35.5z" />
    <glyph glyph-name="uring" unicode="&#x16f;" horiz-adv-x="1191" 
d="M443 -10q-106 0 -179.5 27t-120 74t-67.5 112t-21 140v357h165v-356q0 -117 66 -169.5t188 -52.5h242q121 0 188 53t67 169v356h165v-357q0 -75 -21.5 -139.5t-68.5 -112t-121 -74.5t-179 -27h-303zM475 853q0 25 9.5 46.5t26 38t38 26t46.5 9.5t46.5 -9.5t38 -26t26 -38
t9.5 -46.5t-9.5 -46.5t-26 -38t-38 -26t-46.5 -9.5t-46.5 9.5t-38 26t-26 38t-9.5 46.5zM545 853q0 -21 14.5 -35.5t35.5 -14.5t35.5 14.5t14.5 35.5t-14.5 35.5t-35.5 14.5t-35.5 -14.5t-14.5 -35.5z" />
    <glyph glyph-name="Uhungarumlaut" unicode="&#x170;" horiz-adv-x="1191" 
d="M443 -10q-106 0 -179.5 27t-120 74t-67.5 112t-21 140v357h165v-356q0 -117 66 -169.5t188 -52.5h242q121 0 188 53t67 169v356h165v-357q0 -75 -21.5 -139.5t-68.5 -112t-121 -74.5t-179 -27h-303zM530 750h-161l91 144h223zM810 750h-161l91 144h223z" />
    <glyph glyph-name="uhungarumlaut" unicode="&#x171;" horiz-adv-x="1191" 
d="M443 -10q-106 0 -179.5 27t-120 74t-67.5 112t-21 140v357h165v-356q0 -117 66 -169.5t188 -52.5h242q121 0 188 53t67 169v356h165v-357q0 -75 -21.5 -139.5t-68.5 -112t-121 -74.5t-179 -27h-303zM530 750h-161l91 144h223zM810 750h-161l91 144h223z" />
    <glyph glyph-name="Uogonek" unicode="&#x172;" horiz-adv-x="1191" 
d="M1136 343q0 -74 -21 -137.5t-66 -110.5t-116 -74.5t-172 -29.5q-40 -23 -61 -43.5t-21 -45.5q0 -20 15 -31.5t46 -11.5q11 0 27 2.5t32 8.5l5 -37q-29 -8 -61.5 -14t-72.5 -6q-54 0 -83.5 17t-29.5 52q0 34 28 62t77 46h-219q-106 0 -179.5 27t-120 74t-67.5 112t-21 140
v357h165v-356q0 -117 66 -169.5t188 -52.5h242q121 0 188 53t67 169v356h165v-357v0z" />
    <glyph glyph-name="uogonek" unicode="&#x173;" horiz-adv-x="1191" 
d="M1136 343q0 -74 -21 -137.5t-66 -110.5t-116 -74.5t-172 -29.5q-40 -23 -61 -43.5t-21 -45.5q0 -20 15 -31.5t46 -11.5q11 0 27 2.5t32 8.5l5 -37q-29 -8 -61.5 -14t-72.5 -6q-54 0 -83.5 17t-29.5 52q0 34 28 62t77 46h-219q-106 0 -179.5 27t-120 74t-67.5 112t-21 140
v357h165v-356q0 -117 66 -169.5t188 -52.5h242q121 0 188 53t67 169v356h165v-357v0z" />
    <glyph glyph-name="Wcircumflex" unicode="&#x174;" horiz-adv-x="1387" 
d="M608 700h170l197 -535l232 535h180l-309 -700h-197l-188 493l-188 -493h-196l-309 700h180l232 -535zM952 750h-199l-68 76l-68 -76h-183l148 144h217z" />
    <glyph glyph-name="wcircumflex" unicode="&#x175;" horiz-adv-x="1387" 
d="M608 700h170l197 -535l232 535h180l-309 -700h-197l-188 493l-188 -493h-196l-309 700h180l232 -535zM952 750h-199l-68 76l-68 -76h-183l148 144h217z" />
    <glyph glyph-name="Ycircumflex" unicode="&#x176;" horiz-adv-x="979" 
d="M407 230l-447 470h217l313 -329l313 329h216l-447 -469v-231h-165v230zM748 750h-199l-68 76l-68 -76h-183l148 144h217z" />
    <glyph glyph-name="ycircumflex" unicode="&#x177;" horiz-adv-x="979" 
d="M407 230l-447 470h217l313 -329l313 329h216l-447 -469v-231h-165v230zM748 750h-199l-68 76l-68 -76h-183l148 144h217z" />
    <glyph glyph-name="Ydieresis" unicode="&#x178;" horiz-adv-x="979" 
d="M407 230l-447 470h217l313 -329l313 329h216l-447 -469v-231h-165v230zM273 857h167v-107h-167v107zM538 857h167v-107h-167v107z" />
    <glyph glyph-name="Zacute" unicode="&#x179;" horiz-adv-x="1043" 
d="M317 135h706v-135h-1003v118l675 447h-652v135h958v-113zM570 750h-161l91 144h223z" />
    <glyph glyph-name="zacute" unicode="&#x17a;" horiz-adv-x="1043" 
d="M317 135h706v-135h-1003v118l675 447h-652v135h958v-113zM570 750h-161l91 144h223z" />
    <glyph glyph-name="Zdotaccent" unicode="&#x17b;" horiz-adv-x="1043" 
d="M317 135h706v-135h-1003v118l675 447h-652v135h958v-113zM437 857h167v-107h-167v107z" />
    <glyph glyph-name="zdotaccent" unicode="&#x17c;" horiz-adv-x="1043" 
d="M317 135h706v-135h-1003v118l675 447h-652v135h958v-113zM437 857h167v-107h-167v107z" />
    <glyph glyph-name="Zcaron" unicode="&#x17d;" horiz-adv-x="1043" 
d="M317 135h706v-135h-1003v118l675 447h-652v135h958v-113zM282 894h200l68 -76l68 76h182l-147 -144h-218z" />
    <glyph glyph-name="zcaron" unicode="&#x17e;" horiz-adv-x="1043" 
d="M317 135h706v-135h-1003v118l675 447h-652v135h958v-113zM280 894h200l68 -76l68 76h182l-147 -144h-218z" />
    <glyph glyph-name="florin" unicode="&#x192;" horiz-adv-x="1135" 
d="M70 700h777q110 0 166.5 -50t56.5 -135q0 -23 -7.5 -47t-20.5 -45.5t-31 -38t-38 -25.5q34 -9 57.5 -26.5t38 -39t20.5 -44.5t6 -42q0 -51 -13 -90t-42.5 -65t-77 -39t-116.5 -13h-776v700z" />
    <glyph glyph-name="Scommaaccent" unicode="&#x218;" horiz-adv-x="1082" 
d="M472 -62h165v-130q0 -51 -14.5 -81.5t-38 -47t-53 -22t-59.5 -5.5v58q21 0 37 4t27 14t16.5 28t5.5 47h-86v135zM701 133q51 0 86.5 3t58.5 11.5t33.5 24t10.5 39.5t-10.5 38.5t-33 22.5t-58.5 10.5t-87 2.5h-355q-83 0 -140.5 14t-93.5 40.5t-52.5 63.5t-16.5 84
q0 51 16.5 90.5t52.5 66.5t93.5 41.5t140.5 14.5h407q79 0 130.5 -16t83.5 -45.5t48.5 -70t25.5 -89.5h-169q-9 23 -20 39.5t-27.5 27t-41 15.5t-60.5 5h-323q-51 0 -87 -3t-59 -11t-33.5 -23.5t-10.5 -39.5t10.5 -38.5t33.5 -22.5t58.5 -10.5t86.5 -2.5h356
q82 0 139.5 -14.5t93.5 -40.5t52.5 -64t16.5 -84q0 -50 -16.5 -89.5t-52.5 -66.5t-94 -41.5t-140 -14.5h-446q-79 0 -130.5 16t-83.5 45t-48.5 69.5t-25.5 90.5h169q9 -23 20 -39.5t27.5 -27.5t41 -16t60.5 -5h363z" />
    <glyph glyph-name="scommaaccent" unicode="&#x219;" horiz-adv-x="1082" 
d="M472 -62h165v-130q0 -51 -14.5 -81.5t-38 -47t-53 -22t-59.5 -5.5v58q21 0 37 4t27 14t16.5 28t5.5 47h-86v135zM701 133q51 0 86.5 3t58.5 11.5t33.5 24t10.5 39.5t-10.5 38.5t-33 22.5t-58.5 10.5t-87 2.5h-355q-83 0 -140.5 14t-93.5 40.5t-52.5 63.5t-16.5 84
q0 51 16.5 90.5t52.5 66.5t93.5 41.5t140.5 14.5h407q79 0 130.5 -16t83.5 -45.5t48.5 -70t25.5 -89.5h-169q-9 23 -20 39.5t-27.5 27t-41 15.5t-60.5 5h-323q-51 0 -87 -3t-59 -11t-33.5 -23.5t-10.5 -39.5t10.5 -38.5t33.5 -22.5t58.5 -10.5t86.5 -2.5h356
q82 0 139.5 -14.5t93.5 -40.5t52.5 -64t16.5 -84q0 -50 -16.5 -89.5t-52.5 -66.5t-94 -41.5t-140 -14.5h-446q-79 0 -130.5 16t-83.5 45t-48.5 69.5t-25.5 90.5h169q9 -23 20 -39.5t27.5 -27.5t41 -16t60.5 -5h363z" />
    <glyph glyph-name="uni0237" unicode="&#x237;" horiz-adv-x="1016" 
d="M409 -10q-97 0 -166.5 22.5t-116 63t-71 96.5t-30.5 123h166q15 -90 76.5 -131.5t171.5 -41.5h102q121 0 188 53t67 169v356h165v-357q0 -75 -21.5 -139.5t-68.5 -112t-121 -74.5t-179 -27h-162z" />
    <glyph glyph-name="circumflex" unicode="&#x2c6;" horiz-adv-x="618" 
d="M568 750h-200l-68 76l-68 -76h-182l147 144h218z" />
    <glyph glyph-name="caron" unicode="&#x2c7;" horiz-adv-x="618" 
d="M50 894h199l68 -76l68 76h183l-148 -144h-217z" />
    <glyph glyph-name="breve" unicode="&#x2d8;" horiz-adv-x="582" 
d="M497 882q-7 -39 -26.5 -64.5t-47 -40.5t-61.5 -21t-71 -6q-39 0 -73 6t-61 21t-45.5 40.5t-26.5 64.5h97q9 -28 38 -35.5t71 -7.5t70 8.5t39 34.5h97z" />
    <glyph glyph-name="dotaccent" unicode="&#x2d9;" horiz-adv-x="267" 
d="M51 885h165v-135h-165v135z" />
    <glyph glyph-name="ring" unicode="&#x2da;" horiz-adv-x="376" 
d="M68 853q0 25 9.5 46.5t26 38t38 26t46.5 9.5t46.5 -9.5t38 -26t26 -38t9.5 -46.5t-9.5 -46.5t-26 -38t-38 -26t-46.5 -9.5t-46.5 9.5t-38 26t-26 38t-9.5 46.5zM138 853q0 -21 14.5 -35.5t35.5 -14.5t35.5 14.5t14.5 35.5t-14.5 35.5t-35.5 14.5t-35.5 -14.5t-14.5 -35.5
z" />
    <glyph glyph-name="ogonek" unicode="&#x2db;" horiz-adv-x="382" 
d="M312 3q-51 -26 -78 -49.5t-27 -51.5q0 -20 14.5 -31.5t46.5 -11.5q11 0 27 2.5t32 8.5l5 -37q-29 -8 -62 -14t-73 -6q-54 0 -83 17t-29 52q0 41 40.5 73t109.5 48h77z" />
    <glyph glyph-name="tilde" unicode="&#x2dc;" horiz-adv-x="576" 
d="M526 903q-7 -44 -19.5 -71.5t-29 -44t-36 -22.5t-41.5 -6q-20 0 -53.5 7.5t-68 16.5t-62.5 16.5t-37 7.5q-20 0 -29.5 -10t-15.5 -37h-84q10 47 26.5 75t35.5 43t39.5 20t38.5 5q10 0 40 -7.5t64 -16.5t64.5 -16.5t43.5 -7.5q14 0 25 8t18 40h81z" />
    <glyph glyph-name="hungarumlaut" unicode="&#x2dd;" horiz-adv-x="693" 
d="M251 750h-161l91 144h223zM530 750h-161l91 144h223z" />
    <glyph glyph-name="Delta" unicode="&#x394;" horiz-adv-x="1055" 
d="M634 700l421 -653v-47h-1055v46l421 654h213zM237 127h576l-284 443z" />
    <glyph glyph-name="Delta" unicode="&#x2206;" horiz-adv-x="1055" 
d="M634 700l421 -653v-47h-1055v46l421 654h213zM237 127h576l-284 443z" />
    <glyph glyph-name="pi" unicode="&#x3c0;" horiz-adv-x="1224" 
d="M989 565h-754v-565h-165v700h1084v-700h-165v565z" />
    <glyph glyph-name="uni1E02" unicode="&#x1e02;" horiz-adv-x="1135" 
d="M70 700h777q110 0 166.5 -50t56.5 -135q0 -23 -7.5 -47t-20.5 -45.5t-31 -38t-38 -25.5q34 -9 57.5 -26.5t38 -39t20.5 -44.5t6 -42q0 -51 -13 -90t-42.5 -65t-77 -39t-116.5 -13h-776v700zM235 135h586q31 0 49.5 8t28.5 19t13.5 24t3.5 24q0 10 -3.5 22.5t-13.5 24
t-28.5 19.5t-49.5 8h-586v-149zM235 415h561q31 0 49.5 8t28.5 19t13.5 24t3.5 24q0 10 -3.5 22.5t-13.5 24t-28.5 19.5t-49.5 8h-561v-149zM483 857h167v-107h-167v107z" />
    <glyph glyph-name="uni1E03" unicode="&#x1e03;" horiz-adv-x="1135" 
d="M70 700h777q110 0 166.5 -50t56.5 -135q0 -23 -7.5 -47t-20.5 -45.5t-31 -38t-38 -25.5q34 -9 57.5 -26.5t38 -39t20.5 -44.5t6 -42q0 -51 -13 -90t-42.5 -65t-77 -39t-116.5 -13h-776v700zM235 135h586q31 0 49.5 8t28.5 19t13.5 24t3.5 24q0 10 -3.5 22.5t-13.5 24
t-28.5 19.5t-49.5 8h-586v-149zM235 415h561q31 0 49.5 8t28.5 19t13.5 24t3.5 24q0 10 -3.5 22.5t-13.5 24t-28.5 19.5t-49.5 8h-561v-149zM483 857h167v-107h-167v107z" />
    <glyph glyph-name="uni1E0A" unicode="&#x1e0a;" horiz-adv-x="1181" 
d="M70 700h691q105 0 179 -28.5t121 -76.5t68.5 -112t21.5 -135t-21.5 -134.5t-68.5 -111t-121 -75t-179 -27.5h-691v700zM235 567v-435h496q121 0 188 54t67 163t-67 163.5t-188 54.5h-496zM492 857h167v-107h-167v107z" />
    <glyph glyph-name="uni1E0B" unicode="&#x1e0b;" horiz-adv-x="1181" 
d="M70 700h691q105 0 179 -28.5t121 -76.5t68.5 -112t21.5 -135t-21.5 -134.5t-68.5 -111t-121 -75t-179 -27.5h-691v700zM235 567v-435h496q121 0 188 54t67 163t-67 163.5t-188 54.5h-496zM492 857h167v-107h-167v107z" />
    <glyph glyph-name="uni1E1E" unicode="&#x1e1e;" horiz-adv-x="999" 
d="M235 565v-180h692v-130h-692v-255h-165v700h919v-135h-754zM446 857h167v-107h-167v107z" />
    <glyph glyph-name="uni1E1F" unicode="&#x1e1f;" horiz-adv-x="999" 
d="M235 565v-180h692v-130h-692v-255h-165v700h919v-135h-754zM446 857h167v-107h-167v107z" />
    <glyph glyph-name="uni1E40" unicode="&#x1e40;" horiz-adv-x="1352" 
d="M70 0v700h231l376 -517l369 517h236v-700h-165v529l-377 -529h-121l-384 528v-528h-165zM592 857h167v-107h-167v107z" />
    <glyph glyph-name="uni1E41" unicode="&#x1e41;" horiz-adv-x="1352" 
d="M70 0v700h231l376 -517l369 517h236v-700h-165v529l-377 -529h-121l-384 528v-528h-165zM592 857h167v-107h-167v107z" />
    <glyph glyph-name="uni1E56" unicode="&#x1e56;" horiz-adv-x="1082" 
d="M70 701h668q86 0 147.5 -16.5t100.5 -49.5t57.5 -82.5t18.5 -114.5q0 -57 -18 -104.5t-57 -81.5t-100 -53t-147 -19h-505v-180h-165v701zM235 315h509q27 0 54 4.5t49 17.5t36 37.5t14 64.5q0 41 -14 65.5t-36 38t-49 18t-54 4.5h-509v-250zM457 857h167v-107h-167v107z
" />
    <glyph glyph-name="uni1E57" unicode="&#x1e57;" horiz-adv-x="1082" 
d="M70 701h668q86 0 147.5 -16.5t100.5 -49.5t57.5 -82.5t18.5 -114.5q0 -57 -18 -104.5t-57 -81.5t-100 -53t-147 -19h-505v-180h-165v701zM235 315h509q27 0 54 4.5t49 17.5t36 37.5t14 64.5q0 41 -14 65.5t-36 38t-49 18t-54 4.5h-509v-250zM457 857h167v-107h-167v107z
" />
    <glyph glyph-name="uni1E60" unicode="&#x1e60;" horiz-adv-x="1082" 
d="M701 133q51 0 86.5 3t58.5 11.5t33.5 24t10.5 39.5t-10.5 38.5t-33 22.5t-58.5 10.5t-87 2.5h-355q-83 0 -140.5 14t-93.5 40.5t-52.5 63.5t-16.5 84q0 51 16.5 90.5t52.5 66.5t93.5 41.5t140.5 14.5h407q79 0 130.5 -16t83.5 -45.5t48.5 -70t25.5 -89.5h-169
q-9 23 -20 39.5t-27.5 27t-41 15.5t-60.5 5h-323q-51 0 -87 -3t-59 -11t-33.5 -23.5t-10.5 -39.5t10.5 -38.5t33.5 -22.5t58.5 -10.5t86.5 -2.5h356q82 0 139.5 -14.5t93.5 -40.5t52.5 -64t16.5 -84q0 -50 -16.5 -89.5t-52.5 -66.5t-94 -41.5t-140 -14.5h-446
q-79 0 -130.5 16t-83.5 45t-48.5 69.5t-25.5 90.5h169q9 -23 20 -39.5t27.5 -27.5t41 -16t60.5 -5h363zM457 857h167v-107h-167v107z" />
    <glyph glyph-name="uni1E61" unicode="&#x1e61;" horiz-adv-x="1082" 
d="M701 133q51 0 86.5 3t58.5 11.5t33.5 24t10.5 39.5t-10.5 38.5t-33 22.5t-58.5 10.5t-87 2.5h-355q-83 0 -140.5 14t-93.5 40.5t-52.5 63.5t-16.5 84q0 51 16.5 90.5t52.5 66.5t93.5 41.5t140.5 14.5h407q79 0 130.5 -16t83.5 -45.5t48.5 -70t25.5 -89.5h-169
q-9 23 -20 39.5t-27.5 27t-41 15.5t-60.5 5h-323q-51 0 -87 -3t-59 -11t-33.5 -23.5t-10.5 -39.5t10.5 -38.5t33.5 -22.5t58.5 -10.5t86.5 -2.5h356q82 0 139.5 -14.5t93.5 -40.5t52.5 -64t16.5 -84q0 -50 -16.5 -89.5t-52.5 -66.5t-94 -41.5t-140 -14.5h-446
q-79 0 -130.5 16t-83.5 45t-48.5 69.5t-25.5 90.5h169q9 -23 20 -39.5t27.5 -27.5t41 -16t60.5 -5h363zM457 857h167v-107h-167v107z" />
    <glyph glyph-name="uni1E6A" unicode="&#x1e6a;" horiz-adv-x="1023" 
d="M594 565v-565h-165v565h-419v135h1003v-135h-419zM427 857h167v-107h-167v107z" />
    <glyph glyph-name="uni1E6B" unicode="&#x1e6b;" horiz-adv-x="1023" 
d="M594 565v-565h-165v565h-419v135h1003v-135h-419zM427 857h167v-107h-167v107z" />
    <glyph glyph-name="Wgrave" unicode="&#x1e80;" horiz-adv-x="1387" 
d="M608 700h170l197 -535l232 535h180l-309 -700h-197l-188 493l-188 -493h-196l-309 700h180l232 -535zM482 894h223l91 -144h-161z" />
    <glyph glyph-name="wgrave" unicode="&#x1e81;" horiz-adv-x="1387" 
d="M608 700h170l197 -535l232 535h180l-309 -700h-197l-188 493l-188 -493h-196l-309 700h180l232 -535zM482 894h223l91 -144h-161z" />
    <glyph glyph-name="Wacute" unicode="&#x1e82;" horiz-adv-x="1387" 
d="M608 700h170l197 -535l232 535h180l-309 -700h-197l-188 493l-188 -493h-196l-309 700h180l232 -535zM754 750h-161l91 144h223z" />
    <glyph glyph-name="wacute" unicode="&#x1e83;" horiz-adv-x="1387" 
d="M608 700h170l197 -535l232 535h180l-309 -700h-197l-188 493l-188 -493h-196l-309 700h180l232 -535zM754 750h-161l91 144h223z" />
    <glyph glyph-name="Wdieresis" unicode="&#x1e84;" horiz-adv-x="1387" 
d="M608 700h170l197 -535l232 535h180l-309 -700h-197l-188 493l-188 -493h-196l-309 700h180l232 -535zM477 857h167v-107h-167v107zM742 857h167v-107h-167v107z" />
    <glyph glyph-name="wdieresis" unicode="&#x1e85;" horiz-adv-x="1387" 
d="M608 700h170l197 -535l232 535h180l-309 -700h-197l-188 493l-188 -493h-196l-309 700h180l232 -535zM477 857h167v-107h-167v107zM742 857h167v-107h-167v107z" />
    <glyph glyph-name="Ygrave" unicode="&#x1ef2;" horiz-adv-x="979" 
d="M407 230l-447 470h217l313 -329l313 329h216l-447 -469v-231h-165v230zM283 894h223l91 -144h-161z" />
    <glyph glyph-name="ygrave" unicode="&#x1ef3;" horiz-adv-x="979" 
d="M407 230l-447 470h217l313 -329l313 329h216l-447 -469v-231h-165v230zM283 894h223l91 -144h-161z" />
    <glyph glyph-name="endash" unicode="&#x2013;" horiz-adv-x="681" 
d="M59 416h563v-134h-563v134z" />
    <glyph glyph-name="emdash" unicode="&#x2014;" horiz-adv-x="1061" 
d="M59 416h943v-134h-943v134z" />
    <glyph glyph-name="quoteleft" unicode="&#x2018;" 
d="M235 414h-165v129q0 51 14.5 82t38 47.5t53 22t59.5 5.5v-59q-43 0 -64.5 -17.5t-21.5 -74.5h86v-135z" />
    <glyph glyph-name="quoteright" unicode="&#x2019;" 
d="M70 700h165v-130q0 -51 -14.5 -81.5t-38 -47t-53 -22t-59.5 -5.5v58q21 0 37 4t27 14t16.5 28t5.5 47h-86v135z" />
    <glyph glyph-name="quotesinglbase" unicode="&#x201a;" 
d="M70 135h165v-130q0 -51 -14.5 -81.5t-38 -47t-53 -22t-59.5 -5.5v58q21 0 37 4t27 14t16.5 28t5.5 47h-86v135z" />
    <glyph glyph-name="quotedblleft" unicode="&#x201c;" horiz-adv-x="530" 
d="M460 414h-165v129q0 51 14.5 82t38 47.5t53 22t59.5 5.5v-59q-43 0 -64.5 -17.5t-21.5 -74.5h86v-135zM235 414h-165v129q0 51 14.5 82t38 47.5t53 22t59.5 5.5v-59q-43 0 -64.5 -17.5t-21.5 -74.5h86v-135z" />
    <glyph glyph-name="quotedblright" unicode="&#x201d;" horiz-adv-x="530" 
d="M70 700h165v-130q0 -51 -14.5 -81.5t-38 -47t-53 -22t-59.5 -5.5v58q21 0 37 4t27 14t16.5 28t5.5 47h-86v135zM295 700h165v-130q0 -51 -14.5 -81.5t-38 -47t-53 -22t-59.5 -5.5v58q21 0 37 4t27 14t16.5 28t5.5 47h-86v135z" />
    <glyph glyph-name="quotedblbase" unicode="&#x201e;" horiz-adv-x="530" 
d="M70 135h165v-130q0 -51 -14.5 -81.5t-38 -47t-53 -22t-59.5 -5.5v58q21 0 37 4t27 14t16.5 28t5.5 47h-86v135zM295 135h165v-130q0 -51 -14.5 -81.5t-38 -47t-53 -22t-59.5 -5.5v58q21 0 37 4t27 14t16.5 28t5.5 47h-86v135z" />
    <glyph glyph-name="dagger" unicode="&#x2020;" horiz-adv-x="836" 
d="M50 514h285v186h165v-186h286v-144h-286v-596h-165v596h-285v144z" />
    <glyph glyph-name="daggerdbl" unicode="&#x2021;" horiz-adv-x="836" 
d="M50 522h288v178h159v-178h289v-135h-289v-234h289v-135h-289v-217h-159v217h-288v135h288v234h-288v135z" />
    <glyph glyph-name="bullet" unicode="&#x2022;" horiz-adv-x="456" 
d="M50 350q0 37 14 69.5t38 56.5t56.5 38t69.5 14t69.5 -14t56.5 -38t38 -56.5t14 -69.5t-14 -69.5t-38 -56.5t-56.5 -38t-69.5 -14t-69.5 14t-56.5 38t-38 56.5t-14 69.5z" />
    <glyph glyph-name="ellipsis" unicode="&#x2026;" horiz-adv-x="915" 
d="M70 135h165v-135h-165v135zM375 135h165v-135h-165v135zM680 135h165v-135h-165v135z" />
    <glyph glyph-name="perthousand" unicode="&#x2030;" horiz-adv-x="1626" 
d="M497 508q0 -51 -16 -89.5t-45.5 -64t-71 -38t-91.5 -12.5t-91 14t-70.5 40.5t-45.5 64.5t-16 85t16 84.5t45.5 64t70.5 41t91 14.5t91.5 -14t71 -40.5t45.5 -64.5t16 -85zM273 396q53 0 80.5 28t27.5 84q0 48 -27 80t-81 32q-53 0 -80 -31.5t-27 -80.5t27 -80.5t80 -31.5
zM420 0h-109l405 700h109zM1076 189q0 -51 -16 -89.5t-45.5 -64t-71 -38t-91.5 -12.5t-91 14t-70.5 40.5t-46 64.5t-16.5 85t16.5 84.5t46 64t70.5 41t91 14.5t91.5 -14t71 -40.5t45.5 -64.5t16 -85zM852 77q107 0 107 112q0 48 -26.5 80t-80.5 32t-80.5 -31.5t-26.5 -80.5
t26.5 -80.5t80.5 -31.5zM1576 189q0 -51 -16 -89.5t-45.5 -64t-71 -38t-91.5 -12.5t-91 14t-70.5 40.5t-45.5 64.5t-16 85t16 84.5t45.5 64t70.5 41t91 14.5t91.5 -14t71 -40.5t45.5 -64.5t16 -85zM1352 77q53 0 80.5 28t27.5 84q0 48 -27 80t-81 32q-53 0 -80 -31.5
t-27 -80.5t27 -80.5t80 -31.5z" />
    <glyph glyph-name="guilsinglleft" unicode="&#x2039;" horiz-adv-x="336" 
d="M50 414l236 161v-133l-125 -92l125 -92v-133l-236 161v128z" />
    <glyph glyph-name="guilsinglright" unicode="&#x203a;" horiz-adv-x="336" 
d="M286 286l-236 -161v133l125 92l-125 92v133l236 -161v-128z" />
    <glyph glyph-name="fraction" unicode="&#x2044;" horiz-adv-x="339" 
d="M37 0h-109l405 700h109z" />
    <glyph glyph-name="Euro" unicode="&#x20ac;" horiz-adv-x="1200" 
d="M510 577q-88 0 -148.5 -31.5t-86.5 -94.5h576l-20 -68h-574q-1 -8 -1 -16.5v-17.5v-16t1 -16h567l-20 -67h-531q25 -64 86 -96t151 -32h255q86 0 145 29t87 89h173q-13 -53 -41.5 -98.5t-74.5 -79t-110.5 -53t-148.5 -19.5h-316q-87 0 -152.5 20t-111.5 55t-74 82.5
t-40 102.5h-116l20 67h86q-1 8 -1 16v16v16.5t1 17.5h-81l20 68h72q13 54 41 101.5t74 82.5t111 55t151 20h316q82 0 145 -19t108.5 -51.5t74.5 -76.5t44 -95h-175q-30 55 -88 82t-139 27h-255z" />
    <glyph glyph-name="trademark" unicode="&#x2122;" horiz-adv-x="1509" 
d="M403 688v-338h-142v338h-251v111h644v-111h-251zM693 350v449h177l211 -314l206 314h182v-449h-126v324l-211 -324h-99l-215 322v-322h-125z" />
    <glyph glyph-name="minus" unicode="&#x2212;" horiz-adv-x="641" 
d="M582 416v-135h-523v135h523z" />
    <glyph glyph-name="uniF6C3" unicode="&#xf6c3;" horiz-adv-x="285" 
d="M60 -62h165v-130q0 -51 -14.5 -81.5t-38 -47t-53 -22t-59.5 -5.5v58q21 0 37 4t27 14t16.5 28t5.5 47h-86v135z" />
    <glyph glyph-name="uniF8FF" unicode="&#xf8ff;" horiz-adv-x="875" 
d="M794 530v170h54v-25h-32v-49h30v-24h-30v-51h32v-21h-54zM782 635q0 -18 -9 -26t-22 -8h-18v-71h-20v170h38q13 0 22 -9t9 -29v-27zM677 587v-57h-27v57l-25 113h24l14 -75l16 75h25zM602 675v-145h-23v145h-19v25h64v-25h-22zM501 530l-5 35h-24l-3 -35h-22l22 170h32
l23 -170h-23zM439 563q-2 -18 -10.5 -25.5t-20.5 -7.5h-40v170h40q12 0 20.5 -9t10.5 -29v-99zM337 530l-5 35h-24l-4 -35h-23l23 170h33l21 -170h-21zM242 530l-27 109l-5 13l3 -14v-108h-23v170h28l28 -117l5 -14l-2 15v116h23v-170h-30zM159 530l-7 35h-24l-3 -35h-23
l23 170h34l20 -170h-20zM97 562q0 -20 -10 -26.5t-26 -6.5q-15 0 -24.5 6.5t-11.5 26.5v103q2 20 11.5 28t24.5 8q16 0 26 -8t10 -28v-27h-24v24q-3 17 -12 17q-10 0 -13 -17v-99q4 -16 13 -16q8 0 12 16v22h24v-23zM460 -200v168l156 -32l-45 58l161 127l-71 14l71 93
l-104 -40l-12 77l-110 -103l63 196l-63 -30l-59 107l-66 -107l-50 30l37 -196l-103 103l-10 -77l-103 40l66 -93l-77 -14l173 -127l-49 -58l165 32v-168h-410v698h835v-698h-395zM758 662q0 16 -12 16h-13v-58h13q12 0 12 17v25zM485 664q0 9 -1 11v-11l-10 -75h20zM415 661
q0 9 -3 11.5t-9 2.5h-12v-126h12q6 0 9 5t3 13v94zM321 664q0 9 -2 11v-11l-7 -75h19zM143 664q0 9 -2 11v-11l-10 -75h20z" />
    <glyph glyph-name="uniFB01" unicode="&#xfb01;" horiz-adv-x="1304" 
d="M235 565v-180h692v-130h-692v-255h-165v700h919v-135h-754zM1069 700h165v-700h-165v700z" />
    <glyph glyph-name="uniFB02" unicode="&#xfb02;" horiz-adv-x="2014" 
d="M235 565v-180h692v-130h-692v-255h-165v700h919v-135h-754zM2004 135v-135h-935v700h165v-565h770z" />
    </font>
</defs>
</svg>
